%TF.GenerationSoftware,KiCad,Pcbnew,8.0.5*%
%TF.CreationDate,2025-04-02T12:48:29+02:00*%
%TF.ProjectId,Antenna_imp_measurements_7.5cm,416e7465-6e6e-4615-9f69-6d705f6d6561,rev?*%
%TF.SameCoordinates,Original*%
%TF.FileFunction,Copper,L1,Top*%
%TF.FilePolarity,Positive*%
%FSLAX46Y46*%
G04 Gerber Fmt 4.6, Leading zero omitted, Abs format (unit mm)*
G04 Created by KiCad (PCBNEW 8.0.5) date 2025-04-02 12:48:29*
%MOMM*%
%LPD*%
G01*
G04 APERTURE LIST*
%TA.AperFunction,Conductor*%
%ADD10C,0.200000*%
%TD*%
%ADD11C,0.300000*%
%TA.AperFunction,NonConductor*%
%ADD12C,0.300000*%
%TD*%
%TA.AperFunction,NonConductor*%
%ADD13C,0.200000*%
%TD*%
%TA.AperFunction,SMDPad,CuDef*%
%ADD14R,4.191000X1.270000*%
%TD*%
%TA.AperFunction,SMDPad,CuDef*%
%ADD15R,4.800600X1.346200*%
%TD*%
%TA.AperFunction,ViaPad*%
%ADD16C,1.000000*%
%TD*%
%TA.AperFunction,Conductor*%
%ADD17C,1.000000*%
%TD*%
%TA.AperFunction,Conductor*%
%ADD18C,2.973000*%
%TD*%
G04 APERTURE END LIST*
D10*
%TO.N,GND*%
X53600000Y-67200000D02*
X53600000Y-67100000D01*
D11*
D12*
X137521185Y-85499998D02*
X137449757Y-85428570D01*
X137449757Y-85428570D02*
X137378328Y-85285713D01*
X137378328Y-85285713D02*
X137378328Y-84928570D01*
X137378328Y-84928570D02*
X137449757Y-84785713D01*
X137449757Y-84785713D02*
X137521185Y-84714284D01*
X137521185Y-84714284D02*
X137664042Y-84642855D01*
X137664042Y-84642855D02*
X137806900Y-84642855D01*
X137806900Y-84642855D02*
X138021185Y-84714284D01*
X138021185Y-84714284D02*
X138878328Y-85571427D01*
X138878328Y-85571427D02*
X138878328Y-84642855D01*
X137378328Y-83714284D02*
X137378328Y-83571427D01*
X137378328Y-83571427D02*
X137449757Y-83428570D01*
X137449757Y-83428570D02*
X137521185Y-83357142D01*
X137521185Y-83357142D02*
X137664042Y-83285713D01*
X137664042Y-83285713D02*
X137949757Y-83214284D01*
X137949757Y-83214284D02*
X138306900Y-83214284D01*
X138306900Y-83214284D02*
X138592614Y-83285713D01*
X138592614Y-83285713D02*
X138735471Y-83357142D01*
X138735471Y-83357142D02*
X138806900Y-83428570D01*
X138806900Y-83428570D02*
X138878328Y-83571427D01*
X138878328Y-83571427D02*
X138878328Y-83714284D01*
X138878328Y-83714284D02*
X138806900Y-83857142D01*
X138806900Y-83857142D02*
X138735471Y-83928570D01*
X138735471Y-83928570D02*
X138592614Y-83999999D01*
X138592614Y-83999999D02*
X138306900Y-84071427D01*
X138306900Y-84071427D02*
X137949757Y-84071427D01*
X137949757Y-84071427D02*
X137664042Y-83999999D01*
X137664042Y-83999999D02*
X137521185Y-83928570D01*
X137521185Y-83928570D02*
X137449757Y-83857142D01*
X137449757Y-83857142D02*
X137378328Y-83714284D01*
X138735471Y-82571428D02*
X138806900Y-82499999D01*
X138806900Y-82499999D02*
X138878328Y-82571428D01*
X138878328Y-82571428D02*
X138806900Y-82642856D01*
X138806900Y-82642856D02*
X138735471Y-82571428D01*
X138735471Y-82571428D02*
X138878328Y-82571428D01*
X137378328Y-81571427D02*
X137378328Y-81428570D01*
X137378328Y-81428570D02*
X137449757Y-81285713D01*
X137449757Y-81285713D02*
X137521185Y-81214285D01*
X137521185Y-81214285D02*
X137664042Y-81142856D01*
X137664042Y-81142856D02*
X137949757Y-81071427D01*
X137949757Y-81071427D02*
X138306900Y-81071427D01*
X138306900Y-81071427D02*
X138592614Y-81142856D01*
X138592614Y-81142856D02*
X138735471Y-81214285D01*
X138735471Y-81214285D02*
X138806900Y-81285713D01*
X138806900Y-81285713D02*
X138878328Y-81428570D01*
X138878328Y-81428570D02*
X138878328Y-81571427D01*
X138878328Y-81571427D02*
X138806900Y-81714285D01*
X138806900Y-81714285D02*
X138735471Y-81785713D01*
X138735471Y-81785713D02*
X138592614Y-81857142D01*
X138592614Y-81857142D02*
X138306900Y-81928570D01*
X138306900Y-81928570D02*
X137949757Y-81928570D01*
X137949757Y-81928570D02*
X137664042Y-81857142D01*
X137664042Y-81857142D02*
X137521185Y-81785713D01*
X137521185Y-81785713D02*
X137449757Y-81714285D01*
X137449757Y-81714285D02*
X137378328Y-81571427D01*
X137378328Y-80142856D02*
X137378328Y-79999999D01*
X137378328Y-79999999D02*
X137449757Y-79857142D01*
X137449757Y-79857142D02*
X137521185Y-79785714D01*
X137521185Y-79785714D02*
X137664042Y-79714285D01*
X137664042Y-79714285D02*
X137949757Y-79642856D01*
X137949757Y-79642856D02*
X138306900Y-79642856D01*
X138306900Y-79642856D02*
X138592614Y-79714285D01*
X138592614Y-79714285D02*
X138735471Y-79785714D01*
X138735471Y-79785714D02*
X138806900Y-79857142D01*
X138806900Y-79857142D02*
X138878328Y-79999999D01*
X138878328Y-79999999D02*
X138878328Y-80142856D01*
X138878328Y-80142856D02*
X138806900Y-80285714D01*
X138806900Y-80285714D02*
X138735471Y-80357142D01*
X138735471Y-80357142D02*
X138592614Y-80428571D01*
X138592614Y-80428571D02*
X138306900Y-80499999D01*
X138306900Y-80499999D02*
X137949757Y-80499999D01*
X137949757Y-80499999D02*
X137664042Y-80428571D01*
X137664042Y-80428571D02*
X137521185Y-80357142D01*
X137521185Y-80357142D02*
X137449757Y-80285714D01*
X137449757Y-80285714D02*
X137378328Y-80142856D01*
X138878328Y-77857143D02*
X137878328Y-77857143D01*
X138021185Y-77857143D02*
X137949757Y-77785714D01*
X137949757Y-77785714D02*
X137878328Y-77642857D01*
X137878328Y-77642857D02*
X137878328Y-77428571D01*
X137878328Y-77428571D02*
X137949757Y-77285714D01*
X137949757Y-77285714D02*
X138092614Y-77214286D01*
X138092614Y-77214286D02*
X138878328Y-77214286D01*
X138092614Y-77214286D02*
X137949757Y-77142857D01*
X137949757Y-77142857D02*
X137878328Y-77000000D01*
X137878328Y-77000000D02*
X137878328Y-76785714D01*
X137878328Y-76785714D02*
X137949757Y-76642857D01*
X137949757Y-76642857D02*
X138092614Y-76571428D01*
X138092614Y-76571428D02*
X138878328Y-76571428D01*
X138878328Y-75857143D02*
X137878328Y-75857143D01*
X138021185Y-75857143D02*
X137949757Y-75785714D01*
X137949757Y-75785714D02*
X137878328Y-75642857D01*
X137878328Y-75642857D02*
X137878328Y-75428571D01*
X137878328Y-75428571D02*
X137949757Y-75285714D01*
X137949757Y-75285714D02*
X138092614Y-75214286D01*
X138092614Y-75214286D02*
X138878328Y-75214286D01*
X138092614Y-75214286D02*
X137949757Y-75142857D01*
X137949757Y-75142857D02*
X137878328Y-75000000D01*
X137878328Y-75000000D02*
X137878328Y-74785714D01*
X137878328Y-74785714D02*
X137949757Y-74642857D01*
X137949757Y-74642857D02*
X138092614Y-74571428D01*
X138092614Y-74571428D02*
X138878328Y-74571428D01*
D13*
X125750000Y-90000000D02*
X140586420Y-90000000D01*
X125750000Y-70000000D02*
X140586420Y-70000000D01*
X140000000Y-90000000D02*
X140000000Y-70000000D01*
X140000000Y-90000000D02*
X140000000Y-70000000D01*
X140000000Y-90000000D02*
X139413579Y-88873496D01*
X140000000Y-90000000D02*
X140586421Y-88873496D01*
X140000000Y-70000000D02*
X140586421Y-71126504D01*
X140000000Y-70000000D02*
X139413579Y-71126504D01*
%TD*%
D14*
%TO.P,J1,1,1*%
%TO.N,Net-(J1-Pad1)*%
X52455001Y-70000000D03*
D15*
%TO.P,J1,2,2*%
%TO.N,GND*%
X52655046Y-72825001D03*
%TO.P,J1,3,3*%
X52655046Y-67175002D03*
%TD*%
D14*
%TO.P,J2,1,1*%
%TO.N,Net-(J1-Pad1)*%
X122544999Y-70000000D03*
D15*
%TO.P,J2,2,2*%
%TO.N,GND*%
X122344954Y-67174999D03*
%TO.P,J2,3,3*%
X122344954Y-72824998D03*
%TD*%
D16*
%TO.N,GND*%
X51750000Y-74250000D03*
X120700000Y-74250000D03*
X54250000Y-65750000D03*
X51750000Y-65750000D03*
X123200000Y-74250000D03*
X53000000Y-74250000D03*
X53000000Y-65750000D03*
X121950000Y-74250000D03*
X123200000Y-65750000D03*
X121950000Y-65750000D03*
X120700000Y-65750000D03*
X54250000Y-74250000D03*
%TD*%
D17*
%TO.N,GND*%
X123200000Y-65750000D02*
X123200000Y-66500000D01*
X121950000Y-65750000D02*
X121950000Y-66520000D01*
X120700000Y-65750000D02*
X120700000Y-66490000D01*
X123200000Y-74250000D02*
X123200000Y-73490000D01*
X121950000Y-74250000D02*
X121950000Y-73460000D01*
X120700000Y-74250000D02*
X120700000Y-73480000D01*
X53000000Y-74250000D02*
X53000000Y-73500000D01*
X54250000Y-74250000D02*
X54250000Y-73500000D01*
X53000000Y-65750000D02*
X53000000Y-66500000D01*
X51750000Y-74250000D02*
X51750000Y-73500000D01*
X51750000Y-65750000D02*
X51750000Y-66500000D01*
X54250000Y-65750000D02*
X54250000Y-66500000D01*
D18*
%TO.N,Net-(J1-Pad1)*%
X52455001Y-70000000D02*
X123513500Y-70000000D01*
X51486500Y-70000000D02*
X52455001Y-70000000D01*
%TD*%
M02*
