%TF.GenerationSoftware,KiCad,Pcbnew,8.0.5*%
%TF.CreationDate,2025-04-29T16:12:59+02:00*%
%TF.ProjectId,ForestFireDetection,466f7265-7374-4466-9972-654465746563,rev?*%
%TF.SameCoordinates,Original*%
%TF.FileFunction,Paste,Top*%
%TF.FilePolarity,Positive*%
%FSLAX46Y46*%
G04 Gerber Fmt 4.6, Leading zero omitted, Abs format (unit mm)*
G04 Created by KiCad (PCBNEW 8.0.5) date 2025-04-29 16:12:59*
%MOMM*%
%LPD*%
G01*
G04 APERTURE LIST*
G04 Aperture macros list*
%AMRoundRect*
0 Rectangle with rounded corners*
0 $1 Rounding radius*
0 $2 $3 $4 $5 $6 $7 $8 $9 X,Y pos of 4 corners*
0 Add a 4 corners polygon primitive as box body*
4,1,4,$2,$3,$4,$5,$6,$7,$8,$9,$2,$3,0*
0 Add four circle primitives for the rounded corners*
1,1,$1+$1,$2,$3*
1,1,$1+$1,$4,$5*
1,1,$1+$1,$6,$7*
1,1,$1+$1,$8,$9*
0 Add four rect primitives between the rounded corners*
20,1,$1+$1,$2,$3,$4,$5,0*
20,1,$1+$1,$4,$5,$6,$7,0*
20,1,$1+$1,$6,$7,$8,$9,0*
20,1,$1+$1,$8,$9,$2,$3,0*%
G04 Aperture macros list end*
%ADD10C,0.010000*%
%ADD11C,0.100000*%
%ADD12RoundRect,0.237500X-0.250000X-0.237500X0.250000X-0.237500X0.250000X0.237500X-0.250000X0.237500X0*%
%ADD13RoundRect,0.237500X-0.237500X0.250000X-0.237500X-0.250000X0.237500X-0.250000X0.237500X0.250000X0*%
%ADD14RoundRect,0.160000X0.197500X0.160000X-0.197500X0.160000X-0.197500X-0.160000X0.197500X-0.160000X0*%
%ADD15RoundRect,0.237500X0.237500X-0.250000X0.237500X0.250000X-0.237500X0.250000X-0.237500X-0.250000X0*%
%ADD16RoundRect,0.237500X0.237500X-0.287500X0.237500X0.287500X-0.237500X0.287500X-0.237500X-0.287500X0*%
%ADD17RoundRect,0.237500X0.250000X0.237500X-0.250000X0.237500X-0.250000X-0.237500X0.250000X-0.237500X0*%
%ADD18R,0.740000X2.790000*%
%ADD19RoundRect,0.155000X0.212500X0.155000X-0.212500X0.155000X-0.212500X-0.155000X0.212500X-0.155000X0*%
%ADD20RoundRect,0.155000X0.155000X-0.212500X0.155000X0.212500X-0.155000X0.212500X-0.155000X-0.212500X0*%
%ADD21RoundRect,0.155000X-0.155000X0.212500X-0.155000X-0.212500X0.155000X-0.212500X0.155000X0.212500X0*%
%ADD22R,0.400000X0.400000*%
%ADD23RoundRect,0.155000X-0.212500X-0.155000X0.212500X-0.155000X0.212500X0.155000X-0.212500X0.155000X0*%
%ADD24RoundRect,0.250000X0.350000X-0.275000X0.350000X0.275000X-0.350000X0.275000X-0.350000X-0.275000X0*%
%ADD25RoundRect,0.160000X-0.197500X-0.160000X0.197500X-0.160000X0.197500X0.160000X-0.197500X0.160000X0*%
%ADD26RoundRect,0.033750X-0.471250X-0.101250X0.471250X-0.101250X0.471250X0.101250X-0.471250X0.101250X0*%
%ADD27RoundRect,0.033750X-0.101250X-0.471250X0.101250X-0.471250X0.101250X0.471250X-0.101250X0.471250X0*%
%ADD28R,0.600000X1.100000*%
%ADD29R,0.254800X0.807999*%
%ADD30R,0.807999X0.254800*%
%ADD31RoundRect,0.160000X-0.160000X0.197500X-0.160000X-0.197500X0.160000X-0.197500X0.160000X0.197500X0*%
%ADD32C,0.250000*%
%ADD33RoundRect,0.237500X-0.287500X-0.237500X0.287500X-0.237500X0.287500X0.237500X-0.287500X0.237500X0*%
%ADD34RoundRect,0.160000X0.222500X0.160000X-0.222500X0.160000X-0.222500X-0.160000X0.222500X-0.160000X0*%
%ADD35RoundRect,0.160000X0.160000X-0.222500X0.160000X0.222500X-0.160000X0.222500X-0.160000X-0.222500X0*%
%ADD36C,0.203200*%
%ADD37R,4.191000X1.270000*%
%ADD38R,4.800600X1.346200*%
%ADD39R,0.800000X0.900000*%
%ADD40RoundRect,0.160000X-0.222500X-0.160000X0.222500X-0.160000X0.222500X0.160000X-0.222500X0.160000X0*%
G04 APERTURE END LIST*
D10*
%TO.C,J1*%
X54070000Y-123913000D02*
X53330000Y-123913000D01*
X53330000Y-121123000D01*
X54070000Y-121123000D01*
X54070000Y-123913000D01*
G36*
X54070000Y-123913000D02*
G01*
X53330000Y-123913000D01*
X53330000Y-121123000D01*
X54070000Y-121123000D01*
X54070000Y-123913000D01*
G37*
X54070000Y-127977000D02*
X53330000Y-127977000D01*
X53330000Y-125187000D01*
X54070000Y-125187000D01*
X54070000Y-127977000D01*
G36*
X54070000Y-127977000D02*
G01*
X53330000Y-127977000D01*
X53330000Y-125187000D01*
X54070000Y-125187000D01*
X54070000Y-127977000D01*
G37*
X55340000Y-123913000D02*
X54600000Y-123913000D01*
X54600000Y-121123000D01*
X55340000Y-121123000D01*
X55340000Y-123913000D01*
G36*
X55340000Y-123913000D02*
G01*
X54600000Y-123913000D01*
X54600000Y-121123000D01*
X55340000Y-121123000D01*
X55340000Y-123913000D01*
G37*
X55340000Y-127977000D02*
X54600000Y-127977000D01*
X54600000Y-125187000D01*
X55340000Y-125187000D01*
X55340000Y-127977000D01*
G36*
X55340000Y-127977000D02*
G01*
X54600000Y-127977000D01*
X54600000Y-125187000D01*
X55340000Y-125187000D01*
X55340000Y-127977000D01*
G37*
X56610000Y-123913000D02*
X55870000Y-123913000D01*
X55870000Y-121123000D01*
X56610000Y-121123000D01*
X56610000Y-123913000D01*
G36*
X56610000Y-123913000D02*
G01*
X55870000Y-123913000D01*
X55870000Y-121123000D01*
X56610000Y-121123000D01*
X56610000Y-123913000D01*
G37*
X56610000Y-127977000D02*
X55870000Y-127977000D01*
X55870000Y-125187000D01*
X56610000Y-125187000D01*
X56610000Y-127977000D01*
G36*
X56610000Y-127977000D02*
G01*
X55870000Y-127977000D01*
X55870000Y-125187000D01*
X56610000Y-125187000D01*
X56610000Y-127977000D01*
G37*
X57880000Y-123913000D02*
X57140000Y-123913000D01*
X57140000Y-121123000D01*
X57880000Y-121123000D01*
X57880000Y-123913000D01*
G36*
X57880000Y-123913000D02*
G01*
X57140000Y-123913000D01*
X57140000Y-121123000D01*
X57880000Y-121123000D01*
X57880000Y-123913000D01*
G37*
X57880000Y-127977000D02*
X57140000Y-127977000D01*
X57140000Y-125187000D01*
X57880000Y-125187000D01*
X57880000Y-127977000D01*
G36*
X57880000Y-127977000D02*
G01*
X57140000Y-127977000D01*
X57140000Y-125187000D01*
X57880000Y-125187000D01*
X57880000Y-127977000D01*
G37*
X59150000Y-123913000D02*
X58410000Y-123913000D01*
X58410000Y-121123000D01*
X59150000Y-121123000D01*
X59150000Y-123913000D01*
G36*
X59150000Y-123913000D02*
G01*
X58410000Y-123913000D01*
X58410000Y-121123000D01*
X59150000Y-121123000D01*
X59150000Y-123913000D01*
G37*
X59150000Y-127977000D02*
X58410000Y-127977000D01*
X58410000Y-125187000D01*
X59150000Y-125187000D01*
X59150000Y-127977000D01*
G36*
X59150000Y-127977000D02*
G01*
X58410000Y-127977000D01*
X58410000Y-125187000D01*
X59150000Y-125187000D01*
X59150000Y-127977000D01*
G37*
%TO.C,D2*%
X88855000Y-127592500D02*
X88535000Y-127592500D01*
X88535000Y-127367500D01*
X88855000Y-127367500D01*
X88855000Y-127592500D01*
G36*
X88855000Y-127592500D02*
G01*
X88535000Y-127592500D01*
X88535000Y-127367500D01*
X88855000Y-127367500D01*
X88855000Y-127592500D01*
G37*
X89505000Y-127592500D02*
X89185000Y-127592500D01*
X89185000Y-127367500D01*
X89505000Y-127367500D01*
X89505000Y-127592500D01*
G36*
X89505000Y-127592500D02*
G01*
X89185000Y-127592500D01*
X89185000Y-127367500D01*
X89505000Y-127367500D01*
X89505000Y-127592500D01*
G37*
%TO.C,U5*%
X99360000Y-113770000D02*
X97360000Y-113770000D01*
X97360000Y-111770000D01*
X99360000Y-111770000D01*
X99360000Y-113770000D01*
G36*
X99360000Y-113770000D02*
G01*
X97360000Y-113770000D01*
X97360000Y-111770000D01*
X99360000Y-111770000D01*
X99360000Y-113770000D01*
G37*
D11*
%TO.C,U2*%
X71387028Y-109969600D02*
X70164628Y-109969600D01*
X70164628Y-108747200D01*
X71387028Y-108747200D01*
X71387028Y-109969600D01*
G36*
X71387028Y-109969600D02*
G01*
X70164628Y-109969600D01*
X70164628Y-108747200D01*
X71387028Y-108747200D01*
X71387028Y-109969600D01*
G37*
X71387028Y-111392000D02*
X70164628Y-111392000D01*
X70164628Y-110169600D01*
X71387028Y-110169600D01*
X71387028Y-111392000D01*
G36*
X71387028Y-111392000D02*
G01*
X70164628Y-111392000D01*
X70164628Y-110169600D01*
X71387028Y-110169600D01*
X71387028Y-111392000D01*
G37*
X71387028Y-112814400D02*
X70164628Y-112814400D01*
X70164628Y-111592000D01*
X71387028Y-111592000D01*
X71387028Y-112814400D01*
G36*
X71387028Y-112814400D02*
G01*
X70164628Y-112814400D01*
X70164628Y-111592000D01*
X71387028Y-111592000D01*
X71387028Y-112814400D01*
G37*
X71387028Y-114236800D02*
X70164628Y-114236800D01*
X70164628Y-113014400D01*
X71387028Y-113014400D01*
X71387028Y-114236800D01*
G36*
X71387028Y-114236800D02*
G01*
X70164628Y-114236800D01*
X70164628Y-113014400D01*
X71387028Y-113014400D01*
X71387028Y-114236800D01*
G37*
X72809428Y-109969600D02*
X71587028Y-109969600D01*
X71587028Y-108747200D01*
X72809428Y-108747200D01*
X72809428Y-109969600D01*
G36*
X72809428Y-109969600D02*
G01*
X71587028Y-109969600D01*
X71587028Y-108747200D01*
X72809428Y-108747200D01*
X72809428Y-109969600D01*
G37*
X72809428Y-111392000D02*
X71587028Y-111392000D01*
X71587028Y-110169600D01*
X72809428Y-110169600D01*
X72809428Y-111392000D01*
G36*
X72809428Y-111392000D02*
G01*
X71587028Y-111392000D01*
X71587028Y-110169600D01*
X72809428Y-110169600D01*
X72809428Y-111392000D01*
G37*
X72809428Y-112814400D02*
X71587028Y-112814400D01*
X71587028Y-111592000D01*
X72809428Y-111592000D01*
X72809428Y-112814400D01*
G36*
X72809428Y-112814400D02*
G01*
X71587028Y-112814400D01*
X71587028Y-111592000D01*
X72809428Y-111592000D01*
X72809428Y-112814400D01*
G37*
X72809428Y-114236800D02*
X71587028Y-114236800D01*
X71587028Y-113014400D01*
X72809428Y-113014400D01*
X72809428Y-114236800D01*
G36*
X72809428Y-114236800D02*
G01*
X71587028Y-114236800D01*
X71587028Y-113014400D01*
X72809428Y-113014400D01*
X72809428Y-114236800D01*
G37*
X74231828Y-109969600D02*
X73009428Y-109969600D01*
X73009428Y-108747200D01*
X74231828Y-108747200D01*
X74231828Y-109969600D01*
G36*
X74231828Y-109969600D02*
G01*
X73009428Y-109969600D01*
X73009428Y-108747200D01*
X74231828Y-108747200D01*
X74231828Y-109969600D01*
G37*
X74231828Y-111392000D02*
X73009428Y-111392000D01*
X73009428Y-110169600D01*
X74231828Y-110169600D01*
X74231828Y-111392000D01*
G36*
X74231828Y-111392000D02*
G01*
X73009428Y-111392000D01*
X73009428Y-110169600D01*
X74231828Y-110169600D01*
X74231828Y-111392000D01*
G37*
X74231828Y-112814400D02*
X73009428Y-112814400D01*
X73009428Y-111592000D01*
X74231828Y-111592000D01*
X74231828Y-112814400D01*
G36*
X74231828Y-112814400D02*
G01*
X73009428Y-112814400D01*
X73009428Y-111592000D01*
X74231828Y-111592000D01*
X74231828Y-112814400D01*
G37*
X74231828Y-114236800D02*
X73009428Y-114236800D01*
X73009428Y-113014400D01*
X74231828Y-113014400D01*
X74231828Y-114236800D01*
G36*
X74231828Y-114236800D02*
G01*
X73009428Y-114236800D01*
X73009428Y-113014400D01*
X74231828Y-113014400D01*
X74231828Y-114236800D01*
G37*
X75654228Y-109969600D02*
X74431828Y-109969600D01*
X74431828Y-108747200D01*
X75654228Y-108747200D01*
X75654228Y-109969600D01*
G36*
X75654228Y-109969600D02*
G01*
X74431828Y-109969600D01*
X74431828Y-108747200D01*
X75654228Y-108747200D01*
X75654228Y-109969600D01*
G37*
X75654228Y-111392000D02*
X74431828Y-111392000D01*
X74431828Y-110169600D01*
X75654228Y-110169600D01*
X75654228Y-111392000D01*
G36*
X75654228Y-111392000D02*
G01*
X74431828Y-111392000D01*
X74431828Y-110169600D01*
X75654228Y-110169600D01*
X75654228Y-111392000D01*
G37*
X75654228Y-112814400D02*
X74431828Y-112814400D01*
X74431828Y-111592000D01*
X75654228Y-111592000D01*
X75654228Y-112814400D01*
G36*
X75654228Y-112814400D02*
G01*
X74431828Y-112814400D01*
X74431828Y-111592000D01*
X75654228Y-111592000D01*
X75654228Y-112814400D01*
G37*
X75654228Y-114236800D02*
X74431828Y-114236800D01*
X74431828Y-113014400D01*
X75654228Y-113014400D01*
X75654228Y-114236800D01*
G36*
X75654228Y-114236800D02*
G01*
X74431828Y-114236800D01*
X74431828Y-113014400D01*
X75654228Y-113014400D01*
X75654228Y-114236800D01*
G37*
D10*
%TO.C,D1*%
X68700000Y-129145000D02*
X68380000Y-129145000D01*
X68380000Y-128920000D01*
X68700000Y-128920000D01*
X68700000Y-129145000D01*
G36*
X68700000Y-129145000D02*
G01*
X68380000Y-129145000D01*
X68380000Y-128920000D01*
X68700000Y-128920000D01*
X68700000Y-129145000D01*
G37*
X69350000Y-129145000D02*
X69030000Y-129145000D01*
X69030000Y-128920000D01*
X69350000Y-128920000D01*
X69350000Y-129145000D01*
G36*
X69350000Y-129145000D02*
G01*
X69030000Y-129145000D01*
X69030000Y-128920000D01*
X69350000Y-128920000D01*
X69350000Y-129145000D01*
G37*
%TD*%
D12*
%TO.C,R26*%
X105167500Y-103340000D03*
X106992500Y-103340000D03*
%TD*%
%TO.C,R25*%
X101827500Y-103340000D03*
X103652500Y-103340000D03*
%TD*%
D13*
%TO.C,R24*%
X101390000Y-123537500D03*
X101390000Y-125362500D03*
%TD*%
%TO.C,R23*%
X101390000Y-119877500D03*
X101390000Y-121702500D03*
%TD*%
D14*
%TO.C,R5*%
X107837500Y-121600000D03*
X106642500Y-121600000D03*
%TD*%
D15*
%TO.C,R10*%
X91600000Y-109872500D03*
X91600000Y-108047500D03*
%TD*%
D16*
%TO.C,L1*%
X82950000Y-113992500D03*
X82950000Y-112242500D03*
%TD*%
D17*
%TO.C,R22*%
X78232500Y-119260000D03*
X76407500Y-119260000D03*
%TD*%
D18*
%TO.C,J1*%
X51160000Y-126585000D03*
X51160000Y-122515000D03*
X52430000Y-126585000D03*
X52430000Y-122515000D03*
X53700000Y-126585000D03*
X53700000Y-122515000D03*
X54970000Y-126585000D03*
X54970000Y-122515000D03*
X56240000Y-126585000D03*
X56240000Y-122515000D03*
X57510000Y-126585000D03*
X57510000Y-122515000D03*
X58780000Y-126585000D03*
X58780000Y-122515000D03*
%TD*%
D19*
%TO.C,C21*%
X94717500Y-110350000D03*
X93582500Y-110350000D03*
%TD*%
D15*
%TO.C,R13*%
X87340000Y-109862500D03*
X87340000Y-108037500D03*
%TD*%
D20*
%TO.C,C12*%
X105500000Y-129417500D03*
X105500000Y-128282500D03*
%TD*%
D21*
%TO.C,C9*%
X86900000Y-120857500D03*
X86900000Y-119722500D03*
%TD*%
%TO.C,C1*%
X80510000Y-115100000D03*
X80510000Y-116235000D03*
%TD*%
D22*
%TO.C,IC1*%
X103920000Y-123710000D03*
X104720000Y-123710000D03*
X105520000Y-123710000D03*
X106320000Y-123710000D03*
X106320000Y-126110000D03*
X105520000Y-126110000D03*
X104720000Y-126110000D03*
X103920000Y-126110000D03*
%TD*%
D15*
%TO.C,R12*%
X89500000Y-106532500D03*
X89500000Y-104707500D03*
%TD*%
D13*
%TO.C,R15*%
X89190000Y-112037500D03*
X89190000Y-113862500D03*
%TD*%
D21*
%TO.C,C18*%
X69189428Y-115834500D03*
X69189428Y-116969500D03*
%TD*%
D23*
%TO.C,C13*%
X61000428Y-109302000D03*
X62135428Y-109302000D03*
%TD*%
D21*
%TO.C,C34*%
X70149428Y-117564500D03*
X70149428Y-118699500D03*
%TD*%
D24*
%TO.C,L2*%
X82400000Y-108420000D03*
X82400000Y-106120000D03*
%TD*%
D21*
%TO.C,C8*%
X83180000Y-120867500D03*
X83180000Y-119732500D03*
%TD*%
D25*
%TO.C,R7*%
X67362500Y-100670000D03*
X68557500Y-100670000D03*
%TD*%
D23*
%TO.C,C36*%
X61000428Y-110802000D03*
X62135428Y-110802000D03*
%TD*%
D20*
%TO.C,C11*%
X78830000Y-109517500D03*
X78830000Y-108382500D03*
%TD*%
D14*
%TO.C,R19*%
X106925000Y-101260000D03*
X105730000Y-101260000D03*
%TD*%
D23*
%TO.C,C30*%
X59472500Y-112500000D03*
X60607500Y-112500000D03*
%TD*%
D21*
%TO.C,C28*%
X93680000Y-119552500D03*
X93680000Y-120687500D03*
%TD*%
D15*
%TO.C,R8*%
X91610000Y-106542500D03*
X91610000Y-104717500D03*
%TD*%
%TO.C,R21*%
X79760000Y-121092500D03*
X79760000Y-119267500D03*
%TD*%
D21*
%TO.C,C33*%
X72990000Y-116362500D03*
X72990000Y-117497500D03*
%TD*%
D23*
%TO.C,C35*%
X88702500Y-128340000D03*
X89837500Y-128340000D03*
%TD*%
D26*
%TO.C,U5*%
X96000000Y-111270000D03*
X96000000Y-111770000D03*
X96000000Y-112270000D03*
X96000000Y-112770000D03*
X96000000Y-113270000D03*
X96000000Y-113770000D03*
X96000000Y-114270000D03*
D27*
X96860000Y-115130000D03*
X97360000Y-115130000D03*
X97860000Y-115130000D03*
X98360000Y-115130000D03*
X98860000Y-115130000D03*
X99360000Y-115130000D03*
X99860000Y-115130000D03*
D26*
X100720000Y-114270000D03*
X100720000Y-113770000D03*
X100720000Y-113270000D03*
X100720000Y-112770000D03*
X100720000Y-112270000D03*
X100720000Y-111770000D03*
X100720000Y-111270000D03*
D27*
X99860000Y-110410000D03*
X99360000Y-110410000D03*
X98860000Y-110410000D03*
X98360000Y-110410000D03*
X97860000Y-110410000D03*
X97360000Y-110410000D03*
X96860000Y-110410000D03*
%TD*%
D28*
%TO.C,X1*%
X85730000Y-119730000D03*
X84330000Y-119730000D03*
%TD*%
D15*
%TO.C,R11*%
X89510000Y-109872500D03*
X89510000Y-108047500D03*
%TD*%
D19*
%TO.C,C23*%
X61137500Y-116150000D03*
X60002500Y-116150000D03*
%TD*%
D21*
%TO.C,C15*%
X67289428Y-115774500D03*
X67289428Y-116909500D03*
%TD*%
D29*
%TO.C,U2*%
X75659428Y-108040000D03*
X75159429Y-108040000D03*
X74659427Y-108040000D03*
X74159428Y-108040000D03*
X73659429Y-108040000D03*
X73159428Y-108040000D03*
X72659428Y-108040000D03*
X72159427Y-108040000D03*
X71659428Y-108040000D03*
X71159429Y-108040000D03*
X70659427Y-108040000D03*
X70159428Y-108040000D03*
D30*
X69457428Y-108742000D03*
X69457428Y-109241999D03*
X69457428Y-109742001D03*
X69457428Y-110242000D03*
X69457428Y-110741999D03*
X69457428Y-111242000D03*
X69457428Y-111742000D03*
X69457428Y-112242001D03*
X69457428Y-112742000D03*
X69457428Y-113241999D03*
X69457428Y-113742001D03*
X69457428Y-114242000D03*
D29*
X70159428Y-114944000D03*
X70659427Y-114944000D03*
X71159429Y-114944000D03*
X71659428Y-114944000D03*
X72159427Y-114944000D03*
X72659428Y-114944000D03*
X73159428Y-114944000D03*
X73659429Y-114944000D03*
X74159428Y-114944000D03*
X74659427Y-114944000D03*
X75159429Y-114944000D03*
X75659428Y-114944000D03*
D30*
X76361428Y-114242000D03*
X76361428Y-113742001D03*
X76361428Y-113241999D03*
X76361428Y-112742000D03*
X76361428Y-112242001D03*
X76361428Y-111742000D03*
X76361428Y-111242000D03*
X76361428Y-110741999D03*
X76361428Y-110242000D03*
X76361428Y-109742001D03*
X76361428Y-109241999D03*
X76361428Y-108742000D03*
%TD*%
D31*
%TO.C,R9*%
X88710000Y-125302500D03*
X88710000Y-126497500D03*
%TD*%
D20*
%TO.C,C3*%
X70160000Y-104877500D03*
X70160000Y-103742500D03*
%TD*%
D32*
%TO.C,U1*%
X62255428Y-112902000D03*
X62255428Y-112502000D03*
X62255428Y-112102000D03*
X61855428Y-112902000D03*
X61855428Y-112502000D03*
X61855428Y-112102000D03*
%TD*%
D33*
%TO.C,L4*%
X92705000Y-111770000D03*
X94455000Y-111770000D03*
%TD*%
D21*
%TO.C,C5*%
X79550000Y-115100000D03*
X79550000Y-116235000D03*
%TD*%
D33*
%TO.C,L5*%
X95610000Y-108910000D03*
X97360000Y-108910000D03*
%TD*%
D20*
%TO.C,C2*%
X71100572Y-104875500D03*
X71100572Y-103740500D03*
%TD*%
D34*
%TO.C,D4*%
X70852500Y-100670000D03*
X69707500Y-100670000D03*
%TD*%
D21*
%TO.C,C20*%
X92710000Y-113032500D03*
X92710000Y-114167500D03*
%TD*%
D20*
%TO.C,C24*%
X97360000Y-107657500D03*
X97360000Y-106522500D03*
%TD*%
%TO.C,C4*%
X79870000Y-109537500D03*
X79870000Y-108402500D03*
%TD*%
D25*
%TO.C,R2*%
X62132500Y-108050000D03*
X63327500Y-108050000D03*
%TD*%
D35*
%TO.C,L3*%
X68254428Y-115781000D03*
X68254428Y-114636000D03*
%TD*%
D13*
%TO.C,R18*%
X90980000Y-115367500D03*
X90980000Y-117192500D03*
%TD*%
D20*
%TO.C,C27*%
X58490000Y-113637500D03*
X58490000Y-112502500D03*
%TD*%
D21*
%TO.C,C14*%
X82380000Y-109742500D03*
X82380000Y-110877500D03*
%TD*%
%TO.C,C32*%
X72040000Y-116352500D03*
X72040000Y-117487500D03*
%TD*%
D36*
%TO.C,U4*%
X65889428Y-113436000D03*
X65889428Y-112726000D03*
X65889428Y-112096000D03*
X65114428Y-113776000D03*
X65199428Y-112936000D03*
X64509428Y-113776000D03*
X64509428Y-112936000D03*
X64509428Y-112096000D03*
%TD*%
D19*
%TO.C,C22*%
X98067500Y-117250000D03*
X96932500Y-117250000D03*
%TD*%
D25*
%TO.C,R1*%
X64172500Y-101010000D03*
X65367500Y-101010000D03*
%TD*%
D37*
%TO.C,J2*%
X52457428Y-112440000D03*
D38*
X52657473Y-115265001D03*
X52657473Y-109615002D03*
%TD*%
D13*
%TO.C,R16*%
X89170000Y-115347500D03*
X89170000Y-117172500D03*
%TD*%
D20*
%TO.C,C25*%
X55310000Y-113637500D03*
X55310000Y-112502500D03*
%TD*%
D13*
%TO.C,R17*%
X90980000Y-112067500D03*
X90980000Y-113892500D03*
%TD*%
D14*
%TO.C,R6*%
X105377500Y-121610000D03*
X104182500Y-121610000D03*
%TD*%
D21*
%TO.C,C7*%
X79610000Y-112240000D03*
X79610000Y-113375000D03*
%TD*%
%TO.C,C6*%
X80530000Y-112240000D03*
X80530000Y-113375000D03*
%TD*%
D20*
%TO.C,C10*%
X80850000Y-109520000D03*
X80850000Y-108385000D03*
%TD*%
D14*
%TO.C,R20*%
X104485000Y-101260000D03*
X103290000Y-101260000D03*
%TD*%
D20*
%TO.C,C29*%
X69220000Y-128030000D03*
X69220000Y-126895000D03*
%TD*%
D15*
%TO.C,R14*%
X87330000Y-106492500D03*
X87330000Y-104667500D03*
%TD*%
D31*
%TO.C,R3*%
X62250000Y-117162500D03*
X62250000Y-118357500D03*
%TD*%
D19*
%TO.C,C31*%
X68246928Y-113436000D03*
X67111928Y-113436000D03*
%TD*%
D23*
%TO.C,C26*%
X62241928Y-116163500D03*
X63376928Y-116163500D03*
%TD*%
D39*
%TO.C,X2*%
X70070000Y-120080000D03*
X70070000Y-121480000D03*
X71170000Y-121480000D03*
X71170000Y-120080000D03*
%TD*%
D20*
%TO.C,C16*%
X103020000Y-129427500D03*
X103020000Y-128292500D03*
%TD*%
D25*
%TO.C,R4*%
X57512500Y-128700000D03*
X58707500Y-128700000D03*
%TD*%
D40*
%TO.C,L7*%
X56337500Y-112500000D03*
X57482500Y-112500000D03*
%TD*%
M02*
