%TF.GenerationSoftware,KiCad,Pcbnew,8.0.5*%
%TF.CreationDate,2025-04-29T16:12:59+02:00*%
%TF.ProjectId,ForestFireDetection,466f7265-7374-4466-9972-654465746563,rev?*%
%TF.SameCoordinates,Original*%
%TF.FileFunction,Copper,L1,Top*%
%TF.FilePolarity,Positive*%
%FSLAX46Y46*%
G04 Gerber Fmt 4.6, Leading zero omitted, Abs format (unit mm)*
G04 Created by KiCad (PCBNEW 8.0.5) date 2025-04-29 16:12:59*
%MOMM*%
%LPD*%
G01*
G04 APERTURE LIST*
G04 Aperture macros list*
%AMRoundRect*
0 Rectangle with rounded corners*
0 $1 Rounding radius*
0 $2 $3 $4 $5 $6 $7 $8 $9 X,Y pos of 4 corners*
0 Add a 4 corners polygon primitive as box body*
4,1,4,$2,$3,$4,$5,$6,$7,$8,$9,$2,$3,0*
0 Add four circle primitives for the rounded corners*
1,1,$1+$1,$2,$3*
1,1,$1+$1,$4,$5*
1,1,$1+$1,$6,$7*
1,1,$1+$1,$8,$9*
0 Add four rect primitives between the rounded corners*
20,1,$1+$1,$2,$3,$4,$5,0*
20,1,$1+$1,$4,$5,$6,$7,0*
20,1,$1+$1,$6,$7,$8,$9,0*
20,1,$1+$1,$8,$9,$2,$3,0*%
G04 Aperture macros list end*
%TA.AperFunction,SMDPad,CuDef*%
%ADD10RoundRect,0.237500X-0.250000X-0.237500X0.250000X-0.237500X0.250000X0.237500X-0.250000X0.237500X0*%
%TD*%
%TA.AperFunction,SMDPad,CuDef*%
%ADD11RoundRect,0.237500X-0.237500X0.250000X-0.237500X-0.250000X0.237500X-0.250000X0.237500X0.250000X0*%
%TD*%
%TA.AperFunction,SMDPad,CuDef*%
%ADD12C,1.500000*%
%TD*%
%TA.AperFunction,SMDPad,CuDef*%
%ADD13RoundRect,0.160000X0.197500X0.160000X-0.197500X0.160000X-0.197500X-0.160000X0.197500X-0.160000X0*%
%TD*%
%TA.AperFunction,SMDPad,CuDef*%
%ADD14RoundRect,0.237500X0.237500X-0.250000X0.237500X0.250000X-0.237500X0.250000X-0.237500X-0.250000X0*%
%TD*%
%TA.AperFunction,SMDPad,CuDef*%
%ADD15RoundRect,0.237500X0.237500X-0.287500X0.237500X0.287500X-0.237500X0.287500X-0.237500X-0.287500X0*%
%TD*%
%TA.AperFunction,SMDPad,CuDef*%
%ADD16RoundRect,0.237500X0.250000X0.237500X-0.250000X0.237500X-0.250000X-0.237500X0.250000X-0.237500X0*%
%TD*%
%TA.AperFunction,SMDPad,CuDef*%
%ADD17R,0.740000X2.790000*%
%TD*%
%TA.AperFunction,SMDPad,CuDef*%
%ADD18RoundRect,0.155000X0.212500X0.155000X-0.212500X0.155000X-0.212500X-0.155000X0.212500X-0.155000X0*%
%TD*%
%TA.AperFunction,SMDPad,CuDef*%
%ADD19RoundRect,0.155000X0.155000X-0.212500X0.155000X0.212500X-0.155000X0.212500X-0.155000X-0.212500X0*%
%TD*%
%TA.AperFunction,SMDPad,CuDef*%
%ADD20RoundRect,0.155000X-0.155000X0.212500X-0.155000X-0.212500X0.155000X-0.212500X0.155000X0.212500X0*%
%TD*%
%TA.AperFunction,SMDPad,CuDef*%
%ADD21R,0.400000X0.400000*%
%TD*%
%TA.AperFunction,ComponentPad*%
%ADD22C,2.000000*%
%TD*%
%TA.AperFunction,SMDPad,CuDef*%
%ADD23RoundRect,0.155000X-0.212500X-0.155000X0.212500X-0.155000X0.212500X0.155000X-0.212500X0.155000X0*%
%TD*%
%TA.AperFunction,ComponentPad*%
%ADD24C,1.507998*%
%TD*%
%TA.AperFunction,SMDPad,CuDef*%
%ADD25RoundRect,0.250000X0.350000X-0.275000X0.350000X0.275000X-0.350000X0.275000X-0.350000X-0.275000X0*%
%TD*%
%TA.AperFunction,SMDPad,CuDef*%
%ADD26RoundRect,0.160000X-0.197500X-0.160000X0.197500X-0.160000X0.197500X0.160000X-0.197500X0.160000X0*%
%TD*%
%TA.AperFunction,SMDPad,CuDef*%
%ADD27R,0.425000X0.300000*%
%TD*%
%TA.AperFunction,SMDPad,CuDef*%
%ADD28RoundRect,0.033750X-0.471250X-0.101250X0.471250X-0.101250X0.471250X0.101250X-0.471250X0.101250X0*%
%TD*%
%TA.AperFunction,SMDPad,CuDef*%
%ADD29RoundRect,0.033750X-0.101250X-0.471250X0.101250X-0.471250X0.101250X0.471250X-0.101250X0.471250X0*%
%TD*%
%TA.AperFunction,SMDPad,CuDef*%
%ADD30R,3.150000X3.150000*%
%TD*%
%TA.AperFunction,SMDPad,CuDef*%
%ADD31R,0.600000X1.100000*%
%TD*%
%TA.AperFunction,ComponentPad*%
%ADD32R,1.700000X1.700000*%
%TD*%
%TA.AperFunction,ComponentPad*%
%ADD33O,1.700000X1.700000*%
%TD*%
%TA.AperFunction,SMDPad,CuDef*%
%ADD34R,0.254800X0.807999*%
%TD*%
%TA.AperFunction,SMDPad,CuDef*%
%ADD35R,0.807999X0.254800*%
%TD*%
%TA.AperFunction,SMDPad,CuDef*%
%ADD36R,5.689600X5.689600*%
%TD*%
%TA.AperFunction,SMDPad,CuDef*%
%ADD37RoundRect,0.160000X-0.160000X0.197500X-0.160000X-0.197500X0.160000X-0.197500X0.160000X0.197500X0*%
%TD*%
%TA.AperFunction,SMDPad,CuDef*%
%ADD38RoundRect,0.062500X0.062500X0.062500X-0.062500X0.062500X-0.062500X-0.062500X0.062500X-0.062500X0*%
%TD*%
%TA.AperFunction,SMDPad,CuDef*%
%ADD39RoundRect,0.237500X-0.287500X-0.237500X0.287500X-0.237500X0.287500X0.237500X-0.287500X0.237500X0*%
%TD*%
%TA.AperFunction,SMDPad,CuDef*%
%ADD40RoundRect,0.160000X0.222500X0.160000X-0.222500X0.160000X-0.222500X-0.160000X0.222500X-0.160000X0*%
%TD*%
%TA.AperFunction,SMDPad,CuDef*%
%ADD41RoundRect,0.160000X0.160000X-0.222500X0.160000X0.222500X-0.160000X0.222500X-0.160000X-0.222500X0*%
%TD*%
%TA.AperFunction,SMDPad,CuDef*%
%ADD42C,0.203200*%
%TD*%
%TA.AperFunction,SMDPad,CuDef*%
%ADD43R,4.191000X1.270000*%
%TD*%
%TA.AperFunction,SMDPad,CuDef*%
%ADD44R,4.800600X1.346200*%
%TD*%
%TA.AperFunction,SMDPad,CuDef*%
%ADD45R,0.800000X0.900000*%
%TD*%
%TA.AperFunction,SMDPad,CuDef*%
%ADD46RoundRect,0.160000X-0.222500X-0.160000X0.222500X-0.160000X0.222500X0.160000X-0.222500X0.160000X0*%
%TD*%
%TA.AperFunction,ViaPad*%
%ADD47C,0.800000*%
%TD*%
%TA.AperFunction,ViaPad*%
%ADD48C,1.000000*%
%TD*%
%TA.AperFunction,Conductor*%
%ADD49C,0.600000*%
%TD*%
%TA.AperFunction,Conductor*%
%ADD50C,0.150000*%
%TD*%
%TA.AperFunction,Conductor*%
%ADD51C,1.000000*%
%TD*%
%TA.AperFunction,Conductor*%
%ADD52C,0.300000*%
%TD*%
%TA.AperFunction,Conductor*%
%ADD53C,0.500000*%
%TD*%
%TA.AperFunction,Conductor*%
%ADD54C,0.200000*%
%TD*%
%TA.AperFunction,Conductor*%
%ADD55C,0.250000*%
%TD*%
%TA.AperFunction,Conductor*%
%ADD56C,0.164000*%
%TD*%
G04 APERTURE END LIST*
D10*
%TO.P,R26,1*%
%TO.N,EN_co*%
X105167500Y-103340000D03*
%TO.P,R26,2*%
%TO.N,GND*%
X106992500Y-103340000D03*
%TD*%
%TO.P,R25,1*%
%TO.N,EN_LV*%
X101827500Y-103340000D03*
%TO.P,R25,2*%
%TO.N,EN_co*%
X103652500Y-103340000D03*
%TD*%
D11*
%TO.P,R24,1*%
%TO.N,VDD_sensor*%
X101390000Y-123537500D03*
%TO.P,R24,2*%
%TO.N,VDD*%
X101390000Y-125362500D03*
%TD*%
%TO.P,R23,1*%
%TO.N,VoutAEM_LV*%
X101390000Y-119877500D03*
%TO.P,R23,2*%
%TO.N,VDD_sensor*%
X101390000Y-121702500D03*
%TD*%
D12*
%TO.P,TP6,1,1*%
%TO.N,/BATT*%
X103750000Y-112590000D03*
%TD*%
%TO.P,TP5,1,1*%
%TO.N,/BAL*%
X103750000Y-115270000D03*
%TD*%
%TO.P,TP2,1,1*%
%TO.N,STATUS_1*%
X77880000Y-102220000D03*
%TD*%
%TO.P,TP4,1,1*%
%TO.N,VDD*%
X90890000Y-122480000D03*
%TD*%
D13*
%TO.P,R5,1*%
%TO.N,VDD_sensor*%
X107837500Y-121600000D03*
%TO.P,R5,2*%
%TO.N,SCL*%
X106642500Y-121600000D03*
%TD*%
D14*
%TO.P,R10,1*%
%TO.N,/BUCK*%
X91600000Y-109872500D03*
%TO.P,R10,2*%
%TO.N,CFG_2*%
X91600000Y-108047500D03*
%TD*%
D15*
%TO.P,L1,1,1*%
%TO.N,VDD*%
X82950000Y-113992500D03*
%TO.P,L1,2,2*%
%TO.N,VDDA*%
X82950000Y-112242500D03*
%TD*%
D16*
%TO.P,R22,1*%
%TO.N,BATT_MCU*%
X78232500Y-119260000D03*
%TO.P,R22,2*%
%TO.N,VDD*%
X76407500Y-119260000D03*
%TD*%
D17*
%TO.P,J1,1,NC*%
%TO.N,unconnected-(J1-NC-Pad1)*%
X51160000Y-126585000D03*
%TO.P,J1,2,NC*%
%TO.N,unconnected-(J1-NC-Pad2)*%
X51160000Y-122515000D03*
%TO.P,J1,3,VCC*%
%TO.N,VDD*%
X52430000Y-126585000D03*
%TO.P,J1,4,JTMS/SWDIO*%
%TO.N,SWDIO*%
X52430000Y-122515000D03*
%TO.P,J1,5,GND*%
%TO.N,GND*%
X53700000Y-126585000D03*
%TO.P,J1,6,JCLK/SWCLK*%
%TO.N,SWCLK*%
X53700000Y-122515000D03*
%TO.P,J1,7,GND*%
%TO.N,GND*%
X54970000Y-126585000D03*
%TO.P,J1,8,JTDO/SWO*%
%TO.N,SWO*%
X54970000Y-122515000D03*
%TO.P,J1,9,JRCLK/NC*%
%TO.N,unconnected-(J1-JRCLK{slash}NC-Pad9)*%
X56240000Y-126585000D03*
%TO.P,J1,10,JTDI/NC*%
%TO.N,unconnected-(J1-JTDI{slash}NC-Pad10)*%
X56240000Y-122515000D03*
%TO.P,J1,11,GNDDetect*%
%TO.N,/GNDDetect*%
X57510000Y-126585000D03*
%TO.P,J1,12,~{RST}*%
%TO.N,NRST*%
X57510000Y-122515000D03*
%TO.P,J1,13,VCP_RX*%
%TO.N,LPUART_RX*%
X58780000Y-126585000D03*
%TO.P,J1,14,VCP_TX*%
%TO.N,LPUART_TX*%
X58780000Y-122515000D03*
%TD*%
D18*
%TO.P,C21,1*%
%TO.N,/BOOST*%
X94717500Y-110350000D03*
%TO.P,C21,2*%
%TO.N,GND*%
X93582500Y-110350000D03*
%TD*%
D14*
%TO.P,R13,1*%
%TO.N,/BUCK*%
X87340000Y-109862500D03*
%TO.P,R13,2*%
%TO.N,CFG_0*%
X87340000Y-108037500D03*
%TD*%
D19*
%TO.P,C12,1*%
%TO.N,GND*%
X105500000Y-129417500D03*
%TO.P,C12,2*%
%TO.N,VDD_sensor*%
X105500000Y-128282500D03*
%TD*%
D20*
%TO.P,C9,2*%
%TO.N,GND*%
X86900000Y-120857500D03*
%TO.P,C9,1*%
%TO.N,PC14-OSC32_OUT*%
X86900000Y-119722500D03*
%TD*%
%TO.P,C1,1*%
%TO.N,VDD*%
X80510000Y-115100000D03*
%TO.P,C1,2*%
%TO.N,GND*%
X80510000Y-116235000D03*
%TD*%
D21*
%TO.P,IC1,1,GND_1*%
%TO.N,GND*%
X103920000Y-123710000D03*
%TO.P,IC1,2,CSB*%
%TO.N,VDD_sensor*%
X104720000Y-123710000D03*
%TO.P,IC1,3,SDI*%
%TO.N,SDA*%
X105520000Y-123710000D03*
%TO.P,IC1,4,SCK*%
%TO.N,SCL*%
X106320000Y-123710000D03*
%TO.P,IC1,5,SDO*%
%TO.N,GND*%
X106320000Y-126110000D03*
%TO.P,IC1,6,VDDIO*%
%TO.N,VDD_sensor*%
X105520000Y-126110000D03*
%TO.P,IC1,7,GND_2*%
%TO.N,GND*%
X104720000Y-126110000D03*
%TO.P,IC1,8,VDD*%
%TO.N,VDD_sensor*%
X103920000Y-126110000D03*
%TD*%
D14*
%TO.P,R12,1*%
%TO.N,CFG_1*%
X89500000Y-106532500D03*
%TO.P,R12,2*%
%TO.N,GND*%
X89500000Y-104707500D03*
%TD*%
D11*
%TO.P,R15,1*%
%TO.N,/BUCK*%
X89190000Y-112037500D03*
%TO.P,R15,2*%
%TO.N,SELMPP0*%
X89190000Y-113862500D03*
%TD*%
D22*
%TO.P,C19,1*%
%TO.N,/BAL*%
X107320000Y-113700000D03*
%TO.P,C19,2*%
%TO.N,GND*%
X107320000Y-118700000D03*
%TD*%
D20*
%TO.P,C18,1*%
%TO.N,VR_PA*%
X69189428Y-115834500D03*
%TO.P,C18,2*%
%TO.N,GND*%
X69189428Y-116969500D03*
%TD*%
D23*
%TO.P,C13,1*%
%TO.N,GND*%
X61000428Y-109302000D03*
%TO.P,C13,2*%
%TO.N,VDD_RF*%
X62135428Y-109302000D03*
%TD*%
D20*
%TO.P,C34,1*%
%TO.N,VDDRF1V55*%
X70149428Y-117564500D03*
%TO.P,C34,2*%
%TO.N,GND*%
X70149428Y-118699500D03*
%TD*%
D24*
%TO.P,SW2,1*%
%TO.N,/Button1*%
X80219999Y-124134900D03*
%TO.P,SW2,2*%
X86720001Y-124134900D03*
%TO.P,SW2,3*%
%TO.N,GND*%
X80219999Y-128634901D03*
%TO.P,SW2,4*%
X86720001Y-128634901D03*
%TD*%
D25*
%TO.P,L2,1,1*%
%TO.N,VDDRF1V55*%
X82400000Y-108420000D03*
%TO.P,L2,2,2*%
%TO.N,VLCSMPS*%
X82400000Y-106120000D03*
%TD*%
D20*
%TO.P,C8,2*%
%TO.N,GND*%
X83180000Y-120867500D03*
%TO.P,C8,1*%
%TO.N,PC15-OSC32_IN*%
X83180000Y-119732500D03*
%TD*%
D26*
%TO.P,R7,1*%
%TO.N,LED*%
X67362500Y-100670000D03*
%TO.P,R7,2*%
%TO.N,/LED1*%
X68557500Y-100670000D03*
%TD*%
D12*
%TO.P,TP3,1,1*%
%TO.N,STATUS_2*%
X74740000Y-102340000D03*
%TD*%
D23*
%TO.P,C36,1*%
%TO.N,GND*%
X61000428Y-110802000D03*
%TO.P,C36,2*%
%TO.N,VDD_RF*%
X62135428Y-110802000D03*
%TD*%
D19*
%TO.P,C11,1*%
%TO.N,VDD*%
X78830000Y-109517500D03*
%TO.P,C11,2*%
%TO.N,GND*%
X78830000Y-108382500D03*
%TD*%
D13*
%TO.P,R19,1*%
%TO.N,/BATT*%
X106925000Y-101260000D03*
%TO.P,R19,2*%
%TO.N,BATT2*%
X105730000Y-101260000D03*
%TD*%
D23*
%TO.P,C30,1*%
%TO.N,/SMA2*%
X59472500Y-112500000D03*
%TO.P,C30,2*%
%TO.N,/SMA3*%
X60607500Y-112500000D03*
%TD*%
D27*
%TO.P,D2,1*%
%TO.N,/Button1*%
X88707500Y-127480000D03*
%TO.P,D2,2*%
%TO.N,GND*%
X89332500Y-127480000D03*
%TD*%
D20*
%TO.P,C28,1*%
%TO.N,GND*%
X93680000Y-119552500D03*
%TO.P,C28,2*%
%TO.N,VoutAEM*%
X93680000Y-120687500D03*
%TD*%
D14*
%TO.P,R8,1*%
%TO.N,CFG_2*%
X91610000Y-106542500D03*
%TO.P,R8,2*%
%TO.N,GND*%
X91610000Y-104717500D03*
%TD*%
%TO.P,R21,1*%
%TO.N,BATT2*%
X79760000Y-121092500D03*
%TO.P,R21,2*%
%TO.N,BATT_MCU*%
X79760000Y-119267500D03*
%TD*%
D20*
%TO.P,C33,1*%
%TO.N,VDDRF1V55*%
X72990000Y-116362500D03*
%TO.P,C33,2*%
%TO.N,GND*%
X72990000Y-117497500D03*
%TD*%
D23*
%TO.P,C35,1*%
%TO.N,/Button1*%
X88702500Y-128340000D03*
%TO.P,C35,2*%
%TO.N,GND*%
X89837500Y-128340000D03*
%TD*%
D28*
%TO.P,U5,1,BOOST*%
%TO.N,/BOOST*%
X96000000Y-111270000D03*
%TO.P,U5,2,SWBUCK*%
%TO.N,Net-(U5-SWBUCK)*%
X96000000Y-111770000D03*
%TO.P,U5,3,BUCK*%
%TO.N,/BUCK*%
X96000000Y-112270000D03*
%TO.P,U5,4,CFG[2]*%
%TO.N,CFG_2*%
X96000000Y-112770000D03*
%TO.P,U5,5,CFG[1]*%
%TO.N,CFG_1*%
X96000000Y-113270000D03*
%TO.P,U5,6,CFG[0]*%
%TO.N,CFG_0*%
X96000000Y-113770000D03*
%TO.P,U5,7,SELMPP[1]*%
%TO.N,SELMPP1*%
X96000000Y-114270000D03*
D29*
%TO.P,U5,8,SELMPP[0]*%
%TO.N,SELMPP0*%
X96860000Y-115130000D03*
%TO.P,U5,9,FB_PRIM_D*%
%TO.N,GND*%
X97360000Y-115130000D03*
%TO.P,U5,10,FB_PRIM_U*%
X97860000Y-115130000D03*
%TO.P,U5,11,LVOUT*%
%TO.N,VoutAEM_LV*%
X98360000Y-115130000D03*
%TO.P,U5,12,ENHV*%
%TO.N,/BUCK*%
X98860000Y-115130000D03*
%TO.P,U5,13,FB_HV*%
%TO.N,unconnected-(U5-FB_HV-Pad13)*%
X99360000Y-115130000D03*
%TO.P,U5,14,HVOUT*%
%TO.N,VoutAEM*%
X99860000Y-115130000D03*
D28*
%TO.P,U5,15,BAL*%
%TO.N,/BAL*%
X100720000Y-114270000D03*
%TO.P,U5,16,BATT*%
%TO.N,/BATT*%
X100720000Y-113770000D03*
%TO.P,U5,17,PRIM*%
%TO.N,GND*%
X100720000Y-113270000D03*
%TO.P,U5,18,ENLV*%
%TO.N,EN_co*%
X100720000Y-112770000D03*
%TO.P,U5,19,STATUS[2]*%
%TO.N,STATUS_2*%
X100720000Y-112270000D03*
%TO.P,U5,20,STATUS[1]*%
%TO.N,STATUS_1*%
X100720000Y-111770000D03*
%TO.P,U5,21,STATUS[0]*%
%TO.N,STATUS_0*%
X100720000Y-111270000D03*
D29*
%TO.P,U5,22,SET_OVCH*%
%TO.N,/BUCK*%
X99860000Y-110410000D03*
%TO.P,U5,23,SET_CHRDY*%
X99360000Y-110410000D03*
%TO.P,U5,24,SET_OVDIS*%
X98860000Y-110410000D03*
%TO.P,U5,25,SRC*%
%TO.N,VinAEM*%
X98360000Y-110410000D03*
%TO.P,U5,26,FB_COLD*%
X97860000Y-110410000D03*
%TO.P,U5,27,BUFSRC*%
%TO.N,Net-(U5-BUFSRC)*%
X97360000Y-110410000D03*
%TO.P,U5,28,SWBOOST*%
%TO.N,Net-(U5-SWBOOST)*%
X96860000Y-110410000D03*
D30*
%TO.P,U5,29,GND*%
%TO.N,GND*%
X98360000Y-112770000D03*
%TD*%
D31*
%TO.P,X1,2,2*%
%TO.N,PC14-OSC32_OUT*%
X85730000Y-119730000D03*
%TO.P,X1,1,1*%
%TO.N,PC15-OSC32_IN*%
X84330000Y-119730000D03*
%TD*%
D14*
%TO.P,R11,1*%
%TO.N,/BUCK*%
X89510000Y-109872500D03*
%TO.P,R11,2*%
%TO.N,CFG_1*%
X89510000Y-108047500D03*
%TD*%
D18*
%TO.P,C23,1*%
%TO.N,/BGS12WN6_CTRL*%
X61137500Y-116150000D03*
%TO.P,C23,2*%
%TO.N,GND*%
X60002500Y-116150000D03*
%TD*%
D32*
%TO.P,BT1,1*%
%TO.N,GND*%
X102545000Y-106530000D03*
D33*
%TO.P,BT1,2*%
%TO.N,VinAEM*%
X100005000Y-106530000D03*
%TD*%
D20*
%TO.P,C15,1*%
%TO.N,VR_PA*%
X67289428Y-115774500D03*
%TO.P,C15,2*%
%TO.N,GND*%
X67289428Y-116909500D03*
%TD*%
D34*
%TO.P,U2,1,PB3*%
%TO.N,SWO*%
X75659428Y-108040000D03*
%TO.P,U2,2,PB4*%
%TO.N,STATUS_0*%
X75159429Y-108040000D03*
%TO.P,U2,3,PB5*%
%TO.N,STATUS_1*%
X74659427Y-108040000D03*
%TO.P,U2,4,PB6*%
%TO.N,SCL*%
X74159428Y-108040000D03*
%TO.P,U2,5,PB7*%
%TO.N,SDA*%
X73659429Y-108040000D03*
%TO.P,U2,6,PB8*%
%TO.N,STATUS_2*%
X73159428Y-108040000D03*
%TO.P,U2,7,PA0*%
%TO.N,EN_LV*%
X72659428Y-108040000D03*
%TO.P,U2,8,PA1*%
%TO.N,unconnected-(U2-PA1-Pad8)*%
X72159427Y-108040000D03*
%TO.P,U2,9,PA2*%
%TO.N,LPUART_TX*%
X71659428Y-108040000D03*
%TO.P,U2,10,PA3*%
%TO.N,LPUART_RX*%
X71159429Y-108040000D03*
%TO.P,U2,11,VDD*%
%TO.N,VDD*%
X70659427Y-108040000D03*
%TO.P,U2,12,PA4*%
%TO.N,unconnected-(U2-PA4-Pad12)*%
X70159428Y-108040000D03*
D35*
%TO.P,U2,13,PA5*%
%TO.N,LED*%
X69457428Y-108742000D03*
%TO.P,U2,14,PA6*%
%TO.N,unconnected-(U2-PA6-Pad14)*%
X69457428Y-109241999D03*
%TO.P,U2,15,PA7*%
%TO.N,DRIVE_RF*%
X69457428Y-109742001D03*
%TO.P,U2,16,PA8*%
%TO.N,unconnected-(U2-PA8-Pad16)*%
X69457428Y-110242000D03*
%TO.P,U2,17,PA9*%
%TO.N,unconnected-(U2-PA9-Pad17)*%
X69457428Y-110741999D03*
%TO.P,U2,18,NRST*%
%TO.N,NRST*%
X69457428Y-111242000D03*
%TO.P,U2,19,PH3-BOOT0*%
%TO.N,/BOOT0_MCU*%
X69457428Y-111742000D03*
%TO.P,U2,20,RFI_P*%
%TO.N,RFI_P*%
X69457428Y-112242001D03*
%TO.P,U2,21,RFI_N*%
%TO.N,RFI_N*%
X69457428Y-112742000D03*
%TO.P,U2,22,RFO_LP*%
%TO.N,RFO_LP*%
X69457428Y-113241999D03*
%TO.P,U2,23,RFO_HP*%
%TO.N,unconnected-(U2-RFO_HP-Pad23)*%
X69457428Y-113742001D03*
%TO.P,U2,24,VR_PA*%
%TO.N,VR_PA*%
X69457428Y-114242000D03*
D34*
%TO.P,U2,25,VDDPA*%
%TO.N,VDDRF1V55*%
X70159428Y-114944000D03*
%TO.P,U2,26,OSC_IN*%
%TO.N,OSC_IN*%
X70659427Y-114944000D03*
%TO.P,U2,27,OSC_OUT*%
%TO.N,OSC_OUT*%
X71159429Y-114944000D03*
%TO.P,U2,28,VDDRF*%
%TO.N,VDD*%
X71659428Y-114944000D03*
%TO.P,U2,29,VDDRF1V55*%
%TO.N,VDDRF1V55*%
X72159427Y-114944000D03*
%TO.P,U2,30,PB0-VDD_TCXO*%
%TO.N,unconnected-(U2-PB0-VDD_TCXO-Pad30)*%
X72659428Y-114944000D03*
%TO.P,U2,31,PB2*%
%TO.N,unconnected-(U2-PB2-Pad31)*%
X73159428Y-114944000D03*
%TO.P,U2,32,PB12*%
%TO.N,SWDIO*%
X73659429Y-114944000D03*
%TO.P,U2,33,PA10*%
%TO.N,unconnected-(U2-PA10-Pad33)*%
X74159428Y-114944000D03*
%TO.P,U2,34,PA11*%
%TO.N,BTN1*%
X74659427Y-114944000D03*
%TO.P,U2,35,PA12*%
%TO.N,unconnected-(U2-PA12-Pad35)*%
X75159429Y-114944000D03*
%TO.P,U2,36,PA13*%
%TO.N,unconnected-(U2-PA13-Pad36)*%
X75659428Y-114944000D03*
D35*
%TO.P,U2,37,VBAT*%
%TO.N,BATT_MCU*%
X76361428Y-114242000D03*
%TO.P,U2,38,PC13*%
%TO.N,RFIO_SEL*%
X76361428Y-113742001D03*
%TO.P,U2,39,PC14-OSC32_IN*%
%TO.N,PC15-OSC32_IN*%
X76361428Y-113241999D03*
%TO.P,U2,40,PC15-OSC32_OUT*%
%TO.N,PC14-OSC32_OUT*%
X76361428Y-112742000D03*
%TO.P,U2,41,VDDA*%
%TO.N,VDDA*%
X76361428Y-112242001D03*
%TO.P,U2,42,PA14*%
%TO.N,SWCLK*%
X76361428Y-111742000D03*
%TO.P,U2,43,PA15*%
%TO.N,unconnected-(U2-PA15-Pad43)*%
X76361428Y-111242000D03*
%TO.P,U2,44,VDD*%
%TO.N,VDD*%
X76361428Y-110741999D03*
%TO.P,U2,45,VFBSMPS*%
%TO.N,VDDRF1V55*%
X76361428Y-110242000D03*
%TO.P,U2,46,VDDSMPS*%
%TO.N,VDD*%
X76361428Y-109742001D03*
%TO.P,U2,47,VLCSMPS*%
%TO.N,VLCSMPS*%
X76361428Y-109241999D03*
%TO.P,U2,48,VSSSMPS*%
%TO.N,GND*%
X76361428Y-108742000D03*
D36*
%TO.P,U2,49,GND*%
X72909428Y-111492000D03*
%TD*%
D37*
%TO.P,R9,1*%
%TO.N,BTN1*%
X88710000Y-125302500D03*
%TO.P,R9,2*%
%TO.N,/Button1*%
X88710000Y-126497500D03*
%TD*%
D22*
%TO.P,C17,1*%
%TO.N,/BATT*%
X107320000Y-105680000D03*
%TO.P,C17,2*%
%TO.N,/BAL*%
X107320000Y-110680000D03*
%TD*%
D19*
%TO.P,C3,1*%
%TO.N,VDD*%
X70160000Y-104877500D03*
%TO.P,C3,2*%
%TO.N,GND*%
X70160000Y-103742500D03*
%TD*%
D38*
%TO.P,U1,1,RF2*%
%TO.N,RF2*%
X62255428Y-112902000D03*
%TO.P,U1,2,GND*%
%TO.N,GND*%
X62255428Y-112502000D03*
%TO.P,U1,3,RF1*%
%TO.N,RF1*%
X62255428Y-112102000D03*
%TO.P,U1,4,VDD*%
%TO.N,VDD_RF*%
X61855428Y-112102000D03*
%TO.P,U1,5,RFIN*%
%TO.N,/SMA3*%
X61855428Y-112502000D03*
%TO.P,U1,6,CTRL*%
%TO.N,/BGS12WN6_CTRL*%
X61855428Y-112902000D03*
%TD*%
D39*
%TO.P,L4,1,1*%
%TO.N,/BUCK*%
X92705000Y-111770000D03*
%TO.P,L4,2,2*%
%TO.N,Net-(U5-SWBUCK)*%
X94455000Y-111770000D03*
%TD*%
D27*
%TO.P,D1,1*%
%TO.N,NRST*%
X69177500Y-129032500D03*
%TO.P,D1,2*%
%TO.N,GND*%
X68552500Y-129032500D03*
%TD*%
D20*
%TO.P,C5,1*%
%TO.N,VDD*%
X79550000Y-115100000D03*
%TO.P,C5,2*%
%TO.N,GND*%
X79550000Y-116235000D03*
%TD*%
D39*
%TO.P,L5,1,1*%
%TO.N,Net-(U5-SWBOOST)*%
X95610000Y-108910000D03*
%TO.P,L5,2,2*%
%TO.N,Net-(U5-BUFSRC)*%
X97360000Y-108910000D03*
%TD*%
D19*
%TO.P,C2,1*%
%TO.N,VDD*%
X71100572Y-104875500D03*
%TO.P,C2,2*%
%TO.N,GND*%
X71100572Y-103740500D03*
%TD*%
D40*
%TO.P,D4,1,K*%
%TO.N,GND*%
X70852500Y-100670000D03*
%TO.P,D4,2,A*%
%TO.N,/LED1*%
X69707500Y-100670000D03*
%TD*%
D20*
%TO.P,C20,1*%
%TO.N,/BUCK*%
X92710000Y-113032500D03*
%TO.P,C20,2*%
%TO.N,GND*%
X92710000Y-114167500D03*
%TD*%
D19*
%TO.P,C24,1*%
%TO.N,Net-(U5-BUFSRC)*%
X97360000Y-107657500D03*
%TO.P,C24,2*%
%TO.N,GND*%
X97360000Y-106522500D03*
%TD*%
D24*
%TO.P,SW1,1*%
%TO.N,NRST*%
X71309999Y-124104900D03*
%TO.P,SW1,2*%
X77810001Y-124104900D03*
%TO.P,SW1,3*%
%TO.N,GND*%
X71309999Y-128604901D03*
%TO.P,SW1,4*%
X77810001Y-128604901D03*
%TD*%
D19*
%TO.P,C4,1*%
%TO.N,VDD*%
X79870000Y-109537500D03*
%TO.P,C4,2*%
%TO.N,GND*%
X79870000Y-108402500D03*
%TD*%
D26*
%TO.P,R2,1*%
%TO.N,VDD_RF*%
X62132500Y-108050000D03*
%TO.P,R2,2*%
%TO.N,DRIVE_RF*%
X63327500Y-108050000D03*
%TD*%
D41*
%TO.P,L3,1,1*%
%TO.N,VR_PA*%
X68254428Y-115781000D03*
%TO.P,L3,2,2*%
%TO.N,RFO_LP*%
X68254428Y-114636000D03*
%TD*%
D11*
%TO.P,R18,1*%
%TO.N,SELMPP1*%
X90980000Y-115367500D03*
%TO.P,R18,2*%
%TO.N,GND*%
X90980000Y-117192500D03*
%TD*%
D19*
%TO.P,C27,1*%
%TO.N,GND*%
X58490000Y-113637500D03*
%TO.P,C27,2*%
%TO.N,/SMA2*%
X58490000Y-112502500D03*
%TD*%
D12*
%TO.P,TP1,1,1*%
%TO.N,STATUS_0*%
X81010000Y-102520000D03*
%TD*%
D20*
%TO.P,C14,1*%
%TO.N,VDDRF1V55*%
X82380000Y-109742500D03*
%TO.P,C14,2*%
%TO.N,GND*%
X82380000Y-110877500D03*
%TD*%
%TO.P,C32,1*%
%TO.N,VDD*%
X72040000Y-116352500D03*
%TO.P,C32,2*%
%TO.N,GND*%
X72040000Y-117487500D03*
%TD*%
D42*
%TO.P,U4,A1,RFO_IN*%
%TO.N,Net-(U4-RFO_IN)*%
X65889428Y-113436000D03*
%TO.P,U4,A2,RFI_N_OUT*%
%TO.N,RFI_N*%
X65889428Y-112726000D03*
%TO.P,U4,A3,RFI_P_OUT*%
%TO.N,RFI_P*%
X65889428Y-112096000D03*
%TO.P,U4,B1,GND2*%
%TO.N,GND*%
X65114428Y-113776000D03*
%TO.P,U4,B2,GND3*%
X65199428Y-112936000D03*
%TO.P,U4,C1,RFO_OUT*%
%TO.N,RF2*%
X64509428Y-113776000D03*
%TO.P,U4,C2,GND1*%
%TO.N,GND*%
X64509428Y-112936000D03*
%TO.P,U4,C3,RFI_IN*%
%TO.N,RF1*%
X64509428Y-112096000D03*
%TD*%
D18*
%TO.P,C22,1*%
%TO.N,VoutAEM_LV*%
X98067500Y-117250000D03*
%TO.P,C22,2*%
%TO.N,GND*%
X96932500Y-117250000D03*
%TD*%
D26*
%TO.P,R1,1*%
%TO.N,GND*%
X64172500Y-101010000D03*
%TO.P,R1,2*%
%TO.N,/BOOT0_MCU*%
X65367500Y-101010000D03*
%TD*%
D43*
%TO.P,J2,1,1*%
%TO.N,/SMA1*%
X52457428Y-112440000D03*
D44*
%TO.P,J2,2,2*%
%TO.N,GND*%
X52657473Y-115265001D03*
%TO.P,J2,3,3*%
X52657473Y-109615002D03*
%TD*%
D11*
%TO.P,R16,1*%
%TO.N,SELMPP0*%
X89170000Y-115347500D03*
%TO.P,R16,2*%
%TO.N,GND*%
X89170000Y-117172500D03*
%TD*%
D19*
%TO.P,C25,1*%
%TO.N,GND*%
X55310000Y-113637500D03*
%TO.P,C25,2*%
%TO.N,/SMA1*%
X55310000Y-112502500D03*
%TD*%
D11*
%TO.P,R17,1*%
%TO.N,/BUCK*%
X90980000Y-112067500D03*
%TO.P,R17,2*%
%TO.N,SELMPP1*%
X90980000Y-113892500D03*
%TD*%
D13*
%TO.P,R6,1*%
%TO.N,SDA*%
X105377500Y-121610000D03*
%TO.P,R6,2*%
%TO.N,VDD_sensor*%
X104182500Y-121610000D03*
%TD*%
D20*
%TO.P,C7,1*%
%TO.N,VDDA*%
X79610000Y-112240000D03*
%TO.P,C7,2*%
%TO.N,GND*%
X79610000Y-113375000D03*
%TD*%
%TO.P,C6,1*%
%TO.N,VDDA*%
X80530000Y-112240000D03*
%TO.P,C6,2*%
%TO.N,GND*%
X80530000Y-113375000D03*
%TD*%
D19*
%TO.P,C10,1*%
%TO.N,VDD*%
X80850000Y-109520000D03*
%TO.P,C10,2*%
%TO.N,GND*%
X80850000Y-108385000D03*
%TD*%
D32*
%TO.P,J4,1,Pin_1*%
%TO.N,VDD*%
X95995000Y-123225000D03*
D33*
%TO.P,J4,2,Pin_2*%
%TO.N,VoutAEM*%
X95995000Y-120685000D03*
%TO.P,J4,3,Pin_3*%
%TO.N,GND*%
X98535000Y-123225000D03*
%TO.P,J4,4,Pin_4*%
X98535000Y-120685000D03*
%TD*%
D13*
%TO.P,R20,1*%
%TO.N,BATT2*%
X104485000Y-101260000D03*
%TO.P,R20,2*%
%TO.N,GND*%
X103290000Y-101260000D03*
%TD*%
D19*
%TO.P,C29,1*%
%TO.N,NRST*%
X69220000Y-128030000D03*
%TO.P,C29,2*%
%TO.N,GND*%
X69220000Y-126895000D03*
%TD*%
D14*
%TO.P,R14,1*%
%TO.N,CFG_0*%
X87330000Y-106492500D03*
%TO.P,R14,2*%
%TO.N,GND*%
X87330000Y-104667500D03*
%TD*%
D37*
%TO.P,R3,1*%
%TO.N,/BGS12WN6_CTRL*%
X62250000Y-117162500D03*
%TO.P,R3,2*%
%TO.N,RFIO_SEL*%
X62250000Y-118357500D03*
%TD*%
D18*
%TO.P,C31,1*%
%TO.N,RFO_LP*%
X68246928Y-113436000D03*
%TO.P,C31,2*%
%TO.N,Net-(U4-RFO_IN)*%
X67111928Y-113436000D03*
%TD*%
D23*
%TO.P,C26,1*%
%TO.N,/BGS12WN6_CTRL*%
X62241928Y-116163500D03*
%TO.P,C26,2*%
%TO.N,GND*%
X63376928Y-116163500D03*
%TD*%
D45*
%TO.P,X2,1,1*%
%TO.N,OSC_IN*%
X70070000Y-120080000D03*
%TO.P,X2,2,2*%
%TO.N,GND*%
X70070000Y-121480000D03*
%TO.P,X2,3,3*%
%TO.N,OSC_OUT*%
X71170000Y-121480000D03*
%TO.P,X2,4,4*%
%TO.N,GND*%
X71170000Y-120080000D03*
%TD*%
D19*
%TO.P,C16,1*%
%TO.N,GND*%
X103020000Y-129427500D03*
%TO.P,C16,2*%
%TO.N,VDD_sensor*%
X103020000Y-128292500D03*
%TD*%
D26*
%TO.P,R4,1*%
%TO.N,/GNDDetect*%
X57512500Y-128700000D03*
%TO.P,R4,2*%
%TO.N,GND*%
X58707500Y-128700000D03*
%TD*%
D46*
%TO.P,L7,1,1*%
%TO.N,/SMA1*%
X56337500Y-112500000D03*
%TO.P,L7,2,2*%
%TO.N,/SMA2*%
X57482500Y-112500000D03*
%TD*%
D47*
%TO.N,EN_LV*%
X86495000Y-103279290D03*
X74000000Y-100530000D03*
%TO.N,VoutAEM_LV*%
X100910000Y-117040000D03*
X98745000Y-116670000D03*
%TO.N,GND*%
X106990000Y-102190000D03*
%TO.N,VDD*%
X79140000Y-104870000D03*
X74394500Y-104875500D03*
%TO.N,GND*%
X71100572Y-102768000D03*
D48*
X75020000Y-110810000D03*
D47*
X88390000Y-105090000D03*
D48*
X55829428Y-103390000D03*
X65115000Y-119450000D03*
D47*
X59860000Y-110800000D03*
X69260000Y-118660000D03*
D48*
X75050000Y-112240000D03*
X55804428Y-119382000D03*
D47*
X65199428Y-112936000D03*
X58850000Y-116150000D03*
X78830000Y-107430000D03*
D48*
X97500000Y-111890000D03*
D47*
X66410000Y-116880000D03*
D48*
X58109428Y-103390000D03*
D47*
X58500000Y-114760000D03*
D48*
X54260000Y-108210000D03*
D47*
X59880000Y-109280000D03*
X70850000Y-101600000D03*
X90350000Y-127460000D03*
D48*
X97480000Y-113640000D03*
D47*
X105340000Y-125060000D03*
X69885115Y-126065115D03*
X63090000Y-101010000D03*
X96770000Y-116310000D03*
D48*
X51029428Y-105140000D03*
D47*
X53730000Y-128770000D03*
D48*
X73650000Y-110780000D03*
D47*
X92710000Y-115110000D03*
X76630000Y-107370000D03*
D48*
X51760000Y-108210000D03*
X54290000Y-116730000D03*
X70750000Y-109390000D03*
X60709428Y-103400000D03*
D47*
X105360000Y-118720000D03*
X67500000Y-129030000D03*
X89630488Y-103955000D03*
X87850000Y-120870000D03*
D48*
X70720000Y-110810000D03*
X61099428Y-119382000D03*
D47*
X88030000Y-116440000D03*
D48*
X51004428Y-117632000D03*
X51790000Y-116730000D03*
D47*
X55900000Y-114760000D03*
X65120000Y-114930000D03*
D48*
X51029428Y-107140000D03*
X99350000Y-113580000D03*
X99190000Y-111910000D03*
X58509428Y-119382000D03*
D47*
X54980000Y-128770000D03*
D48*
X75060000Y-113670000D03*
D47*
X73655000Y-117193013D03*
D48*
X53040000Y-116730000D03*
X98380000Y-112800000D03*
D47*
X90980000Y-118160000D03*
X92610000Y-104690000D03*
X95919620Y-116970380D03*
X108080000Y-126080000D03*
D48*
X66402500Y-118162500D03*
D47*
X64330000Y-116150000D03*
D48*
X53279428Y-103390000D03*
D47*
X93590000Y-109470000D03*
X101830000Y-129410000D03*
D48*
X75050000Y-109400000D03*
D47*
X81480000Y-110850000D03*
X90980000Y-128330000D03*
X106680000Y-129400000D03*
D48*
X73610000Y-112250000D03*
D47*
X71345411Y-119371568D03*
D48*
X70720000Y-112220000D03*
X63319428Y-103400000D03*
D47*
X70160572Y-102798000D03*
X81420000Y-116207500D03*
X103900000Y-124740000D03*
D48*
X73640000Y-109350000D03*
D47*
X102310000Y-101250000D03*
X97350000Y-105470000D03*
D48*
X70750000Y-113660000D03*
D47*
X63154012Y-112845988D03*
X94025000Y-118675000D03*
X59700000Y-128700000D03*
X81460000Y-113377500D03*
D48*
X51029428Y-103390000D03*
D47*
X72954339Y-118409645D03*
D48*
X73670000Y-113630000D03*
D47*
X80840000Y-107420000D03*
X80417834Y-116920000D03*
X81470000Y-114217500D03*
X101970000Y-113270000D03*
X97860000Y-116320000D03*
D48*
X63210000Y-119400000D03*
D47*
X82220000Y-120820000D03*
D48*
X51004428Y-119382000D03*
X53010000Y-108210000D03*
D47*
X66910000Y-119310000D03*
D48*
X65619428Y-103400000D03*
D47*
X79860000Y-107420000D03*
X68610000Y-117870000D03*
D48*
X66684714Y-104465286D03*
X68004714Y-105785286D03*
X53254428Y-119382000D03*
D47*
%TO.N,PC15-OSC32_IN*%
X77327419Y-117282811D03*
X77561910Y-113416999D03*
%TO.N,PC14-OSC32_OUT*%
X78330000Y-112841999D03*
X78367779Y-117424784D03*
%TO.N,VDDRF1V55*%
X74330000Y-121560000D03*
X73820000Y-116200000D03*
X70059428Y-115761656D03*
X79800000Y-110720000D03*
X77894442Y-109959442D03*
%TO.N,NRST*%
X57510000Y-122515012D03*
X71309999Y-125940001D03*
X68480000Y-110780000D03*
%TO.N,LPUART_TX*%
X71784429Y-106906204D03*
X65126705Y-123788602D03*
%TO.N,LPUART_RX*%
X63560000Y-123550000D03*
X70860000Y-106080000D03*
%TO.N,SWO*%
X66170000Y-123710000D03*
X77500000Y-106590000D03*
%TO.N,SWCLK*%
X77820000Y-111441999D03*
X67135510Y-123599796D03*
%TO.N,SWDIO*%
X68112900Y-123216109D03*
X75300000Y-121550000D03*
%TO.N,CFG_2*%
X93680000Y-113882500D03*
X92870000Y-106880000D03*
%TO.N,CFG_1*%
X90540000Y-110110000D03*
X93662924Y-114953820D03*
%TO.N,CFG_0*%
X94600000Y-115110000D03*
X94580000Y-117510000D03*
%TO.N,BATT2*%
X85645000Y-114476726D03*
X81790001Y-118939999D03*
%TO.N,STATUS_2*%
X75430000Y-100480000D03*
X88762805Y-102262195D03*
%TO.N,/BOOT0_MCU*%
X67560000Y-108914600D03*
X67567823Y-110514599D03*
%TO.N,SDA*%
X106070000Y-120690000D03*
X109380000Y-120680000D03*
%TO.N,VLCSMPS*%
X79020000Y-106120000D03*
X77430000Y-108660000D03*
%TO.N,RFIO_SEL*%
X68858949Y-122477247D03*
X77080000Y-115310000D03*
%TO.N,BTN1*%
X75220000Y-124810000D03*
X76726037Y-121516948D03*
%TO.N,/BUCK*%
X96500000Y-107500000D03*
X100080000Y-108950000D03*
%TO.N,STATUS_0*%
X85397929Y-101903510D03*
X87490710Y-102899290D03*
%TO.N,STATUS_1*%
X91070000Y-102685000D03*
X86067917Y-101230000D03*
%TD*%
D49*
%TO.N,GND*%
X94025000Y-118675000D02*
X93680000Y-119020000D01*
X93680000Y-119020000D02*
X93680000Y-119552500D01*
D50*
%TO.N,EN_LV*%
X74650500Y-104150500D02*
X74694805Y-104150500D01*
X75119500Y-105180500D02*
X72659428Y-107640572D01*
X73140000Y-102640000D02*
X74650500Y-104150500D01*
X74694805Y-104150500D02*
X75119500Y-104575195D01*
X72659428Y-107640572D02*
X72659428Y-108040000D01*
X73140000Y-101390000D02*
X73140000Y-102640000D01*
X75119500Y-104575195D02*
X75119500Y-105180500D01*
X74000000Y-100530000D02*
X73140000Y-101390000D01*
D49*
%TO.N,VDD*%
X98132500Y-125362500D02*
X95995000Y-123225000D01*
X98142500Y-125362500D02*
X98132500Y-125362500D01*
D50*
%TO.N,STATUS_2*%
X73159428Y-107614405D02*
X73159428Y-108040000D01*
X73584999Y-107188834D02*
X73159428Y-107614405D01*
X74740000Y-101170000D02*
X74740000Y-102340000D01*
X74740000Y-102340000D02*
X75510000Y-103110000D01*
X75510000Y-103110000D02*
X75510000Y-105310000D01*
X75430000Y-100480000D02*
X74740000Y-101170000D01*
X75510000Y-105310000D02*
X73631167Y-107188833D01*
X73631167Y-107188833D02*
X73584999Y-107188834D01*
D51*
%TO.N,VDD*%
X74394500Y-104875500D02*
X71100572Y-104875500D01*
D50*
%TO.N,EN_LV*%
X100904264Y-103340000D02*
X101827500Y-103340000D01*
X99194264Y-101630000D02*
X100904264Y-103340000D01*
X87876116Y-101630000D02*
X99194264Y-101630000D01*
X86495000Y-103011116D02*
X87876116Y-101630000D01*
X86495000Y-103279290D02*
X86495000Y-103011116D01*
%TO.N,STATUS_0*%
X101170000Y-105230000D02*
X101170000Y-110820000D01*
X87490710Y-102899290D02*
X87921420Y-103330000D01*
X101170000Y-110820000D02*
X100720000Y-111270000D01*
X99270000Y-103330000D02*
X101170000Y-105230000D01*
X87921420Y-103330000D02*
X99270000Y-103330000D01*
D52*
%TO.N,VoutAEM_LV*%
X98745000Y-116215050D02*
X98360000Y-115830050D01*
X98745000Y-116670000D02*
X98745000Y-116215050D01*
X98360000Y-115830050D02*
X98360000Y-115130000D01*
D53*
X98067500Y-117250000D02*
X98647500Y-116670000D01*
X98647500Y-116670000D02*
X98745000Y-116670000D01*
D49*
%TO.N,VDD_sensor*%
X102727500Y-122660000D02*
X102930000Y-122862500D01*
X101390000Y-122660000D02*
X102727500Y-122660000D01*
%TO.N,VoutAEM_LV*%
X101390000Y-117520000D02*
X101390000Y-119877500D01*
X100910000Y-117040000D02*
X101390000Y-117520000D01*
%TO.N,GND*%
X96199240Y-117250000D02*
X96932500Y-117250000D01*
X95919620Y-116970380D02*
X96199240Y-117250000D01*
D54*
%TO.N,/BUCK*%
X87230000Y-116790000D02*
X87230000Y-111910000D01*
X89710000Y-119270000D02*
X87230000Y-116790000D01*
X91450000Y-119270000D02*
X89710000Y-119270000D01*
X96080000Y-118050000D02*
X94790000Y-116760000D01*
X93960000Y-116760000D02*
X91450000Y-119270000D01*
X99395000Y-118050000D02*
X96080000Y-118050000D01*
X99395000Y-116170000D02*
X99395000Y-118050000D01*
X94790000Y-116760000D02*
X93960000Y-116760000D01*
X98860000Y-115635000D02*
X99395000Y-116170000D01*
D53*
%TO.N,VDD_sensor*%
X101390000Y-122660000D02*
X101390000Y-123537500D01*
X101390000Y-121702500D02*
X101390000Y-122660000D01*
D49*
%TO.N,VDD*%
X101390000Y-125362500D02*
X98142500Y-125362500D01*
D53*
%TO.N,GND*%
X106992500Y-102192500D02*
X106992500Y-103340000D01*
X106990000Y-102190000D02*
X106992500Y-102192500D01*
D54*
%TO.N,EN_co*%
X104930000Y-108349620D02*
X104930000Y-103577500D01*
X102095000Y-111184620D02*
X104930000Y-108349620D01*
X102095000Y-111869718D02*
X102095000Y-111184620D01*
X101194718Y-112770000D02*
X102095000Y-111869718D01*
X100720000Y-112770000D02*
X101194718Y-112770000D01*
X104930000Y-103577500D02*
X105167500Y-103340000D01*
D49*
X105167500Y-103340000D02*
X103652500Y-103340000D01*
D50*
%TO.N,STATUS_2*%
X98860000Y-102060000D02*
X88965000Y-102060000D01*
X104600000Y-108220000D02*
X104600000Y-104480000D01*
X101280000Y-104480000D02*
X98860000Y-102060000D01*
X88965000Y-102060000D02*
X88762805Y-102262195D01*
X101770000Y-111050000D02*
X104600000Y-108220000D01*
X101159362Y-112270000D02*
X101770000Y-111659362D01*
X100720000Y-112270000D02*
X101159362Y-112270000D01*
X101770000Y-111659362D02*
X101770000Y-111050000D01*
X104600000Y-104480000D02*
X101280000Y-104480000D01*
D49*
%TO.N,BATT2*%
X104530000Y-102180000D02*
X105110000Y-101600000D01*
X100486726Y-102180000D02*
X104530000Y-102180000D01*
X99411726Y-101105000D02*
X100486726Y-102180000D01*
X87398521Y-101105000D02*
X99411726Y-101105000D01*
X85645000Y-102858521D02*
X87398521Y-101105000D01*
X85645000Y-114476726D02*
X85645000Y-102858521D01*
%TO.N,/BATT*%
X108390000Y-102090000D02*
X108390000Y-104610000D01*
X107560000Y-101260000D02*
X108390000Y-102090000D01*
X108390000Y-104610000D02*
X107320000Y-105680000D01*
X106925000Y-101260000D02*
X107560000Y-101260000D01*
%TO.N,/BUCK*%
X91240000Y-110960000D02*
X90950000Y-110960000D01*
X91640000Y-109912500D02*
X91640000Y-110560000D01*
X91640000Y-110560000D02*
X91240000Y-110960000D01*
X91600000Y-109872500D02*
X91640000Y-109912500D01*
D54*
%TO.N,CFG_0*%
X86510000Y-116680000D02*
X86510000Y-107540000D01*
X89500000Y-119670000D02*
X86510000Y-116680000D01*
X86510000Y-107540000D02*
X86840000Y-107210000D01*
X91690000Y-119670000D02*
X89500000Y-119670000D01*
X93850000Y-117510000D02*
X91690000Y-119670000D01*
X94580000Y-117510000D02*
X93850000Y-117510000D01*
X94560000Y-117530000D02*
X94560000Y-117550000D01*
X94580000Y-117510000D02*
X94560000Y-117530000D01*
D50*
%TO.N,STATUS_0*%
X81270000Y-102520000D02*
X81860000Y-101930000D01*
X81010000Y-102520000D02*
X81270000Y-102520000D01*
X81860000Y-101930000D02*
X85371439Y-101930000D01*
X85371439Y-101930000D02*
X85397929Y-101903510D01*
X81855000Y-101935000D02*
X81860000Y-101930000D01*
D52*
%TO.N,GND*%
X100720000Y-113270000D02*
X101970000Y-113270000D01*
D54*
%TO.N,SCL*%
X74159428Y-107626688D02*
X74159428Y-108040000D01*
X76410000Y-105376116D02*
X74159428Y-107626688D01*
X76410000Y-101534974D02*
X76410000Y-105376116D01*
X109090000Y-120050761D02*
X109090000Y-101540000D01*
X77389974Y-100555000D02*
X76410000Y-101534974D01*
X108105000Y-100555000D02*
X77389974Y-100555000D01*
X108330761Y-120810000D02*
X109090000Y-120050761D01*
X107432500Y-120810000D02*
X108330761Y-120810000D01*
X106642500Y-121600000D02*
X107432500Y-120810000D01*
X109090000Y-101540000D02*
X108105000Y-100555000D01*
%TO.N,SDA*%
X109470000Y-101425026D02*
X109470000Y-120590000D01*
X76060000Y-101390000D02*
X77245000Y-100205000D01*
X76060000Y-105231142D02*
X76060000Y-101390000D01*
X77245000Y-100205000D02*
X108249974Y-100205000D01*
X73777309Y-107513833D02*
X76060000Y-105231142D01*
X73719619Y-107513833D02*
X73777309Y-107513833D01*
X109470000Y-120590000D02*
X109380000Y-120680000D01*
X108249974Y-100205000D02*
X109470000Y-101425026D01*
X73659429Y-107574024D02*
X73719619Y-107513833D01*
X73659429Y-108040000D02*
X73659429Y-107574024D01*
D49*
%TO.N,VoutAEM*%
X99945000Y-118525000D02*
X99945000Y-115130000D01*
D53*
X99920000Y-118550000D02*
X98130000Y-118550000D01*
D49*
X99920000Y-118550000D02*
X99945000Y-118525000D01*
D53*
X98130000Y-118550000D02*
X95995000Y-120685000D01*
D50*
%TO.N,STATUS_1*%
X101225000Y-111770000D02*
X100720000Y-111770000D01*
X101470000Y-105105736D02*
X101470000Y-111525000D01*
X101470000Y-111525000D02*
X101225000Y-111770000D01*
X99084264Y-102720000D02*
X101470000Y-105105736D01*
X91105000Y-102720000D02*
X99084264Y-102720000D01*
X91070000Y-102685000D02*
X91105000Y-102720000D01*
D52*
%TO.N,SELMPP0*%
X89990000Y-116167500D02*
X89170000Y-115347500D01*
X91270000Y-118860000D02*
X90690050Y-118860000D01*
X90690050Y-118860000D02*
X89990000Y-118159950D01*
X93870000Y-116260000D02*
X91270000Y-118860000D01*
X95730000Y-116260000D02*
X93870000Y-116260000D01*
X89990000Y-118159950D02*
X89990000Y-116167500D01*
X96860000Y-115130000D02*
X95730000Y-116260000D01*
%TO.N,GND*%
X90980000Y-117192500D02*
X90980000Y-118160000D01*
D49*
%TO.N,/BATT*%
X105190000Y-109150000D02*
X107320000Y-107020000D01*
X105190000Y-111252082D02*
X105190000Y-109150000D01*
X102462082Y-113980000D02*
X105190000Y-111252082D01*
X107320000Y-107020000D02*
X107320000Y-105680000D01*
D52*
X101480050Y-113770000D02*
X100720000Y-113770000D01*
X101690050Y-113980000D02*
X101480050Y-113770000D01*
X102462082Y-113980000D02*
X101690050Y-113980000D01*
D49*
%TO.N,/BAL*%
X106860000Y-112150000D02*
X107320000Y-112150000D01*
X103630000Y-115380000D02*
X106860000Y-112150000D01*
X102520000Y-115380000D02*
X103630000Y-115380000D01*
D52*
X101190000Y-114270000D02*
X100720000Y-114270000D01*
X102520000Y-115380000D02*
X102300000Y-115380000D01*
X102300000Y-115380000D02*
X101190000Y-114270000D01*
D53*
%TO.N,/BUCK*%
X87230000Y-111910000D02*
X88180000Y-110960000D01*
D55*
X98860000Y-115130000D02*
X98860000Y-115635000D01*
D51*
%TO.N,VDD*%
X70728443Y-122700901D02*
X69906000Y-123523344D01*
D49*
%TO.N,VDD_sensor*%
X105490000Y-128292500D02*
X105500000Y-128282500D01*
D53*
%TO.N,VDD*%
X79270000Y-115100000D02*
X79550000Y-115100000D01*
D49*
X70160000Y-104877500D02*
X71098572Y-104877500D01*
D51*
X91335075Y-122600000D02*
X77231696Y-122600000D01*
X73186777Y-122716777D02*
X73186777Y-119553223D01*
D53*
X76407500Y-116550000D02*
X76407500Y-119260000D01*
D49*
X78830000Y-109517500D02*
X80847500Y-109517500D01*
D51*
X73290000Y-122820000D02*
X73186777Y-122716777D01*
X84300000Y-113944925D02*
X84252425Y-113992500D01*
D52*
X72829645Y-119209645D02*
X73070000Y-119450000D01*
D49*
%TO.N,VDD_sensor*%
X103020000Y-128292500D02*
X105490000Y-128292500D01*
D51*
%TO.N,VDD*%
X83054720Y-104870000D02*
X84300000Y-106115280D01*
D52*
X78320000Y-106930000D02*
X78320000Y-105690000D01*
%TO.N,VDD_sensor*%
X104720000Y-123350000D02*
X103581250Y-122211250D01*
%TO.N,VDD*%
X78830000Y-109517500D02*
X78130000Y-108817500D01*
D51*
X73186777Y-119553223D02*
X73290000Y-119450000D01*
D52*
X71659428Y-114944000D02*
X71659428Y-116290000D01*
D51*
X73290000Y-122820000D02*
X73170901Y-122700901D01*
D49*
X82950000Y-114387500D02*
X82237500Y-115100000D01*
D51*
X84252425Y-113992500D02*
X82950000Y-113992500D01*
D53*
X76717500Y-116240000D02*
X78130000Y-116240000D01*
D51*
X84300000Y-106115280D02*
X84300000Y-113944925D01*
D53*
X78130000Y-116240000D02*
X79270000Y-115100000D01*
D49*
%TO.N,VDD_sensor*%
X108930000Y-128010000D02*
X108657500Y-128282500D01*
D50*
%TO.N,VDD*%
X78592500Y-109280000D02*
X78830000Y-109517500D01*
D51*
X91960075Y-123225000D02*
X91335075Y-122600000D01*
D52*
X78665501Y-110741999D02*
X79870000Y-109537500D01*
X73070000Y-119450000D02*
X73290000Y-119450000D01*
X76361428Y-110741999D02*
X78665501Y-110741999D01*
D49*
%TO.N,VDD_sensor*%
X102930000Y-126110000D02*
X103920000Y-126110000D01*
D52*
%TO.N,VDD*%
X71721928Y-116352500D02*
X72040000Y-116352500D01*
D49*
%TO.N,VDD_sensor*%
X102930000Y-122862500D02*
X102930000Y-126110000D01*
D52*
%TO.N,VDD*%
X72157500Y-116290000D02*
X72200000Y-116332500D01*
X78130000Y-107120000D02*
X78320000Y-106930000D01*
X70659427Y-107408600D02*
X70160000Y-106909173D01*
D50*
X77690000Y-109280000D02*
X78592500Y-109280000D01*
D51*
X79140000Y-104870000D02*
X83054720Y-104870000D01*
D49*
%TO.N,VDD_sensor*%
X105520000Y-126110000D02*
X105520000Y-128262500D01*
D50*
%TO.N,VDD*%
X76361428Y-109742001D02*
X77227999Y-109742001D01*
D52*
X70160000Y-106909173D02*
X70160000Y-104877500D01*
D49*
%TO.N,VDD_sensor*%
X108657500Y-128282500D02*
X105500000Y-128282500D01*
D51*
%TO.N,VDD*%
X76826696Y-123005000D02*
X73475000Y-123005000D01*
X77231696Y-122600000D02*
X76826696Y-123005000D01*
D49*
X82950000Y-113992500D02*
X82950000Y-114387500D01*
%TO.N,VDD_sensor*%
X108930000Y-122692500D02*
X108930000Y-128010000D01*
D52*
%TO.N,VDD*%
X71390000Y-117976677D02*
X72622968Y-119209645D01*
X70659427Y-108040000D02*
X70659427Y-107408600D01*
D49*
%TO.N,VDD_sensor*%
X103581250Y-122211250D02*
X102930000Y-122862500D01*
D51*
%TO.N,VDD*%
X73170901Y-122700901D02*
X70728443Y-122700901D01*
D52*
X71659428Y-116290000D02*
X71721928Y-116352500D01*
D53*
X52430000Y-126585000D02*
X52430000Y-128601371D01*
D51*
X65225305Y-129240000D02*
X61050000Y-129240000D01*
D49*
%TO.N,VDD_sensor*%
X107837500Y-121600000D02*
X108930000Y-122692500D01*
D52*
%TO.N,VDD*%
X71390000Y-116559428D02*
X71390000Y-117976677D01*
D53*
X76508750Y-116448750D02*
X76717500Y-116240000D01*
D52*
X72622968Y-119209645D02*
X72829645Y-119209645D01*
X78130000Y-108817500D02*
X78130000Y-107120000D01*
D51*
X73475000Y-123005000D02*
X73290000Y-122820000D01*
D52*
%TO.N,VDD_sensor*%
X104720000Y-123710000D02*
X104720000Y-123350000D01*
D49*
%TO.N,VDD*%
X79550000Y-115100000D02*
X80510000Y-115100000D01*
D52*
X71659428Y-116290000D02*
X71390000Y-116559428D01*
D51*
X69906000Y-123523344D02*
X69906000Y-124559305D01*
X73290000Y-119450000D02*
X73270000Y-119430000D01*
D53*
X60720000Y-129570000D02*
X61050000Y-129240000D01*
D49*
X71098572Y-104877500D02*
X71100572Y-104875500D01*
%TO.N,VDD_sensor*%
X104182500Y-121610000D02*
X103581250Y-122211250D01*
D50*
%TO.N,VDD*%
X77227999Y-109742001D02*
X77690000Y-109280000D01*
D51*
X95995000Y-123225000D02*
X91960075Y-123225000D01*
D53*
X52430000Y-128601371D02*
X53398629Y-129570000D01*
X53398629Y-129570000D02*
X60720000Y-129570000D01*
D49*
%TO.N,VDD_sensor*%
X105520000Y-128262500D02*
X105500000Y-128282500D01*
%TO.N,VDD*%
X80847500Y-109517500D02*
X80850000Y-109520000D01*
D52*
X78320000Y-105690000D02*
X79140000Y-104870000D01*
D51*
X69906000Y-124559305D02*
X65225305Y-129240000D01*
D49*
X82237500Y-115100000D02*
X80510000Y-115100000D01*
D52*
%TO.N,GND*%
X70852500Y-100670000D02*
X70852500Y-101597500D01*
D49*
X72980000Y-117487500D02*
X72990000Y-117497500D01*
X53700000Y-126585000D02*
X53700000Y-128740000D01*
D55*
X62822000Y-112502000D02*
X62255428Y-112502000D01*
D49*
X87837500Y-120857500D02*
X87850000Y-120870000D01*
X104720000Y-126110000D02*
X104720000Y-125680000D01*
D53*
X78830000Y-108382500D02*
X78830000Y-107430000D01*
X80530000Y-113375000D02*
X81457500Y-113375000D01*
D49*
X64316500Y-116163500D02*
X64330000Y-116150000D01*
D51*
X54290000Y-116730000D02*
X54290000Y-115980000D01*
D52*
X90330000Y-127480000D02*
X90350000Y-127460000D01*
D53*
X59902000Y-109302000D02*
X59880000Y-109280000D01*
D52*
X81392500Y-116235000D02*
X81420000Y-116207500D01*
X73370513Y-117477500D02*
X73150000Y-117477500D01*
D53*
X79870000Y-107430000D02*
X79860000Y-107420000D01*
D52*
X87967500Y-104667500D02*
X88390000Y-105090000D01*
D49*
X103020000Y-129427500D02*
X101847500Y-129427500D01*
D51*
X56704428Y-119382000D02*
X58084428Y-119382000D01*
D52*
X63244024Y-112936000D02*
X64509428Y-112936000D01*
D55*
X63154012Y-112845988D02*
X63154012Y-112834012D01*
D52*
X65114428Y-114924428D02*
X65120000Y-114930000D01*
D53*
X82380000Y-110877500D02*
X81507500Y-110877500D01*
D49*
X108050000Y-126110000D02*
X108080000Y-126080000D01*
D52*
X76630000Y-107370000D02*
X76361428Y-107638572D01*
D53*
X61000428Y-110802000D02*
X59862000Y-110802000D01*
X58500000Y-114760000D02*
X58490000Y-114750000D01*
D49*
X58707500Y-128700000D02*
X59700000Y-128700000D01*
D53*
X59862000Y-110802000D02*
X59860000Y-110800000D01*
D51*
X107320000Y-118700000D02*
X105380000Y-118700000D01*
X53010000Y-108210000D02*
X53010000Y-108960000D01*
X66402500Y-118162500D02*
X65115000Y-119450000D01*
D53*
X61000428Y-109302000D02*
X59902000Y-109302000D01*
D49*
X82267500Y-120867500D02*
X82220000Y-120820000D01*
X72040000Y-117487500D02*
X72980000Y-117487500D01*
D52*
X97360000Y-115130000D02*
X97360000Y-115720000D01*
D51*
X51029428Y-103390000D02*
X53279428Y-103390000D01*
X63309428Y-103400000D02*
X60709428Y-103400000D01*
D52*
X73655000Y-117193013D02*
X73370513Y-117477500D01*
D53*
X66439500Y-116909500D02*
X66410000Y-116880000D01*
X81457500Y-113375000D02*
X81460000Y-113377500D01*
D49*
X83180000Y-120867500D02*
X82267500Y-120867500D01*
D52*
X89500000Y-104085488D02*
X89630488Y-103955000D01*
D51*
X53254428Y-119382000D02*
X55804428Y-119382000D01*
D52*
X76361428Y-107638572D02*
X76361428Y-108742000D01*
X71170000Y-120080000D02*
X71170000Y-119546979D01*
D49*
X105500000Y-129417500D02*
X106662500Y-129417500D01*
D51*
X51029428Y-105140000D02*
X51029428Y-107140000D01*
D49*
X106320000Y-126110000D02*
X108050000Y-126110000D01*
D51*
X55829428Y-103390000D02*
X56729428Y-103390000D01*
D52*
X70609428Y-102830572D02*
X70610000Y-102830000D01*
D51*
X53040000Y-116730000D02*
X53040000Y-115980000D01*
D53*
X81507500Y-110877500D02*
X81480000Y-110850000D01*
D52*
X68552500Y-129032500D02*
X67502500Y-129032500D01*
D49*
X103290000Y-101260000D02*
X102320000Y-101260000D01*
D52*
X65114428Y-113776000D02*
X65114428Y-114924428D01*
D53*
X69500000Y-121460000D02*
X69480000Y-121440000D01*
D52*
X63154012Y-112845988D02*
X63244024Y-112936000D01*
D53*
X58490000Y-114750000D02*
X58490000Y-113637500D01*
D52*
X70160000Y-103742500D02*
X70160000Y-102798572D01*
D53*
X80000000Y-114217500D02*
X79610000Y-113827500D01*
D52*
X97860000Y-115130000D02*
X97860000Y-116320000D01*
X71100572Y-103740500D02*
X71100572Y-102768000D01*
D51*
X55804428Y-119382000D02*
X56704428Y-119382000D01*
D52*
X91610000Y-104717500D02*
X92582500Y-104717500D01*
D53*
X60002500Y-116150000D02*
X58850000Y-116150000D01*
X68610000Y-117870000D02*
X69189428Y-117290572D01*
D49*
X93582500Y-110350000D02*
X93582500Y-109477500D01*
D52*
X71170000Y-119546979D02*
X71345411Y-119371568D01*
D49*
X97360000Y-105480000D02*
X97350000Y-105470000D01*
X54970000Y-126585000D02*
X54970000Y-128760000D01*
D51*
X51004428Y-119382000D02*
X51004428Y-117632000D01*
D53*
X67289428Y-116909500D02*
X66439500Y-116909500D01*
D52*
X79550000Y-116235000D02*
X79550000Y-116247500D01*
D49*
X103920000Y-123710000D02*
X103920000Y-124720000D01*
D51*
X51029428Y-103390000D02*
X51029428Y-105140000D01*
D53*
X70149428Y-118699500D02*
X69299500Y-118699500D01*
D52*
X89500000Y-104707500D02*
X89500000Y-104085488D01*
D49*
X89837500Y-128340000D02*
X90970000Y-128340000D01*
D52*
X87330000Y-104667500D02*
X87967500Y-104667500D01*
D49*
X103920000Y-124720000D02*
X103900000Y-124740000D01*
D53*
X69080000Y-121480000D02*
X66910000Y-119310000D01*
D52*
X70852500Y-101597500D02*
X70850000Y-101600000D01*
D51*
X65619428Y-103400000D02*
X63319428Y-103400000D01*
X54260000Y-108210000D02*
X54260000Y-108960000D01*
D53*
X69189428Y-117290572D02*
X69189428Y-116969500D01*
D51*
X51790000Y-116730000D02*
X51790000Y-115980000D01*
D53*
X80850000Y-108385000D02*
X80850000Y-107430000D01*
X55310000Y-114170000D02*
X55900000Y-114760000D01*
D55*
X63154012Y-112834012D02*
X62822000Y-112502000D01*
D52*
X79550000Y-116247500D02*
X80515214Y-117212714D01*
D53*
X55310000Y-113637500D02*
X55310000Y-114170000D01*
D52*
X92582500Y-104717500D02*
X92610000Y-104690000D01*
D51*
X56729428Y-103390000D02*
X60699428Y-103390000D01*
X51004428Y-119382000D02*
X53254428Y-119382000D01*
D52*
X89332500Y-127480000D02*
X90330000Y-127480000D01*
D49*
X64172500Y-101010000D02*
X63090000Y-101010000D01*
D52*
X80510000Y-116235000D02*
X81392500Y-116235000D01*
D53*
X80850000Y-107430000D02*
X80840000Y-107420000D01*
D49*
X53700000Y-128740000D02*
X53730000Y-128770000D01*
D52*
X72954339Y-118224339D02*
X72954339Y-118409645D01*
D49*
X86900000Y-120857500D02*
X87837500Y-120857500D01*
D52*
X72200000Y-117470000D02*
X72954339Y-118224339D01*
D53*
X79870000Y-108402500D02*
X79870000Y-107430000D01*
D49*
X104720000Y-125680000D02*
X105340000Y-125060000D01*
X93582500Y-109477500D02*
X93590000Y-109470000D01*
X63376928Y-116163500D02*
X64316500Y-116163500D01*
D53*
X81470000Y-114217500D02*
X80000000Y-114217500D01*
X69299500Y-118699500D02*
X69260000Y-118660000D01*
D49*
X92710000Y-114167500D02*
X92710000Y-115110000D01*
D52*
X67502500Y-129032500D02*
X67500000Y-129030000D01*
D51*
X63210000Y-119400000D02*
X63260000Y-119450000D01*
D49*
X90970000Y-128340000D02*
X90980000Y-128330000D01*
D51*
X51760000Y-108210000D02*
X51760000Y-108960000D01*
D53*
X70070000Y-121480000D02*
X69080000Y-121480000D01*
D51*
X105380000Y-118700000D02*
X105360000Y-118720000D01*
D49*
X97360000Y-106522500D02*
X97360000Y-105480000D01*
D51*
X65619428Y-103400000D02*
X68004714Y-105785286D01*
X53279428Y-103390000D02*
X55829428Y-103390000D01*
D49*
X101847500Y-129427500D02*
X101830000Y-129410000D01*
D52*
X97360000Y-115720000D02*
X96770000Y-116310000D01*
D51*
X57129428Y-119382000D02*
X61099428Y-119382000D01*
D49*
X54970000Y-128760000D02*
X54980000Y-128770000D01*
D52*
X72250000Y-117277500D02*
X72250000Y-117280000D01*
D49*
X106662500Y-129417500D02*
X106680000Y-129400000D01*
D51*
X63260000Y-119450000D02*
X65115000Y-119450000D01*
D53*
X79610000Y-113827500D02*
X79610000Y-113375000D01*
D49*
%TO.N,VDDA*%
X80532500Y-112242500D02*
X80530000Y-112240000D01*
D52*
X79247500Y-112240000D02*
X79610000Y-112240000D01*
D49*
X82950000Y-112242500D02*
X80532500Y-112242500D01*
D52*
X77656394Y-112242001D02*
X77756396Y-112141999D01*
X76361428Y-112242001D02*
X77656394Y-112242001D01*
X79499499Y-112129499D02*
X79610000Y-112240000D01*
D49*
X79610000Y-112240000D02*
X80530000Y-112240000D01*
D52*
X79599501Y-112229501D02*
X79610000Y-112240000D01*
X79149499Y-112141999D02*
X79247500Y-112240000D01*
X77756396Y-112141999D02*
X79149499Y-112141999D01*
D49*
%TO.N,PC15-OSC32_IN*%
X84330000Y-119730000D02*
X83182500Y-119730000D01*
X84330000Y-119730000D02*
X84330000Y-118370000D01*
D55*
X77561910Y-113416999D02*
X77386910Y-113241999D01*
X77386910Y-113241999D02*
X76361428Y-113241999D01*
D49*
X83182500Y-119730000D02*
X83180000Y-119732500D01*
%TO.N,PC14-OSC32_OUT*%
X85730000Y-119730000D02*
X85730000Y-118390000D01*
D55*
X85730000Y-118390000D02*
X85035000Y-117695000D01*
D49*
X85737500Y-119722500D02*
X85730000Y-119730000D01*
X86900000Y-119722500D02*
X85737500Y-119722500D01*
D55*
X78330000Y-112841999D02*
X78230001Y-112742000D01*
X78230001Y-112742000D02*
X76361428Y-112742000D01*
D52*
%TO.N,VDDRF1V55*%
X81642762Y-109742500D02*
X82380000Y-109742500D01*
X72990000Y-116280000D02*
X72990000Y-116362500D01*
D55*
X74330000Y-116710000D02*
X73820000Y-116200000D01*
D49*
X82400000Y-108420000D02*
X82400000Y-109722500D01*
D55*
X77894442Y-109959442D02*
X77611884Y-110242000D01*
D52*
X81197762Y-110187500D02*
X81642762Y-109742500D01*
D55*
X74330000Y-121560000D02*
X74330000Y-116710000D01*
D52*
X72159427Y-115449427D02*
X72990000Y-116280000D01*
X70159428Y-117554500D02*
X70149428Y-117564500D01*
X80332500Y-110187500D02*
X81197762Y-110187500D01*
D49*
X82400000Y-109722500D02*
X82380000Y-109742500D01*
D55*
X77611884Y-110242000D02*
X76361428Y-110242000D01*
D52*
X79800000Y-110720000D02*
X80332500Y-110187500D01*
X72159427Y-114944000D02*
X72159427Y-115449427D01*
X73657500Y-116362500D02*
X73820000Y-116200000D01*
X72990000Y-116362500D02*
X73657500Y-116362500D01*
X70159428Y-114944000D02*
X70159428Y-117554500D01*
%TO.N,VR_PA*%
X67295928Y-115781000D02*
X67289428Y-115774500D01*
X69189428Y-115834500D02*
X68307928Y-115834500D01*
X69189428Y-114510000D02*
X69457428Y-114242000D01*
X69189428Y-115834500D02*
X69189428Y-114510000D01*
X68307928Y-115834500D02*
X68254428Y-115781000D01*
X68254428Y-115781000D02*
X67295928Y-115781000D01*
D56*
%TO.N,RFI_P*%
X66653428Y-112096000D02*
X66799429Y-112242001D01*
X66799429Y-112242001D02*
X69457428Y-112242001D01*
X65889428Y-112096000D02*
X66653428Y-112096000D01*
D49*
%TO.N,/SMA2*%
X58487500Y-112500000D02*
X58490000Y-112502500D01*
X59472500Y-112500000D02*
X58492500Y-112500000D01*
X58492500Y-112500000D02*
X58490000Y-112502500D01*
X57482500Y-112500000D02*
X58487500Y-112500000D01*
D55*
%TO.N,/SMA3*%
X61855428Y-112502000D02*
X60609500Y-112502000D01*
X60609500Y-112502000D02*
X60607500Y-112500000D01*
D52*
%TO.N,NRST*%
X69780705Y-128030000D02*
X69220000Y-128030000D01*
D53*
X57510000Y-122515000D02*
X57510000Y-122515012D01*
D55*
X68942000Y-111242000D02*
X68480000Y-110780000D01*
D52*
X71309999Y-125940001D02*
X71309999Y-126500706D01*
X71309999Y-124104900D02*
X71309999Y-125940001D01*
X71309999Y-124104900D02*
X77810001Y-124104900D01*
D55*
X69457428Y-111242000D02*
X68942000Y-111242000D01*
D52*
X69220000Y-128030000D02*
X69220000Y-128990000D01*
X69220000Y-128990000D02*
X69177500Y-129032500D01*
X71309999Y-126500706D02*
X69780705Y-128030000D01*
D56*
%TO.N,RFI_N*%
X65889428Y-112726000D02*
X69441428Y-112726000D01*
X69441428Y-112726000D02*
X69457428Y-112742000D01*
D52*
%TO.N,/Button1*%
X88707500Y-128335000D02*
X88702500Y-128340000D01*
X88554872Y-124134900D02*
X89330000Y-124910028D01*
X86720001Y-124134900D02*
X88554872Y-124134900D01*
X80219999Y-124134900D02*
X86720001Y-124134900D01*
X86720001Y-124134900D02*
X86720001Y-124507501D01*
X89330000Y-125877500D02*
X88710000Y-126497500D01*
X88707500Y-127480000D02*
X88707500Y-128335000D01*
X88710000Y-126497500D02*
X88710000Y-127477500D01*
X88710000Y-127477500D02*
X88707500Y-127480000D01*
X89330000Y-124910028D02*
X89330000Y-125877500D01*
D49*
%TO.N,/SMA1*%
X55310000Y-112502500D02*
X52519928Y-112502500D01*
X56335000Y-112502500D02*
X56337500Y-112500000D01*
X55310000Y-112502500D02*
X56335000Y-112502500D01*
X52519928Y-112502500D02*
X52457428Y-112440000D01*
%TO.N,/LED1*%
X68557500Y-100670000D02*
X69707500Y-100670000D01*
D50*
%TO.N,LPUART_TX*%
X58780000Y-122515000D02*
X63853103Y-122515000D01*
X71659428Y-107031205D02*
X71659428Y-108040000D01*
X71784429Y-106906204D02*
X71659428Y-107031205D01*
X63853103Y-122515000D02*
X65126705Y-123788602D01*
%TO.N,LPUART_RX*%
X58780000Y-126585000D02*
X60615000Y-124750000D01*
X62360000Y-124750000D02*
X63560000Y-123550000D01*
X70860000Y-106080000D02*
X71159429Y-106379429D01*
X60615000Y-124750000D02*
X62360000Y-124750000D01*
X71159429Y-106379429D02*
X71159429Y-108040000D01*
D49*
%TO.N,/GNDDetect*%
X57512500Y-126587500D02*
X57510000Y-126585000D01*
X57512500Y-128700000D02*
X57512500Y-126587500D01*
D50*
%TO.N,SWO*%
X75659428Y-107456688D02*
X76526116Y-106590000D01*
X61680000Y-120720000D02*
X55740000Y-120720000D01*
X64320000Y-121860000D02*
X62820000Y-121860000D01*
X54970000Y-121490000D02*
X54970000Y-122515000D01*
X76526116Y-106590000D02*
X77500000Y-106590000D01*
X62820000Y-121860000D02*
X61680000Y-120720000D01*
X55740000Y-120720000D02*
X54970000Y-121490000D01*
X66170000Y-123710000D02*
X64320000Y-121860000D01*
X75659428Y-108040000D02*
X75659428Y-107456688D01*
D52*
%TO.N,SWCLK*%
X66940992Y-123296485D02*
X66940992Y-123405278D01*
X77820000Y-111441999D02*
X77519999Y-111742000D01*
D50*
X54770000Y-120420000D02*
X61804264Y-120420000D01*
X53700000Y-122515000D02*
X53700000Y-121490000D01*
D52*
X77519999Y-111742000D02*
X76361428Y-111742000D01*
X77890000Y-111511999D02*
X77890000Y-111590000D01*
D50*
X62804264Y-121420000D02*
X64955714Y-121420000D01*
X64955714Y-121420000D02*
X67135510Y-123599796D01*
D52*
X66940992Y-123405278D02*
X67135510Y-123599796D01*
D50*
X61804264Y-120420000D02*
X62804264Y-121420000D01*
X53700000Y-121490000D02*
X54770000Y-120420000D01*
%TO.N,SWDIO*%
X74272999Y-115572999D02*
X74680000Y-115980000D01*
X73659429Y-115497999D02*
X73734429Y-115572999D01*
X65599810Y-120930000D02*
X67885919Y-123216109D01*
X53800000Y-120120000D02*
X61928528Y-120120000D01*
X67885919Y-123216109D02*
X68112900Y-123216109D01*
X73659429Y-114944000D02*
X73659429Y-115497999D01*
X62738528Y-120930000D02*
X65599810Y-120930000D01*
X75300000Y-121130000D02*
X75300000Y-121550000D01*
X61928528Y-120120000D02*
X62738528Y-120930000D01*
X74680000Y-120510000D02*
X75300000Y-121130000D01*
X52430000Y-122515000D02*
X52430000Y-121490000D01*
X74680000Y-115980000D02*
X74680000Y-120510000D01*
X52430000Y-121490000D02*
X53800000Y-120120000D01*
X73734429Y-115572999D02*
X74272999Y-115572999D01*
D51*
%TO.N,/BAL*%
X107320000Y-110680000D02*
X107320000Y-113700000D01*
D54*
%TO.N,CFG_2*%
X94199908Y-113882500D02*
X93680000Y-113882500D01*
D49*
X91610000Y-108037500D02*
X91600000Y-108047500D01*
D54*
X91610000Y-106542500D02*
X92532500Y-106542500D01*
X92532500Y-106542500D02*
X92870000Y-106880000D01*
D49*
X91610000Y-106542500D02*
X91610000Y-107280000D01*
D54*
X95312408Y-112770000D02*
X94199908Y-113882500D01*
D49*
X91610000Y-107280000D02*
X91610000Y-108037500D01*
D54*
X96000000Y-112770000D02*
X95312408Y-112770000D01*
%TO.N,CFG_1*%
X95346744Y-113270000D02*
X93662924Y-114953820D01*
X96000000Y-113270000D02*
X95346744Y-113270000D01*
D49*
X89500000Y-107310000D02*
X89500000Y-108037500D01*
X89500000Y-106532500D02*
X89500000Y-107310000D01*
D54*
X90540000Y-110110000D02*
X90540000Y-108350000D01*
X90540000Y-108350000D02*
X89500000Y-107310000D01*
D49*
X89500000Y-108037500D02*
X89510000Y-108047500D01*
%TO.N,CFG_0*%
X87330000Y-108027500D02*
X87340000Y-108037500D01*
D54*
X96000000Y-113770000D02*
X95495000Y-113770000D01*
X94600000Y-114665000D02*
X94600000Y-115110000D01*
X95495000Y-113770000D02*
X94600000Y-114665000D01*
D49*
X87330000Y-107210000D02*
X87330000Y-108027500D01*
X87330000Y-107210000D02*
X86840000Y-107210000D01*
X87330000Y-106492500D02*
X87330000Y-107210000D01*
%TO.N,BATT2*%
X105107500Y-101260000D02*
X105730000Y-101260000D01*
X104485000Y-101260000D02*
X105107500Y-101260000D01*
%TO.N,BATT_MCU*%
X78232500Y-119260000D02*
X79752500Y-119260000D01*
X79752500Y-119260000D02*
X79760000Y-119267500D01*
D52*
X75430000Y-120070000D02*
X75430000Y-116550000D01*
X78232500Y-120387500D02*
X77990000Y-120630000D01*
X75990000Y-120630000D02*
X75430000Y-120070000D01*
X77990000Y-120630000D02*
X75990000Y-120630000D01*
X76361428Y-115618572D02*
X76361428Y-114242000D01*
X75430000Y-116550000D02*
X76361428Y-115618572D01*
X78232500Y-119260000D02*
X78232500Y-120387500D01*
D55*
%TO.N,/BOOT0_MCU*%
X67567823Y-110822418D02*
X68487405Y-111742000D01*
X67567823Y-110514599D02*
X67567823Y-110822418D01*
X68879600Y-104522100D02*
X65367500Y-101010000D01*
X67560000Y-108914600D02*
X68879600Y-107595000D01*
X68879600Y-107595000D02*
X68879600Y-104522100D01*
X68487405Y-111742000D02*
X69457428Y-111742000D01*
D52*
%TO.N,SCL*%
X106320000Y-121922500D02*
X106642500Y-121600000D01*
X106320000Y-123710000D02*
X106320000Y-121922500D01*
%TO.N,SDA*%
X105520000Y-121752500D02*
X105377500Y-121610000D01*
D54*
X106070000Y-120690000D02*
X106070000Y-120917500D01*
D52*
X105520000Y-123710000D02*
X105520000Y-121752500D01*
D54*
X106070000Y-120917500D02*
X105377500Y-121610000D01*
D52*
%TO.N,VLCSMPS*%
X77430000Y-108660000D02*
X77430000Y-108804827D01*
X79020000Y-106120000D02*
X82400000Y-106120000D01*
X77430000Y-108804827D02*
X76992828Y-109241999D01*
X76992828Y-109241999D02*
X76361428Y-109241999D01*
%TO.N,RFO_LP*%
X68440929Y-113241999D02*
X69457428Y-113241999D01*
X68246928Y-114628500D02*
X68254428Y-114636000D01*
X68246928Y-113436000D02*
X68246928Y-114628500D01*
X68246928Y-113436000D02*
X68440929Y-113241999D01*
%TO.N,RFIO_SEL*%
X66831702Y-120450000D02*
X68858949Y-122477247D01*
X76361428Y-113742001D02*
X76896962Y-113742001D01*
X62788858Y-120450000D02*
X66831702Y-120450000D01*
X62250000Y-118357500D02*
X62250000Y-119911142D01*
X62250000Y-119911142D02*
X62788858Y-120450000D01*
X76896962Y-113742001D02*
X77080000Y-113925039D01*
X77080000Y-113925039D02*
X77080000Y-115310000D01*
D55*
%TO.N,LED*%
X69279600Y-102587100D02*
X67362500Y-100670000D01*
X69279600Y-108564172D02*
X69279600Y-102587100D01*
X69457428Y-108742000D02*
X69279600Y-108564172D01*
D50*
%TO.N,BTN1*%
X74659427Y-115497999D02*
X75034866Y-115873438D01*
X76266948Y-121516948D02*
X76726037Y-121516948D01*
X75034866Y-115873438D02*
X75034866Y-120284866D01*
X88710000Y-125302500D02*
X75712500Y-125302500D01*
X75712500Y-125302500D02*
X75220000Y-124810000D01*
X74659427Y-114944000D02*
X74659427Y-115497999D01*
X75034866Y-120284866D02*
X76266948Y-121516948D01*
%TO.N,OSC_IN*%
X70258000Y-119292000D02*
X70070000Y-119480000D01*
X70659427Y-114944000D02*
X70684428Y-114969001D01*
X70466124Y-119292000D02*
X70258000Y-119292000D01*
X70684428Y-114969001D02*
X70684428Y-119073696D01*
X70684428Y-119073696D02*
X70466124Y-119292000D01*
X70070000Y-119480000D02*
X70070000Y-120080000D01*
%TO.N,OSC_OUT*%
X72174714Y-119291721D02*
X72174714Y-120425286D01*
X72174714Y-120425286D02*
X71170000Y-121430000D01*
X70984428Y-118101435D02*
X72174714Y-119291721D01*
X71159429Y-115397998D02*
X70984428Y-115572999D01*
X70984428Y-115572999D02*
X70984428Y-118101435D01*
X71159429Y-114944000D02*
X71159429Y-115397998D01*
X71170000Y-121430000D02*
X71170000Y-121480000D01*
D52*
%TO.N,VinAEM*%
X98090000Y-109690000D02*
X98090000Y-110410000D01*
X98460000Y-109320000D02*
X98090000Y-109690000D01*
X98460000Y-109320000D02*
X97860000Y-109920000D01*
X98460000Y-109320000D02*
X98360000Y-109420000D01*
X97860000Y-109920000D02*
X97860000Y-110410000D01*
X98360000Y-109420000D02*
X98360000Y-110410000D01*
D49*
X98460000Y-109320000D02*
X100005000Y-107775000D01*
D52*
X98090000Y-110410000D02*
X98360000Y-110410000D01*
D49*
X100005000Y-107775000D02*
X100005000Y-106530000D01*
D52*
X97860000Y-110410000D02*
X98090000Y-110410000D01*
D49*
%TO.N,/BUCK*%
X92705000Y-111770000D02*
X92217500Y-111282500D01*
X90980000Y-110990000D02*
X90950000Y-110960000D01*
X92705000Y-113027500D02*
X92710000Y-113032500D01*
X89190000Y-111120000D02*
X89190000Y-112037500D01*
X89510000Y-110800000D02*
X89350000Y-110960000D01*
X90950000Y-110960000D02*
X89350000Y-110960000D01*
X87340000Y-110120000D02*
X87340000Y-109862500D01*
X92710000Y-113032500D02*
X94022500Y-113032500D01*
X92705000Y-111770000D02*
X92705000Y-113027500D01*
X99860000Y-110410000D02*
X99860000Y-109170000D01*
X99860000Y-109170000D02*
X100080000Y-108950000D01*
X89350000Y-110960000D02*
X88180000Y-110960000D01*
X92217500Y-111282500D02*
X91895000Y-110960000D01*
X88180000Y-110960000D02*
X87340000Y-110120000D01*
X100080000Y-108950000D02*
X98960000Y-110070000D01*
X99360000Y-109670000D02*
X99860000Y-109170000D01*
X89510000Y-109872500D02*
X89510000Y-110800000D01*
X96500000Y-107500000D02*
X94357918Y-107500000D01*
X94357918Y-107500000D02*
X92217500Y-109640418D01*
X89350000Y-110960000D02*
X89190000Y-111120000D01*
D52*
X95246722Y-112270000D02*
X94821722Y-112695000D01*
X96000000Y-112270000D02*
X95246722Y-112270000D01*
D49*
X99360000Y-110410000D02*
X99360000Y-109670000D01*
X91895000Y-110960000D02*
X90950000Y-110960000D01*
X92217500Y-109640418D02*
X92217500Y-111282500D01*
D52*
X94821722Y-112695000D02*
X94360000Y-112695000D01*
D49*
X98960000Y-110070000D02*
X98960000Y-110410000D01*
X90980000Y-112067500D02*
X90980000Y-110990000D01*
X94022500Y-113032500D02*
X94360000Y-112695000D01*
%TO.N,/BOOST*%
X95180000Y-110350000D02*
X96000000Y-111170000D01*
X94717500Y-110350000D02*
X95180000Y-110350000D01*
%TO.N,Net-(U5-BUFSRC)*%
X97360000Y-107657500D02*
X97360000Y-108910000D01*
D52*
X97360000Y-110410000D02*
X97360000Y-108910000D01*
D49*
%TO.N,VoutAEM*%
X95995000Y-120685000D02*
X93682500Y-120685000D01*
X93682500Y-120685000D02*
X93680000Y-120687500D01*
%TO.N,SELMPP0*%
X89190000Y-115327500D02*
X89170000Y-115347500D01*
X89190000Y-113862500D02*
X89190000Y-115327500D01*
%TO.N,SELMPP1*%
X90980000Y-114550000D02*
X90980000Y-115367500D01*
D52*
X91977500Y-115367500D02*
X90980000Y-115367500D01*
X95510000Y-115810000D02*
X92420000Y-115810000D01*
X92420000Y-115810000D02*
X91977500Y-115367500D01*
X96000000Y-115320000D02*
X95510000Y-115810000D01*
X96000000Y-114270000D02*
X96000000Y-115320000D01*
D49*
X90980000Y-113892500D02*
X90980000Y-114550000D01*
D52*
%TO.N,Net-(U4-RFO_IN)*%
X65889428Y-113436000D02*
X67111928Y-113436000D01*
%TO.N,Net-(U5-SWBUCK)*%
X96000000Y-111770000D02*
X94455000Y-111770000D01*
%TO.N,Net-(U5-SWBOOST)*%
X96860000Y-110410000D02*
X96860000Y-110160000D01*
D49*
X95610000Y-108910000D02*
X95610000Y-109280000D01*
X95610000Y-109280000D02*
X96740000Y-110410000D01*
X96740000Y-110410000D02*
X96760000Y-110410000D01*
D50*
%TO.N,STATUS_0*%
X80150000Y-102520000D02*
X81010000Y-102520000D01*
X75159429Y-107510571D02*
X80150000Y-102520000D01*
X75159429Y-108040000D02*
X75159429Y-107510571D01*
X81130000Y-102400000D02*
X81130000Y-102270000D01*
%TO.N,STATUS_1*%
X86110000Y-100950000D02*
X79150000Y-100950000D01*
X86110000Y-101187917D02*
X86110000Y-100950000D01*
X74659427Y-107586309D02*
X77880000Y-104365736D01*
X74659427Y-108040000D02*
X74659427Y-107586309D01*
X77880000Y-104365736D02*
X77880000Y-102220000D01*
X79150000Y-100950000D02*
X77880000Y-102220000D01*
X86067917Y-101230000D02*
X86110000Y-101187917D01*
D55*
%TO.N,VDD_RF*%
X62135428Y-111054572D02*
X62135428Y-110802000D01*
D53*
X62132500Y-108050000D02*
X62132500Y-109299072D01*
D55*
X61855428Y-112102000D02*
X61855428Y-111334572D01*
D53*
X62135428Y-109302000D02*
X62135428Y-110802000D01*
D55*
X61855428Y-111334572D02*
X62135428Y-111054572D01*
D53*
X62132500Y-109299072D02*
X62135428Y-109302000D01*
D55*
%TO.N,RF2*%
X63129428Y-113776000D02*
X64509428Y-113776000D01*
X62255428Y-112902000D02*
X63129428Y-113776000D01*
D49*
%TO.N,/BGS12WN6_CTRL*%
X62228428Y-116150000D02*
X62241928Y-116163500D01*
X61660000Y-114180000D02*
X61650000Y-114170000D01*
X62250000Y-116171572D02*
X62241928Y-116163500D01*
X61660000Y-116150000D02*
X62228428Y-116150000D01*
D55*
X61855428Y-112902000D02*
X61855428Y-113964572D01*
D49*
X62250000Y-117162500D02*
X62250000Y-116171572D01*
X61137500Y-116150000D02*
X61660000Y-116150000D01*
D55*
X61855428Y-113964572D02*
X61650000Y-114170000D01*
D49*
X61660000Y-116150000D02*
X61660000Y-114180000D01*
D53*
%TO.N,DRIVE_RF*%
X63327500Y-108144072D02*
X64898028Y-109714600D01*
X63327500Y-108050000D02*
X63327500Y-108144072D01*
D52*
X69457428Y-109742001D02*
X68752001Y-109742001D01*
X68752001Y-109742001D02*
X68724600Y-109714600D01*
D53*
X64898028Y-109714600D02*
X68724600Y-109714600D01*
D55*
%TO.N,RF1*%
X64503428Y-112102000D02*
X64509428Y-112096000D01*
X62255428Y-112102000D02*
X64503428Y-112102000D01*
D52*
%TO.N,GND*%
X88762500Y-117172500D02*
X89170000Y-117172500D01*
X88030000Y-116440000D02*
X88762500Y-117172500D01*
D51*
%TO.N,VDD*%
X84300000Y-115564925D02*
X84300000Y-113944925D01*
X91335075Y-122600000D02*
X84300000Y-115564925D01*
D55*
%TO.N,PC15-OSC32_IN*%
X84130000Y-118170000D02*
X84330000Y-118370000D01*
%TO.N,PC14-OSC32_OUT*%
X78637995Y-117695000D02*
X78367779Y-117424784D01*
X85035000Y-117695000D02*
X78637995Y-117695000D01*
%TO.N,PC15-OSC32_IN*%
X78016976Y-118170000D02*
X84130000Y-118170000D01*
X77327419Y-117480443D02*
X78016976Y-118170000D01*
X77327419Y-117282811D02*
X77327419Y-117480443D01*
D49*
%TO.N,BATT2*%
X81790001Y-118939999D02*
X79760000Y-120970000D01*
X79760000Y-120970000D02*
X79760000Y-121092500D01*
%TO.N,GND*%
X69885115Y-126065115D02*
X69885115Y-126229885D01*
X69885115Y-126229885D02*
X69220000Y-126895000D01*
%TO.N,VDD_sensor*%
X103020000Y-126200000D02*
X103020000Y-128292500D01*
X102930000Y-126110000D02*
X103020000Y-126200000D01*
%TD*%
%TA.AperFunction,Conductor*%
%TO.N,VDD*%
G36*
X89160479Y-120176613D02*
G01*
X89205620Y-120202675D01*
X89265128Y-120237032D01*
X89419889Y-120278500D01*
X89419890Y-120278500D01*
X89419891Y-120278500D01*
X91770109Y-120278500D01*
X91770110Y-120278500D01*
X91770111Y-120278500D01*
X91847491Y-120257766D01*
X91924873Y-120237032D01*
X92004370Y-120191134D01*
X92029522Y-120176613D01*
X92091522Y-120160000D01*
X92759670Y-120160000D01*
X92826709Y-120179685D01*
X92872464Y-120232489D01*
X92882408Y-120301647D01*
X92878055Y-120320890D01*
X92867575Y-120354520D01*
X92861500Y-120421378D01*
X92861500Y-120953632D01*
X92867573Y-121020471D01*
X92867575Y-121020478D01*
X92915508Y-121174303D01*
X92915510Y-121174306D01*
X92915511Y-121174309D01*
X92952116Y-121234861D01*
X92970000Y-121299011D01*
X92970000Y-121640000D01*
X93020000Y-121690000D01*
X93836000Y-121690000D01*
X93903039Y-121709685D01*
X93948794Y-121762489D01*
X93960000Y-121814000D01*
X93960000Y-124798638D01*
X93940315Y-124865677D01*
X93923681Y-124886319D01*
X93866319Y-124943681D01*
X93804996Y-124977166D01*
X93778638Y-124980000D01*
X90301362Y-124980000D01*
X90234323Y-124960315D01*
X90213681Y-124943681D01*
X89963130Y-124693130D01*
X89936251Y-124652903D01*
X89915887Y-124603742D01*
X89914237Y-124599133D01*
X89913555Y-124598112D01*
X89913555Y-124598111D01*
X89884528Y-124554669D01*
X89841491Y-124490259D01*
X89841489Y-124490256D01*
X88974643Y-123623410D01*
X88866786Y-123551343D01*
X88811997Y-123528649D01*
X88771769Y-123501769D01*
X88560000Y-123290000D01*
X88521362Y-123290000D01*
X88454323Y-123270315D01*
X88433681Y-123253681D01*
X88416319Y-123236319D01*
X88382834Y-123174996D01*
X88380000Y-123148638D01*
X88380000Y-121671080D01*
X88399685Y-121604041D01*
X88431113Y-121570763D01*
X88461253Y-121548866D01*
X88589040Y-121406944D01*
X88684527Y-121241556D01*
X88743542Y-121059928D01*
X88763504Y-120870000D01*
X88743542Y-120680072D01*
X88684527Y-120498444D01*
X88640031Y-120421375D01*
X88596514Y-120346000D01*
X88580041Y-120278099D01*
X88602894Y-120212073D01*
X88657815Y-120168882D01*
X88703901Y-120160000D01*
X89098479Y-120160000D01*
X89160479Y-120176613D01*
G37*
%TD.AperFunction*%
%TD*%
%TA.AperFunction,Conductor*%
%TO.N,VDD*%
G36*
X84613236Y-114298230D02*
G01*
X84680161Y-114318288D01*
X84725620Y-114371347D01*
X84735861Y-114435186D01*
X84731496Y-114476724D01*
X84731496Y-114476726D01*
X84751458Y-114666654D01*
X84751459Y-114666657D01*
X84810470Y-114848275D01*
X84810473Y-114848282D01*
X84905956Y-115013665D01*
X84906315Y-115014158D01*
X84906434Y-115014491D01*
X84909209Y-115019298D01*
X84908330Y-115019805D01*
X84929797Y-115079964D01*
X84930000Y-115087048D01*
X84930000Y-115500000D01*
X85865181Y-116435181D01*
X85898666Y-116496504D01*
X85901500Y-116522862D01*
X85901500Y-116760109D01*
X85942968Y-116914874D01*
X85956297Y-116937960D01*
X86023078Y-117053627D01*
X86023080Y-117053629D01*
X86194870Y-117225419D01*
X86228355Y-117286742D01*
X86223371Y-117356434D01*
X86181499Y-117412367D01*
X86116035Y-117436784D01*
X86105199Y-117437084D01*
X85716132Y-117430840D01*
X85649417Y-117410082D01*
X85630441Y-117394537D01*
X85438836Y-117202931D01*
X85438832Y-117202928D01*
X85335081Y-117133603D01*
X85335072Y-117133598D01*
X85219785Y-117085845D01*
X85219777Y-117085843D01*
X85097398Y-117061500D01*
X85097394Y-117061500D01*
X82611418Y-117061500D01*
X82544379Y-117041815D01*
X82498624Y-116989011D01*
X82487419Y-116937960D01*
X82487333Y-116914874D01*
X82480000Y-114937160D01*
X82480000Y-114411004D01*
X82499685Y-114343965D01*
X82552489Y-114298210D01*
X82604689Y-114287006D01*
X84613236Y-114298230D01*
G37*
%TD.AperFunction*%
%TD*%
M02*
