M48
; DRILL file {KiCad 8.0.5} date 2025-04-29T16:13:11+0200
; FORMAT={-:-/ absolute / inch / decimal}
; #@! TF.CreationDate,2025-04-29T16:13:11+02:00
; #@! TF.GenerationSoftware,Kicad,Pcbnew,8.0.5
; #@! TF.FileFunction,Plated,1,2,PTH
FMAT,2
INCH
; #@! TA.AperFunction,Plated,PTH,ViaDrill
T1C0.0157
; #@! TA.AperFunction,Plated,PTH,ViaDrill
T2C0.0197
; #@! TA.AperFunction,Plated,PTH,ComponentDrill
T3C0.0394
; #@! TA.AperFunction,Plated,PTH,ComponentDrill
T4C0.0394
%
G90
G05
T1
X2.1154Y-5.0697
X2.1646Y-5.0697
X2.2008Y-4.5181
X2.2642Y-4.8234
X2.3031Y-4.5181
X2.3169Y-4.5728
X2.3504Y-5.0669
X2.3567Y-4.3622
X2.3575Y-4.3024
X2.4839Y-3.9768
X2.4864Y-4.4428
X2.5024Y-4.8642
X2.5327Y-4.5728
X2.5638Y-4.5248
X2.564Y-4.8736
X2.5669Y-4.4463
X2.6051Y-4.8705
X2.6146Y-4.6016
X2.6343Y-4.6972
X2.6431Y-4.8661
X2.6575Y-5.0799
X2.6598Y-4.288
X2.6602Y-4.351
X2.6816Y-4.851
X2.6961Y-4.3614
X2.7012Y-4.6406
X2.711Y-4.8219
X2.7268Y-4.6717
X2.7514Y-4.9632
X2.7582Y-4.5575
X2.7622Y-4.0472
X2.7894Y-4.0
X2.7898Y-4.1764
X2.7992Y-4.046
X2.8075Y-4.9583
X2.8089Y-4.6997
X2.8262Y-4.2089
X2.8722Y-4.6618
X2.8998Y-4.6139
X2.9063Y-4.5748
X2.9134Y-3.9579
X2.9264Y-4.7858
X2.9289Y-4.129
X2.9614Y-4.9138
X2.9646Y-4.7854
X2.9697Y-3.9559
X3.0169Y-4.2272
X3.0207Y-4.7841
X3.0346Y-4.5398
X3.0444Y-4.6174
X3.0484Y-4.278
X3.0512Y-4.1965
X3.0536Y-4.4652
X3.0638Y-4.3875
X3.0667Y-4.3291
X3.0839Y-4.4426
X3.0853Y-4.623
X3.1035Y-4.2295
X3.111Y-4.178
X3.1157Y-4.1287
X3.1417Y-4.3591
X3.1441Y-4.2291
X3.1661Y-4.6031
X3.1827Y-4.2291
X3.2055Y-4.5751
X3.2071Y-4.4637
X3.2075Y-4.4968
X3.2079Y-4.3642
X3.2201Y-4.6827
X3.237Y-4.7567
X3.3621Y-4.0119
X3.3719Y-4.507
X3.3885Y-3.9854
X3.4053Y-4.0661
X3.4445Y-4.0512
X3.4587Y-4.7587
X3.4657Y-4.5843
X3.4799Y-4.1374
X3.4946Y-4.0261
X3.5288Y-4.0927
X3.5571Y-5.0181
X3.5646Y-4.335
X3.5819Y-4.652
X3.5819Y-5.0524
X3.5854Y-4.0427
X3.6461Y-4.1217
X3.65Y-4.5319
X3.6563Y-4.2079
X3.6846Y-4.3098
X3.6875Y-4.5257
X3.6882Y-4.4836
X3.7018Y-4.6722
X3.7236Y-4.6264
X3.7244Y-4.5319
X3.7764Y-4.6051
X3.7992Y-4.2323
X3.8098Y-4.5791
X3.8327Y-4.1524
X3.8528Y-4.5795
X3.8876Y-4.5933
X3.9402Y-4.2894
X3.9728Y-4.6079
X4.0091Y-5.0949
X4.0146Y-4.4594
X4.028Y-3.9862
X4.0906Y-4.911
X4.1472Y-4.9236
X4.148Y-4.674
X4.176Y-4.7516
X4.2Y-5.0945
X4.2122Y-4.0232
X4.2551Y-4.9638
X4.3063Y-4.7512
T2
X2.008Y-4.6312
X2.008Y-4.7001
X2.009Y-4.0705
X2.009Y-4.1394
X2.009Y-4.2181
X2.0378Y-4.2602
X2.039Y-4.5957
X2.087Y-4.2602
X2.0882Y-4.5957
X2.0966Y-4.7001
X2.0976Y-4.0705
X2.1362Y-4.2602
X2.1374Y-4.5957
X2.197Y-4.7001
X2.198Y-4.0705
X2.2878Y-4.0705
X2.3035Y-4.7001
X2.3901Y-4.0709
X2.4055Y-4.7001
X2.4886Y-4.7008
X2.4929Y-4.0709
X2.5636Y-4.7028
X2.5834Y-4.0709
X2.6143Y-4.6521
X2.6254Y-4.1128
X2.6774Y-4.1648
X2.7843Y-4.3626
X2.7843Y-4.4181
X2.7854Y-4.3067
X2.7854Y-4.4748
X2.898Y-4.4193
X2.8992Y-4.3051
X2.8996Y-4.3614
X2.9004Y-4.4736
X2.9535Y-4.3626
X2.9547Y-4.3071
X2.9547Y-4.4189
X2.9551Y-4.4752
X3.8378Y-4.474
X3.8386Y-4.4051
X3.8732Y-4.4409
X3.9051Y-4.4059
X3.9114Y-4.4717
T3
X2.8075Y-4.886
X2.8075Y-5.0632
X3.0634Y-4.886
X3.0634Y-5.0632
X3.1583Y-4.8872
X3.1583Y-5.0644
X3.4142Y-4.8872
X3.4142Y-5.0644
T4
X3.7793Y-4.7514
X3.7793Y-4.8514
X3.8793Y-4.7514
X3.8793Y-4.8514
X3.9372Y-4.1941
X4.0372Y-4.1941
X4.2252Y-4.1606
X4.2252Y-4.3575
X4.2252Y-4.4764
X4.2252Y-4.6732
M30
