%TF.GenerationSoftware,KiCad,Pcbnew,8.0.5*%
%TF.CreationDate,2025-04-29T16:12:59+02:00*%
%TF.ProjectId,ForestFireDetection,466f7265-7374-4466-9972-654465746563,rev?*%
%TF.SameCoordinates,Original*%
%TF.FileFunction,Copper,L2,Bot*%
%TF.FilePolarity,Positive*%
%FSLAX46Y46*%
G04 Gerber Fmt 4.6, Leading zero omitted, Abs format (unit mm)*
G04 Created by KiCad (PCBNEW 8.0.5) date 2025-04-29 16:12:59*
%MOMM*%
%LPD*%
G01*
G04 APERTURE LIST*
%ADD10C,0.300000*%
%TA.AperFunction,NonConductor*%
%ADD11C,0.300000*%
%TD*%
%TA.AperFunction,NonConductor*%
%ADD12C,0.200000*%
%TD*%
%TA.AperFunction,ComponentPad*%
%ADD13C,2.000000*%
%TD*%
%TA.AperFunction,ComponentPad*%
%ADD14C,1.507998*%
%TD*%
%TA.AperFunction,ComponentPad*%
%ADD15R,1.700000X1.700000*%
%TD*%
%TA.AperFunction,ComponentPad*%
%ADD16O,1.700000X1.700000*%
%TD*%
%TA.AperFunction,ViaPad*%
%ADD17C,0.800000*%
%TD*%
%TA.AperFunction,ViaPad*%
%ADD18C,1.000000*%
%TD*%
%TA.AperFunction,Conductor*%
%ADD19C,0.150000*%
%TD*%
%TA.AperFunction,Conductor*%
%ADD20C,1.000000*%
%TD*%
%TA.AperFunction,Conductor*%
%ADD21C,0.600000*%
%TD*%
%TA.AperFunction,Conductor*%
%ADD22C,0.200000*%
%TD*%
%TA.AperFunction,Conductor*%
%ADD23C,0.250000*%
%TD*%
%TA.AperFunction,Conductor*%
%ADD24C,0.300000*%
%TD*%
G04 APERTURE END LIST*
D10*
D11*
X37408328Y-112321426D02*
X37408328Y-113178569D01*
X37408328Y-112749998D02*
X35908328Y-112749998D01*
X35908328Y-112749998D02*
X36122614Y-112892855D01*
X36122614Y-112892855D02*
X36265471Y-113035712D01*
X36265471Y-113035712D02*
X36336900Y-113178569D01*
X36051185Y-111749998D02*
X35979757Y-111678570D01*
X35979757Y-111678570D02*
X35908328Y-111535713D01*
X35908328Y-111535713D02*
X35908328Y-111178570D01*
X35908328Y-111178570D02*
X35979757Y-111035713D01*
X35979757Y-111035713D02*
X36051185Y-110964284D01*
X36051185Y-110964284D02*
X36194042Y-110892855D01*
X36194042Y-110892855D02*
X36336900Y-110892855D01*
X36336900Y-110892855D02*
X36551185Y-110964284D01*
X36551185Y-110964284D02*
X37408328Y-111821427D01*
X37408328Y-111821427D02*
X37408328Y-110892855D01*
X37265471Y-110249999D02*
X37336900Y-110178570D01*
X37336900Y-110178570D02*
X37408328Y-110249999D01*
X37408328Y-110249999D02*
X37336900Y-110321427D01*
X37336900Y-110321427D02*
X37265471Y-110249999D01*
X37265471Y-110249999D02*
X37408328Y-110249999D01*
X35908328Y-108821427D02*
X35908328Y-109535713D01*
X35908328Y-109535713D02*
X36622614Y-109607141D01*
X36622614Y-109607141D02*
X36551185Y-109535713D01*
X36551185Y-109535713D02*
X36479757Y-109392856D01*
X36479757Y-109392856D02*
X36479757Y-109035713D01*
X36479757Y-109035713D02*
X36551185Y-108892856D01*
X36551185Y-108892856D02*
X36622614Y-108821427D01*
X36622614Y-108821427D02*
X36765471Y-108749998D01*
X36765471Y-108749998D02*
X37122614Y-108749998D01*
X37122614Y-108749998D02*
X37265471Y-108821427D01*
X37265471Y-108821427D02*
X37336900Y-108892856D01*
X37336900Y-108892856D02*
X37408328Y-109035713D01*
X37408328Y-109035713D02*
X37408328Y-109392856D01*
X37408328Y-109392856D02*
X37336900Y-109535713D01*
X37336900Y-109535713D02*
X37265471Y-109607141D01*
X35908328Y-107821427D02*
X35908328Y-107678570D01*
X35908328Y-107678570D02*
X35979757Y-107535713D01*
X35979757Y-107535713D02*
X36051185Y-107464285D01*
X36051185Y-107464285D02*
X36194042Y-107392856D01*
X36194042Y-107392856D02*
X36479757Y-107321427D01*
X36479757Y-107321427D02*
X36836900Y-107321427D01*
X36836900Y-107321427D02*
X37122614Y-107392856D01*
X37122614Y-107392856D02*
X37265471Y-107464285D01*
X37265471Y-107464285D02*
X37336900Y-107535713D01*
X37336900Y-107535713D02*
X37408328Y-107678570D01*
X37408328Y-107678570D02*
X37408328Y-107821427D01*
X37408328Y-107821427D02*
X37336900Y-107964285D01*
X37336900Y-107964285D02*
X37265471Y-108035713D01*
X37265471Y-108035713D02*
X37122614Y-108107142D01*
X37122614Y-108107142D02*
X36836900Y-108178570D01*
X36836900Y-108178570D02*
X36479757Y-108178570D01*
X36479757Y-108178570D02*
X36194042Y-108107142D01*
X36194042Y-108107142D02*
X36051185Y-108035713D01*
X36051185Y-108035713D02*
X35979757Y-107964285D01*
X35979757Y-107964285D02*
X35908328Y-107821427D01*
X35908328Y-106392856D02*
X35908328Y-106249999D01*
X35908328Y-106249999D02*
X35979757Y-106107142D01*
X35979757Y-106107142D02*
X36051185Y-106035714D01*
X36051185Y-106035714D02*
X36194042Y-105964285D01*
X36194042Y-105964285D02*
X36479757Y-105892856D01*
X36479757Y-105892856D02*
X36836900Y-105892856D01*
X36836900Y-105892856D02*
X37122614Y-105964285D01*
X37122614Y-105964285D02*
X37265471Y-106035714D01*
X37265471Y-106035714D02*
X37336900Y-106107142D01*
X37336900Y-106107142D02*
X37408328Y-106249999D01*
X37408328Y-106249999D02*
X37408328Y-106392856D01*
X37408328Y-106392856D02*
X37336900Y-106535714D01*
X37336900Y-106535714D02*
X37265471Y-106607142D01*
X37265471Y-106607142D02*
X37122614Y-106678571D01*
X37122614Y-106678571D02*
X36836900Y-106749999D01*
X36836900Y-106749999D02*
X36479757Y-106749999D01*
X36479757Y-106749999D02*
X36194042Y-106678571D01*
X36194042Y-106678571D02*
X36051185Y-106607142D01*
X36051185Y-106607142D02*
X35979757Y-106535714D01*
X35979757Y-106535714D02*
X35908328Y-106392856D01*
X35908328Y-104964285D02*
X35908328Y-104821428D01*
X35908328Y-104821428D02*
X35979757Y-104678571D01*
X35979757Y-104678571D02*
X36051185Y-104607143D01*
X36051185Y-104607143D02*
X36194042Y-104535714D01*
X36194042Y-104535714D02*
X36479757Y-104464285D01*
X36479757Y-104464285D02*
X36836900Y-104464285D01*
X36836900Y-104464285D02*
X37122614Y-104535714D01*
X37122614Y-104535714D02*
X37265471Y-104607143D01*
X37265471Y-104607143D02*
X37336900Y-104678571D01*
X37336900Y-104678571D02*
X37408328Y-104821428D01*
X37408328Y-104821428D02*
X37408328Y-104964285D01*
X37408328Y-104964285D02*
X37336900Y-105107143D01*
X37336900Y-105107143D02*
X37265471Y-105178571D01*
X37265471Y-105178571D02*
X37122614Y-105250000D01*
X37122614Y-105250000D02*
X36836900Y-105321428D01*
X36836900Y-105321428D02*
X36479757Y-105321428D01*
X36479757Y-105321428D02*
X36194042Y-105250000D01*
X36194042Y-105250000D02*
X36051185Y-105178571D01*
X36051185Y-105178571D02*
X35979757Y-105107143D01*
X35979757Y-105107143D02*
X35908328Y-104964285D01*
X37408328Y-102678572D02*
X36408328Y-102678572D01*
X36551185Y-102678572D02*
X36479757Y-102607143D01*
X36479757Y-102607143D02*
X36408328Y-102464286D01*
X36408328Y-102464286D02*
X36408328Y-102250000D01*
X36408328Y-102250000D02*
X36479757Y-102107143D01*
X36479757Y-102107143D02*
X36622614Y-102035715D01*
X36622614Y-102035715D02*
X37408328Y-102035715D01*
X36622614Y-102035715D02*
X36479757Y-101964286D01*
X36479757Y-101964286D02*
X36408328Y-101821429D01*
X36408328Y-101821429D02*
X36408328Y-101607143D01*
X36408328Y-101607143D02*
X36479757Y-101464286D01*
X36479757Y-101464286D02*
X36622614Y-101392857D01*
X36622614Y-101392857D02*
X37408328Y-101392857D01*
X37408328Y-100678572D02*
X36408328Y-100678572D01*
X36551185Y-100678572D02*
X36479757Y-100607143D01*
X36479757Y-100607143D02*
X36408328Y-100464286D01*
X36408328Y-100464286D02*
X36408328Y-100250000D01*
X36408328Y-100250000D02*
X36479757Y-100107143D01*
X36479757Y-100107143D02*
X36622614Y-100035715D01*
X36622614Y-100035715D02*
X37408328Y-100035715D01*
X36622614Y-100035715D02*
X36479757Y-99964286D01*
X36479757Y-99964286D02*
X36408328Y-99821429D01*
X36408328Y-99821429D02*
X36408328Y-99607143D01*
X36408328Y-99607143D02*
X36479757Y-99464286D01*
X36479757Y-99464286D02*
X36622614Y-99392857D01*
X36622614Y-99392857D02*
X37408328Y-99392857D01*
D12*
X40168427Y-112500000D02*
X37943580Y-112500000D01*
X40168427Y-100000000D02*
X37943580Y-100000000D01*
X38530000Y-112500000D02*
X38530000Y-100000000D01*
X38530000Y-112500000D02*
X38530000Y-100000000D01*
X38530000Y-112500000D02*
X37943579Y-111373496D01*
X38530000Y-112500000D02*
X39116421Y-111373496D01*
X38530000Y-100000000D02*
X39116421Y-101126504D01*
X38530000Y-100000000D02*
X37943579Y-101126504D01*
D13*
%TO.P,C19,1*%
%TO.N,/BAL*%
X107320000Y-113700000D03*
%TO.P,C19,2*%
%TO.N,GND*%
X107320000Y-118700000D03*
%TD*%
D14*
%TO.P,SW2,1*%
%TO.N,/Button1*%
X80219999Y-124134900D03*
%TO.P,SW2,2*%
X86720001Y-124134900D03*
%TO.P,SW2,3*%
%TO.N,GND*%
X80219999Y-128634901D03*
%TO.P,SW2,4*%
X86720001Y-128634901D03*
%TD*%
D15*
%TO.P,BT1,1*%
%TO.N,GND*%
X102545000Y-106530000D03*
D16*
%TO.P,BT1,2*%
%TO.N,VinAEM*%
X100005000Y-106530000D03*
%TD*%
D13*
%TO.P,C17,1*%
%TO.N,/BATT*%
X107320000Y-105680000D03*
%TO.P,C17,2*%
%TO.N,/BAL*%
X107320000Y-110680000D03*
%TD*%
D14*
%TO.P,SW1,1*%
%TO.N,NRST*%
X71309999Y-124104900D03*
%TO.P,SW1,2*%
X77810001Y-124104900D03*
%TO.P,SW1,3*%
%TO.N,GND*%
X71309999Y-128604901D03*
%TO.P,SW1,4*%
X77810001Y-128604901D03*
%TD*%
D15*
%TO.P,J4,1,Pin_1*%
%TO.N,VDD*%
X95995000Y-123225000D03*
D16*
%TO.P,J4,2,Pin_2*%
%TO.N,VoutAEM*%
X95995000Y-120685000D03*
%TO.P,J4,3,Pin_3*%
%TO.N,GND*%
X98535000Y-123225000D03*
%TO.P,J4,4,Pin_4*%
X98535000Y-120685000D03*
%TD*%
D17*
%TO.N,EN_LV*%
X86495000Y-103279290D03*
X74000000Y-100530000D03*
%TO.N,VoutAEM_LV*%
X100910000Y-117040000D03*
X98745000Y-116670000D03*
%TO.N,GND*%
X106990000Y-102190000D03*
%TO.N,VDD*%
X79140000Y-104870000D03*
X74394500Y-104875500D03*
%TO.N,GND*%
X71100572Y-102768000D03*
D18*
X75020000Y-110810000D03*
D17*
X88390000Y-105090000D03*
D18*
X55829428Y-103390000D03*
X65115000Y-119450000D03*
D17*
X59860000Y-110800000D03*
X69260000Y-118660000D03*
D18*
X75050000Y-112240000D03*
X55804428Y-119382000D03*
D17*
X65199428Y-112936000D03*
X58850000Y-116150000D03*
X78830000Y-107430000D03*
D18*
X97500000Y-111890000D03*
D17*
X66410000Y-116880000D03*
D18*
X58109428Y-103390000D03*
D17*
X58500000Y-114760000D03*
D18*
X54260000Y-108210000D03*
D17*
X59880000Y-109280000D03*
X70850000Y-101600000D03*
X90350000Y-127460000D03*
D18*
X97480000Y-113640000D03*
D17*
X105340000Y-125060000D03*
X69885115Y-126065115D03*
X63090000Y-101010000D03*
X96770000Y-116310000D03*
D18*
X51029428Y-105140000D03*
D17*
X53730000Y-128770000D03*
D18*
X73650000Y-110780000D03*
D17*
X92710000Y-115110000D03*
X76630000Y-107370000D03*
D18*
X51760000Y-108210000D03*
X54290000Y-116730000D03*
X70750000Y-109390000D03*
X60709428Y-103400000D03*
D17*
X105360000Y-118720000D03*
X67500000Y-129030000D03*
X89630488Y-103955000D03*
X87850000Y-120870000D03*
D18*
X70720000Y-110810000D03*
X61099428Y-119382000D03*
D17*
X88030000Y-116440000D03*
D18*
X51004428Y-117632000D03*
X51790000Y-116730000D03*
D17*
X55900000Y-114760000D03*
X65120000Y-114930000D03*
D18*
X51029428Y-107140000D03*
X99350000Y-113580000D03*
X99190000Y-111910000D03*
X58509428Y-119382000D03*
D17*
X54980000Y-128770000D03*
D18*
X75060000Y-113670000D03*
D17*
X73655000Y-117193013D03*
D18*
X53040000Y-116730000D03*
X98380000Y-112800000D03*
D17*
X90980000Y-118160000D03*
X92610000Y-104690000D03*
X95919620Y-116970380D03*
X108080000Y-126080000D03*
D18*
X66402500Y-118162500D03*
D17*
X64330000Y-116150000D03*
D18*
X53279428Y-103390000D03*
D17*
X93590000Y-109470000D03*
X101830000Y-129410000D03*
D18*
X75050000Y-109400000D03*
D17*
X81480000Y-110850000D03*
X90980000Y-128330000D03*
X106680000Y-129400000D03*
D18*
X73610000Y-112250000D03*
D17*
X71345411Y-119371568D03*
D18*
X70720000Y-112220000D03*
X63319428Y-103400000D03*
D17*
X70160572Y-102798000D03*
X81420000Y-116207500D03*
X103900000Y-124740000D03*
D18*
X73640000Y-109350000D03*
D17*
X102310000Y-101250000D03*
X97350000Y-105470000D03*
D18*
X70750000Y-113660000D03*
D17*
X63154012Y-112845988D03*
X94025000Y-118675000D03*
X59700000Y-128700000D03*
X81460000Y-113377500D03*
D18*
X51029428Y-103390000D03*
D17*
X72954339Y-118409645D03*
D18*
X73670000Y-113630000D03*
D17*
X80840000Y-107420000D03*
X80417834Y-116920000D03*
X81470000Y-114217500D03*
X101970000Y-113270000D03*
X97860000Y-116320000D03*
D18*
X63210000Y-119400000D03*
D17*
X82220000Y-120820000D03*
D18*
X51004428Y-119382000D03*
X53010000Y-108210000D03*
D17*
X66910000Y-119310000D03*
D18*
X65619428Y-103400000D03*
D17*
X79860000Y-107420000D03*
X68610000Y-117870000D03*
D18*
X66684714Y-104465286D03*
X68004714Y-105785286D03*
X53254428Y-119382000D03*
D17*
%TO.N,PC15-OSC32_IN*%
X77327419Y-117282811D03*
X77561910Y-113416999D03*
%TO.N,PC14-OSC32_OUT*%
X78330000Y-112841999D03*
X78367779Y-117424784D03*
%TO.N,VDDRF1V55*%
X74330000Y-121560000D03*
X73820000Y-116200000D03*
X70059428Y-115761656D03*
X79800000Y-110720000D03*
X77894442Y-109959442D03*
%TO.N,NRST*%
X57510000Y-122515012D03*
X71309999Y-125940001D03*
X68480000Y-110780000D03*
%TO.N,LPUART_TX*%
X71784429Y-106906204D03*
X65126705Y-123788602D03*
%TO.N,LPUART_RX*%
X63560000Y-123550000D03*
X70860000Y-106080000D03*
%TO.N,SWO*%
X66170000Y-123710000D03*
X77500000Y-106590000D03*
%TO.N,SWCLK*%
X77820000Y-111441999D03*
X67135510Y-123599796D03*
%TO.N,SWDIO*%
X68112900Y-123216109D03*
X75300000Y-121550000D03*
%TO.N,CFG_2*%
X93680000Y-113882500D03*
X92870000Y-106880000D03*
%TO.N,CFG_1*%
X90540000Y-110110000D03*
X93662924Y-114953820D03*
%TO.N,CFG_0*%
X94600000Y-115110000D03*
X94580000Y-117510000D03*
%TO.N,BATT2*%
X85645000Y-114476726D03*
X81790001Y-118939999D03*
%TO.N,STATUS_2*%
X75430000Y-100480000D03*
X88762805Y-102262195D03*
%TO.N,/BOOT0_MCU*%
X67560000Y-108914600D03*
X67567823Y-110514599D03*
%TO.N,SDA*%
X106070000Y-120690000D03*
X109380000Y-120680000D03*
%TO.N,VLCSMPS*%
X79020000Y-106120000D03*
X77430000Y-108660000D03*
%TO.N,RFIO_SEL*%
X68858949Y-122477247D03*
X77080000Y-115310000D03*
%TO.N,BTN1*%
X75220000Y-124810000D03*
X76726037Y-121516948D03*
%TO.N,/BUCK*%
X96500000Y-107500000D03*
X100080000Y-108950000D03*
%TO.N,STATUS_0*%
X85397929Y-101903510D03*
X87490710Y-102899290D03*
%TO.N,STATUS_1*%
X91070000Y-102685000D03*
X86067917Y-101230000D03*
%TD*%
D19*
%TO.N,EN_LV*%
X85889825Y-103279290D02*
X86495000Y-103279290D01*
X84772929Y-102162394D02*
X85889825Y-103279290D01*
X84772929Y-102152929D02*
X84772929Y-102162394D01*
X83370000Y-100750000D02*
X84772929Y-102152929D01*
X76043884Y-100750000D02*
X83370000Y-100750000D01*
X75688884Y-101105000D02*
X76043884Y-100750000D01*
X74575000Y-101105000D02*
X75688884Y-101105000D01*
X74000000Y-100530000D02*
X74575000Y-101105000D01*
D20*
%TO.N,VDD*%
X74394500Y-104875500D02*
X74400000Y-104870000D01*
X74400000Y-104870000D02*
X79140000Y-104870000D01*
D19*
%TO.N,STATUS_0*%
X86494930Y-101903510D02*
X85397929Y-101903510D01*
X87490710Y-102899290D02*
X86494930Y-101903510D01*
D21*
%TO.N,VoutAEM_LV*%
X98745000Y-116670000D02*
X100540000Y-116670000D01*
X100540000Y-116670000D02*
X100910000Y-117040000D01*
D22*
%TO.N,CFG_0*%
X94580000Y-117510000D02*
X94590000Y-117500000D01*
X94580000Y-117510000D02*
X94600000Y-117490000D01*
X94600000Y-117490000D02*
X94600000Y-115110000D01*
D19*
%TO.N,STATUS_2*%
X86950610Y-100450000D02*
X88762805Y-102262195D01*
X75460000Y-100450000D02*
X86950610Y-100450000D01*
X75430000Y-100480000D02*
X75460000Y-100450000D01*
D23*
%TO.N,PC15-OSC32_IN*%
X77760000Y-113615089D02*
X77760000Y-116850230D01*
X77561910Y-113416999D02*
X77760000Y-113615089D01*
X77760000Y-116850230D02*
X77327419Y-117282811D01*
%TO.N,PC14-OSC32_OUT*%
X78330000Y-112841999D02*
X78320000Y-112851999D01*
X78320000Y-117377005D02*
X78367779Y-117424784D01*
X78320000Y-112851999D02*
X78320000Y-117377005D01*
%TO.N,VDDRF1V55*%
X79080000Y-117808580D02*
X76123581Y-120764999D01*
X79039442Y-109959442D02*
X79800000Y-110720000D01*
X74874999Y-120764999D02*
X74874999Y-120805001D01*
X76123581Y-120764999D02*
X74874999Y-120764999D01*
D24*
X70059428Y-115761656D02*
X70087772Y-115790000D01*
X70087772Y-115790000D02*
X73410000Y-115790000D01*
D23*
X79080000Y-111440000D02*
X79080000Y-117808580D01*
X77894442Y-109959442D02*
X79039442Y-109959442D01*
X79800000Y-110720000D02*
X79080000Y-111440000D01*
D24*
X73410000Y-115790000D02*
X73820000Y-116200000D01*
D23*
X74200000Y-121480000D02*
X74280000Y-121560000D01*
X74874999Y-120805001D02*
X74200000Y-121480000D01*
X74280000Y-121560000D02*
X74330000Y-121560000D01*
D19*
%TO.N,NRST*%
X70630000Y-115380000D02*
X74270000Y-115380000D01*
X72299441Y-120070000D02*
X67195736Y-120070000D01*
X74460000Y-115570000D02*
X74460000Y-117909441D01*
X69780000Y-112080000D02*
X69780000Y-114530000D01*
X74270000Y-115380000D02*
X74460000Y-115570000D01*
X74460000Y-117909441D02*
X72299441Y-120070000D01*
X67195736Y-120070000D02*
X64750724Y-122515012D01*
X64750724Y-122515012D02*
X57510000Y-122515012D01*
X69780000Y-114530000D02*
X70630000Y-115380000D01*
X68480000Y-110780000D02*
X69780000Y-112080000D01*
%TO.N,LPUART_TX*%
X72190000Y-114540000D02*
X72250000Y-114600000D01*
X72880000Y-120347969D02*
X72750000Y-120477969D01*
X72250000Y-114600000D02*
X74500000Y-114600000D01*
X67905307Y-121010000D02*
X65126705Y-123788602D01*
X72750000Y-120477969D02*
X72750000Y-120487969D01*
X71784429Y-106906204D02*
X72190000Y-107311775D01*
X74500000Y-114600000D02*
X75285000Y-115385000D01*
X72227969Y-121010000D02*
X67905307Y-121010000D01*
X72880000Y-120337969D02*
X72880000Y-120347969D01*
X72750000Y-120487969D02*
X72227969Y-121010000D01*
X75285000Y-115385000D02*
X75285000Y-117932969D01*
X75285000Y-117932969D02*
X72880000Y-120337969D01*
X72190000Y-107311775D02*
X72190000Y-114540000D01*
%TO.N,LPUART_RX*%
X71970000Y-115000000D02*
X74380000Y-115000000D01*
X64340000Y-123550000D02*
X63560000Y-123550000D01*
X67490000Y-120400000D02*
X64340000Y-123550000D01*
X71745000Y-108175000D02*
X71745000Y-114775000D01*
X72403705Y-120400000D02*
X67490000Y-120400000D01*
X70860000Y-106080000D02*
X70860000Y-107290000D01*
X74760000Y-118033705D02*
X72580000Y-120213705D01*
X70860000Y-107290000D02*
X71745000Y-108175000D01*
X74380000Y-115000000D02*
X74760000Y-115380000D01*
X72580000Y-120223705D02*
X72403705Y-120400000D01*
X71745000Y-114775000D02*
X71970000Y-115000000D01*
X72580000Y-120213705D02*
X72580000Y-120223705D01*
X74760000Y-115380000D02*
X74760000Y-118033705D01*
%TO.N,SWO*%
X73050000Y-120612233D02*
X73050000Y-120602233D01*
X75702419Y-116609714D02*
X75925000Y-116387133D01*
X75925000Y-116387133D02*
X75925000Y-109281116D01*
X73180000Y-120472233D02*
X73180000Y-120462233D01*
X77485000Y-107721116D02*
X77485000Y-106605000D01*
X77485000Y-106605000D02*
X77500000Y-106590000D01*
X73050000Y-120602233D02*
X73180000Y-120472233D01*
X68054264Y-121310000D02*
X72352233Y-121310000D01*
X66170000Y-123194264D02*
X68054264Y-121310000D01*
X73180000Y-120462233D02*
X75702419Y-117939814D01*
X75702419Y-117939814D02*
X75702419Y-116609714D01*
X66170000Y-123710000D02*
X66170000Y-123194264D01*
X72352233Y-121310000D02*
X73050000Y-120612233D01*
X75925000Y-109281116D02*
X77485000Y-107721116D01*
D24*
%TO.N,SWCLK*%
X73425000Y-120767563D02*
X72467563Y-121725000D01*
X76300000Y-112961999D02*
X76300000Y-116542463D01*
X68575330Y-121725000D02*
X67135510Y-123164820D01*
X76077419Y-118115144D02*
X74087563Y-120105000D01*
X74087563Y-120105000D02*
X74067563Y-120105000D01*
X73555000Y-120617563D02*
X73555000Y-120627563D01*
X72467563Y-121725000D02*
X68575330Y-121725000D01*
X74067563Y-120105000D02*
X73555000Y-120617563D01*
X73425000Y-120757563D02*
X73425000Y-120767563D01*
X76077419Y-116765044D02*
X76077419Y-118115144D01*
X67135510Y-123164820D02*
X67135510Y-123599796D01*
X76300000Y-116542463D02*
X76077419Y-116765044D01*
X73555000Y-120627563D02*
X73425000Y-120757563D01*
X77820000Y-111441999D02*
X76300000Y-112961999D01*
D19*
%TO.N,SWDIO*%
X71371320Y-122700000D02*
X74150000Y-122700000D01*
X74150000Y-122700000D02*
X75300000Y-121550000D01*
X70855211Y-123216109D02*
X71371320Y-122700000D01*
X68112900Y-123216109D02*
X70855211Y-123216109D01*
D22*
%TO.N,CFG_2*%
X91290000Y-111492500D02*
X91290000Y-108460000D01*
X91290000Y-108460000D02*
X92870000Y-106880000D01*
X93680000Y-113882500D02*
X91290000Y-111492500D01*
%TO.N,CFG_1*%
X90540000Y-111830896D02*
X93662924Y-114953820D01*
X90540000Y-110110000D02*
X90540000Y-111830896D01*
D23*
%TO.N,/BOOT0_MCU*%
X67567823Y-108922423D02*
X67567823Y-110514599D01*
X67560000Y-108914600D02*
X67567823Y-108922423D01*
D22*
%TO.N,SDA*%
X109380000Y-120680000D02*
X109370000Y-120690000D01*
X109370000Y-120690000D02*
X106070000Y-120690000D01*
D24*
%TO.N,VLCSMPS*%
X77860000Y-108230000D02*
X77860000Y-107280000D01*
X77860000Y-107280000D02*
X79020000Y-106120000D01*
X77430000Y-108660000D02*
X77860000Y-108230000D01*
%TO.N,RFIO_SEL*%
X69011196Y-122325000D02*
X72503959Y-122325000D01*
X72503959Y-122325000D02*
X73875000Y-120953959D01*
X74513959Y-120485000D02*
X74723959Y-120275000D01*
X68858949Y-122477247D02*
X69011196Y-122325000D01*
X77080000Y-116398859D02*
X77080000Y-115310000D01*
X76527419Y-118511540D02*
X76527419Y-116951440D01*
X74273959Y-120555000D02*
X74343959Y-120485000D01*
X74763959Y-120275000D02*
X76527419Y-118511540D01*
X73875000Y-120943959D02*
X74263959Y-120555000D01*
X74343959Y-120485000D02*
X74513959Y-120485000D01*
X74263959Y-120555000D02*
X74273959Y-120555000D01*
X76527419Y-116951440D02*
X77080000Y-116398859D01*
X73875000Y-120953959D02*
X73875000Y-120943959D01*
X74723959Y-120275000D02*
X74763959Y-120275000D01*
D19*
%TO.N,BTN1*%
X75220000Y-124810000D02*
X75220000Y-122870000D01*
X75220000Y-122870000D02*
X76573052Y-121516948D01*
X76573052Y-121516948D02*
X76726037Y-121516948D01*
D21*
%TO.N,/BUCK*%
X98630000Y-107500000D02*
X100080000Y-108950000D01*
X96500000Y-107500000D02*
X98630000Y-107500000D01*
D19*
%TO.N,STATUS_1*%
X88455305Y-102980000D02*
X86705305Y-101230000D01*
X90775000Y-102980000D02*
X88455305Y-102980000D01*
X86705305Y-101230000D02*
X86067917Y-101230000D01*
X91070000Y-102685000D02*
X90775000Y-102980000D01*
D21*
%TO.N,BATT2*%
X85645000Y-115085000D02*
X81790001Y-118939999D01*
X85645000Y-114476726D02*
X85645000Y-115085000D01*
D19*
%TO.N,NRST*%
X62780000Y-123795305D02*
X62780000Y-122515012D01*
X63424695Y-124440000D02*
X62780000Y-123795305D01*
X69500000Y-124440000D02*
X63424695Y-124440000D01*
X71309999Y-125940001D02*
X71000001Y-125940001D01*
X71000001Y-125940001D02*
X69500000Y-124440000D01*
%TD*%
%TA.AperFunction,Conductor*%
%TO.N,GND*%
G36*
X98789000Y-122794297D02*
G01*
X98727993Y-122759075D01*
X98600826Y-122725000D01*
X98469174Y-122725000D01*
X98342007Y-122759075D01*
X98281000Y-122794297D01*
X98281000Y-121115702D01*
X98342007Y-121150925D01*
X98469174Y-121185000D01*
X98600826Y-121185000D01*
X98727993Y-121150925D01*
X98789000Y-121115702D01*
X98789000Y-122794297D01*
G37*
%TD.AperFunction*%
%TA.AperFunction,Conductor*%
G36*
X73111652Y-100020002D02*
G01*
X73158145Y-100073658D01*
X73168249Y-100143932D01*
X73163365Y-100164929D01*
X73147240Y-100214560D01*
X73106457Y-100340072D01*
X73086496Y-100530000D01*
X73106457Y-100719927D01*
X73107735Y-100723859D01*
X73165473Y-100901556D01*
X73165476Y-100901561D01*
X73260958Y-101066941D01*
X73260965Y-101066951D01*
X73388744Y-101208864D01*
X73388747Y-101208866D01*
X73543248Y-101321118D01*
X73717712Y-101398794D01*
X73904513Y-101438500D01*
X74031117Y-101438500D01*
X74099238Y-101458502D01*
X74120207Y-101475400D01*
X74216723Y-101571916D01*
X74216724Y-101571917D01*
X74216726Y-101571918D01*
X74256480Y-101594870D01*
X74349778Y-101648736D01*
X74498181Y-101688500D01*
X74498183Y-101688500D01*
X75765701Y-101688500D01*
X75765703Y-101688500D01*
X75914107Y-101648735D01*
X76007404Y-101594870D01*
X76047162Y-101571916D01*
X76248672Y-101370404D01*
X76310984Y-101336380D01*
X76337768Y-101333500D01*
X83076116Y-101333500D01*
X83144237Y-101353502D01*
X83165211Y-101370405D01*
X84281350Y-102486544D01*
X84301373Y-102512637D01*
X84306011Y-102520670D01*
X84306013Y-102520673D01*
X85531542Y-103746202D01*
X85531546Y-103746205D01*
X85531547Y-103746206D01*
X85586958Y-103778197D01*
X85598072Y-103784613D01*
X85598074Y-103784615D01*
X85652840Y-103816234D01*
X85664602Y-103823025D01*
X85757017Y-103847787D01*
X85817640Y-103884739D01*
X85818042Y-103885183D01*
X85883748Y-103958157D01*
X85883749Y-103958158D01*
X85986747Y-104032990D01*
X86038248Y-104070408D01*
X86212712Y-104148084D01*
X86399513Y-104187790D01*
X86590487Y-104187790D01*
X86777288Y-104148084D01*
X86951752Y-104070408D01*
X87106253Y-103958156D01*
X87217639Y-103834448D01*
X87278083Y-103797210D01*
X87337469Y-103795514D01*
X87395223Y-103807790D01*
X87395224Y-103807790D01*
X87586197Y-103807790D01*
X87772998Y-103768084D01*
X87947462Y-103690408D01*
X88101963Y-103578156D01*
X88114677Y-103564035D01*
X88175118Y-103526797D01*
X88240917Y-103526639D01*
X88378486Y-103563500D01*
X90698181Y-103563500D01*
X90820130Y-103563500D01*
X90846326Y-103566252D01*
X90974513Y-103593500D01*
X91165487Y-103593500D01*
X91352288Y-103553794D01*
X91526752Y-103476118D01*
X91681253Y-103363866D01*
X91809040Y-103221944D01*
X91904527Y-103056556D01*
X91963542Y-102874928D01*
X91983504Y-102685000D01*
X91963542Y-102495072D01*
X91904527Y-102313444D01*
X91809040Y-102148056D01*
X91809038Y-102148054D01*
X91809034Y-102148048D01*
X91681255Y-102006135D01*
X91526752Y-101893882D01*
X91352288Y-101816206D01*
X91165487Y-101776500D01*
X90974513Y-101776500D01*
X90787711Y-101816206D01*
X90613247Y-101893882D01*
X90458744Y-102006135D01*
X90330965Y-102148048D01*
X90330958Y-102148058D01*
X90235473Y-102313441D01*
X90232790Y-102319470D01*
X90230589Y-102318490D01*
X90196684Y-102368056D01*
X90131282Y-102395681D01*
X90116942Y-102396500D01*
X89802130Y-102396500D01*
X89734009Y-102376498D01*
X89687516Y-102322842D01*
X89678694Y-102268798D01*
X89676309Y-102268798D01*
X89676309Y-102262196D01*
X89656347Y-102072267D01*
X89634859Y-102006135D01*
X89597332Y-101890639D01*
X89501845Y-101725251D01*
X89501843Y-101725249D01*
X89501839Y-101725243D01*
X89374060Y-101583330D01*
X89219557Y-101471077D01*
X89045093Y-101393401D01*
X88858292Y-101353695D01*
X88731688Y-101353695D01*
X88663567Y-101333693D01*
X88642593Y-101316790D01*
X87540899Y-100215095D01*
X87506873Y-100152783D01*
X87511938Y-100081967D01*
X87554485Y-100025132D01*
X87621005Y-100000321D01*
X87629994Y-100000000D01*
X108503371Y-100000000D01*
X108506650Y-100000043D01*
X108510665Y-100000147D01*
X108613722Y-100002831D01*
X108630875Y-100004457D01*
X108844244Y-100039565D01*
X108863360Y-100044269D01*
X109067488Y-100111800D01*
X109085626Y-100119419D01*
X109270216Y-100214560D01*
X109276745Y-100217925D01*
X109293487Y-100228285D01*
X109466915Y-100355351D01*
X109481839Y-100368192D01*
X109629963Y-100517307D01*
X109633361Y-100520727D01*
X109646102Y-100535736D01*
X109772011Y-100710009D01*
X109782259Y-100726820D01*
X109879483Y-100918581D01*
X109886987Y-100936783D01*
X109953152Y-101141347D01*
X109957729Y-101160495D01*
X109991413Y-101374087D01*
X109992927Y-101391275D01*
X109994976Y-101497056D01*
X109995000Y-101499496D01*
X109995000Y-119765315D01*
X109974998Y-119833436D01*
X109921342Y-119879929D01*
X109851068Y-119890033D01*
X109817752Y-119880422D01*
X109662290Y-119811206D01*
X109475487Y-119771500D01*
X109284513Y-119771500D01*
X109097711Y-119811206D01*
X108923247Y-119888882D01*
X108768744Y-120001135D01*
X108733922Y-120039810D01*
X108673476Y-120077050D01*
X108640286Y-120081500D01*
X108318120Y-120081500D01*
X108249999Y-120061498D01*
X108203506Y-120007842D01*
X108192993Y-119940691D01*
X108193891Y-119933101D01*
X107444947Y-119184157D01*
X107512993Y-119165925D01*
X107627007Y-119100099D01*
X107720099Y-119007007D01*
X107785925Y-118892993D01*
X107804158Y-118824947D01*
X108553102Y-119573891D01*
X108553102Y-119573890D01*
X108667791Y-119386738D01*
X108758628Y-119167437D01*
X108814039Y-118936632D01*
X108832662Y-118700000D01*
X108814039Y-118463367D01*
X108758628Y-118232562D01*
X108667791Y-118013261D01*
X108553102Y-117826108D01*
X108553101Y-117826107D01*
X107804157Y-118575051D01*
X107785925Y-118507007D01*
X107720099Y-118392993D01*
X107627007Y-118299901D01*
X107512993Y-118234075D01*
X107444946Y-118215841D01*
X108193890Y-117466897D01*
X108193890Y-117466896D01*
X108006738Y-117352208D01*
X107787437Y-117261371D01*
X107556632Y-117205960D01*
X107320000Y-117187337D01*
X107083367Y-117205960D01*
X106852562Y-117261371D01*
X106633266Y-117352206D01*
X106446108Y-117466897D01*
X106446108Y-117466898D01*
X107195052Y-118215842D01*
X107127007Y-118234075D01*
X107012993Y-118299901D01*
X106919901Y-118392993D01*
X106854075Y-118507007D01*
X106835842Y-118575052D01*
X106086898Y-117826108D01*
X106086897Y-117826108D01*
X105972206Y-118013266D01*
X105881371Y-118232562D01*
X105825960Y-118463367D01*
X105807337Y-118700000D01*
X105825960Y-118936632D01*
X105881371Y-119167437D01*
X105972208Y-119386738D01*
X106096563Y-119589665D01*
X106115102Y-119658198D01*
X106093646Y-119725875D01*
X106039007Y-119771208D01*
X105989131Y-119781500D01*
X105974513Y-119781500D01*
X105787711Y-119821206D01*
X105613247Y-119898882D01*
X105458744Y-120011135D01*
X105330965Y-120153048D01*
X105330958Y-120153058D01*
X105235476Y-120318438D01*
X105235473Y-120318445D01*
X105176457Y-120500072D01*
X105156496Y-120690000D01*
X105176457Y-120879927D01*
X105186026Y-120909375D01*
X105235473Y-121061556D01*
X105235476Y-121061561D01*
X105330958Y-121226941D01*
X105330965Y-121226951D01*
X105458744Y-121368864D01*
X105458747Y-121368866D01*
X105613248Y-121481118D01*
X105787712Y-121558794D01*
X105974513Y-121598500D01*
X106165487Y-121598500D01*
X106352288Y-121558794D01*
X106526752Y-121481118D01*
X106681253Y-121368866D01*
X106681255Y-121368864D01*
X106707074Y-121340190D01*
X106767520Y-121302950D01*
X106800710Y-121298500D01*
X108658294Y-121298500D01*
X108726415Y-121318502D01*
X108751930Y-121340189D01*
X108768747Y-121358866D01*
X108923248Y-121471118D01*
X109097712Y-121548794D01*
X109284513Y-121588500D01*
X109475487Y-121588500D01*
X109662288Y-121548794D01*
X109817753Y-121479576D01*
X109888118Y-121470143D01*
X109952415Y-121500249D01*
X109990229Y-121560338D01*
X109995000Y-121594684D01*
X109995000Y-128498752D01*
X109994976Y-128501223D01*
X109992858Y-128609197D01*
X109991331Y-128626437D01*
X109957360Y-128840917D01*
X109952744Y-128860142D01*
X109886027Y-129065479D01*
X109878461Y-129083746D01*
X109780439Y-129276126D01*
X109770110Y-129292980D01*
X109743389Y-129329760D01*
X109643198Y-129467659D01*
X109630357Y-129482692D01*
X109477692Y-129635357D01*
X109462659Y-129648198D01*
X109287980Y-129775110D01*
X109271126Y-129785439D01*
X109078746Y-129883461D01*
X109060479Y-129891027D01*
X108855142Y-129957744D01*
X108835917Y-129962360D01*
X108621437Y-129996331D01*
X108604197Y-129997858D01*
X108496224Y-129999976D01*
X108493753Y-130000000D01*
X87347031Y-130000000D01*
X87278910Y-129979998D01*
X87232417Y-129926342D01*
X87222313Y-129856068D01*
X87251807Y-129791488D01*
X87293781Y-129759805D01*
X87353406Y-129732001D01*
X87414860Y-129688970D01*
X87414860Y-129688969D01*
X86844948Y-129119057D01*
X86912993Y-129100825D01*
X87027007Y-129034999D01*
X87120099Y-128941907D01*
X87185925Y-128827893D01*
X87204157Y-128759848D01*
X87774069Y-129329760D01*
X87774070Y-129329760D01*
X87817101Y-129268306D01*
X87910420Y-129068182D01*
X87910422Y-129068177D01*
X87967574Y-128854880D01*
X87986820Y-128634901D01*
X87967574Y-128414921D01*
X87910422Y-128201624D01*
X87910420Y-128201619D01*
X87817097Y-128001487D01*
X87774072Y-127940040D01*
X87774070Y-127940040D01*
X87204157Y-128509952D01*
X87185925Y-128441909D01*
X87120099Y-128327895D01*
X87027007Y-128234803D01*
X86912993Y-128168977D01*
X86844947Y-128150743D01*
X87414860Y-127580830D01*
X87353412Y-127537804D01*
X87153281Y-127444481D01*
X87153277Y-127444479D01*
X86939980Y-127387327D01*
X86720001Y-127368081D01*
X86500021Y-127387327D01*
X86286724Y-127444479D01*
X86286720Y-127444481D01*
X86086589Y-127537804D01*
X86025139Y-127580830D01*
X86595053Y-128150744D01*
X86527009Y-128168977D01*
X86412995Y-128234803D01*
X86319903Y-128327895D01*
X86254077Y-128441909D01*
X86235844Y-128509953D01*
X85665930Y-127940039D01*
X85622904Y-128001489D01*
X85529581Y-128201620D01*
X85529579Y-128201624D01*
X85472427Y-128414921D01*
X85453181Y-128634901D01*
X85472427Y-128854880D01*
X85529579Y-129068177D01*
X85529581Y-129068181D01*
X85622904Y-129268312D01*
X85665930Y-129329760D01*
X86235843Y-128759847D01*
X86254077Y-128827893D01*
X86319903Y-128941907D01*
X86412995Y-129034999D01*
X86527009Y-129100825D01*
X86595053Y-129119058D01*
X86025140Y-129688970D01*
X86025140Y-129688972D01*
X86086587Y-129731997D01*
X86146221Y-129759805D01*
X86199506Y-129806722D01*
X86218967Y-129875000D01*
X86198425Y-129942960D01*
X86144402Y-129989025D01*
X86092971Y-130000000D01*
X80847029Y-130000000D01*
X80778908Y-129979998D01*
X80732415Y-129926342D01*
X80722311Y-129856068D01*
X80751805Y-129791488D01*
X80793779Y-129759805D01*
X80853404Y-129732001D01*
X80914858Y-129688970D01*
X80914858Y-129688969D01*
X80344946Y-129119057D01*
X80412991Y-129100825D01*
X80527005Y-129034999D01*
X80620097Y-128941907D01*
X80685923Y-128827893D01*
X80704155Y-128759848D01*
X81274067Y-129329760D01*
X81274068Y-129329760D01*
X81317099Y-129268306D01*
X81410418Y-129068182D01*
X81410420Y-129068177D01*
X81467572Y-128854880D01*
X81486818Y-128634901D01*
X81467572Y-128414921D01*
X81410420Y-128201624D01*
X81410418Y-128201619D01*
X81317095Y-128001487D01*
X81274070Y-127940040D01*
X81274068Y-127940040D01*
X80704155Y-128509952D01*
X80685923Y-128441909D01*
X80620097Y-128327895D01*
X80527005Y-128234803D01*
X80412991Y-128168977D01*
X80344945Y-128150743D01*
X80914858Y-127580830D01*
X80853410Y-127537804D01*
X80653279Y-127444481D01*
X80653275Y-127444479D01*
X80439978Y-127387327D01*
X80219999Y-127368081D01*
X80000019Y-127387327D01*
X79786722Y-127444479D01*
X79786718Y-127444481D01*
X79586587Y-127537804D01*
X79525137Y-127580830D01*
X80095051Y-128150744D01*
X80027007Y-128168977D01*
X79912993Y-128234803D01*
X79819901Y-128327895D01*
X79754075Y-128441909D01*
X79735842Y-128509953D01*
X79165928Y-127940039D01*
X79126939Y-127995724D01*
X79071482Y-128040053D01*
X79000863Y-128047363D01*
X78937502Y-128015332D01*
X78909531Y-127976705D01*
X78907100Y-127971491D01*
X78907097Y-127971487D01*
X78864072Y-127910040D01*
X78864070Y-127910040D01*
X78294157Y-128479952D01*
X78275925Y-128411909D01*
X78210099Y-128297895D01*
X78117007Y-128204803D01*
X78002993Y-128138977D01*
X77934947Y-128120743D01*
X78504860Y-127550830D01*
X78443412Y-127507804D01*
X78243281Y-127414481D01*
X78243277Y-127414479D01*
X78029980Y-127357327D01*
X77810001Y-127338081D01*
X77590021Y-127357327D01*
X77376724Y-127414479D01*
X77376720Y-127414481D01*
X77176589Y-127507804D01*
X77115139Y-127550830D01*
X77685053Y-128120744D01*
X77617009Y-128138977D01*
X77502995Y-128204803D01*
X77409903Y-128297895D01*
X77344077Y-128411909D01*
X77325844Y-128479953D01*
X76755930Y-127910039D01*
X76712904Y-127971489D01*
X76619581Y-128171620D01*
X76619579Y-128171624D01*
X76562427Y-128384921D01*
X76543181Y-128604901D01*
X76562427Y-128824880D01*
X76619579Y-129038177D01*
X76619581Y-129038181D01*
X76712904Y-129238312D01*
X76755930Y-129299760D01*
X77325843Y-128729847D01*
X77344077Y-128797893D01*
X77409903Y-128911907D01*
X77502995Y-129004999D01*
X77617009Y-129070825D01*
X77685053Y-129089058D01*
X77115140Y-129658970D01*
X77115140Y-129658972D01*
X77176587Y-129701997D01*
X77300556Y-129759805D01*
X77353841Y-129806722D01*
X77373302Y-129875000D01*
X77352760Y-129942960D01*
X77298737Y-129989025D01*
X77247306Y-130000000D01*
X71872694Y-130000000D01*
X71804573Y-129979998D01*
X71758080Y-129926342D01*
X71747976Y-129856068D01*
X71777470Y-129791488D01*
X71819444Y-129759805D01*
X71943404Y-129702001D01*
X72004858Y-129658970D01*
X72004858Y-129658969D01*
X71434946Y-129089057D01*
X71502991Y-129070825D01*
X71617005Y-129004999D01*
X71710097Y-128911907D01*
X71775923Y-128797893D01*
X71794155Y-128729848D01*
X72364067Y-129299760D01*
X72364068Y-129299760D01*
X72407099Y-129238306D01*
X72500418Y-129038182D01*
X72500420Y-129038177D01*
X72557572Y-128824880D01*
X72576818Y-128604901D01*
X72557572Y-128384921D01*
X72500420Y-128171624D01*
X72500418Y-128171619D01*
X72407095Y-127971487D01*
X72364070Y-127910040D01*
X72364068Y-127910040D01*
X71794155Y-128479952D01*
X71775923Y-128411909D01*
X71710097Y-128297895D01*
X71617005Y-128204803D01*
X71502991Y-128138977D01*
X71434945Y-128120743D01*
X72004858Y-127550830D01*
X71943410Y-127507804D01*
X71743279Y-127414481D01*
X71743275Y-127414479D01*
X71529978Y-127357327D01*
X71309999Y-127338081D01*
X71090019Y-127357327D01*
X70876722Y-127414479D01*
X70876718Y-127414481D01*
X70676587Y-127507804D01*
X70615137Y-127550830D01*
X71185051Y-128120744D01*
X71117007Y-128138977D01*
X71002993Y-128204803D01*
X70909901Y-128297895D01*
X70844075Y-128411909D01*
X70825842Y-128479953D01*
X70255928Y-127910039D01*
X70212902Y-127971489D01*
X70119579Y-128171620D01*
X70119577Y-128171624D01*
X70062425Y-128384921D01*
X70043179Y-128604901D01*
X70062425Y-128824880D01*
X70119577Y-129038177D01*
X70119579Y-129038181D01*
X70212902Y-129238312D01*
X70255928Y-129299760D01*
X70825841Y-128729847D01*
X70844075Y-128797893D01*
X70909901Y-128911907D01*
X71002993Y-129004999D01*
X71117007Y-129070825D01*
X71185051Y-129089058D01*
X70615138Y-129658970D01*
X70615138Y-129658972D01*
X70676585Y-129701997D01*
X70800554Y-129759805D01*
X70853839Y-129806722D01*
X70873300Y-129875000D01*
X70852758Y-129942960D01*
X70798735Y-129989025D01*
X70747304Y-130000000D01*
X51496247Y-130000000D01*
X51493776Y-129999976D01*
X51385802Y-129997858D01*
X51368562Y-129996331D01*
X51154082Y-129962360D01*
X51134857Y-129957744D01*
X50929520Y-129891027D01*
X50911253Y-129883461D01*
X50718869Y-129785436D01*
X50702025Y-129775114D01*
X50527335Y-129648194D01*
X50512307Y-129635357D01*
X50359642Y-129482692D01*
X50346806Y-129467665D01*
X50219882Y-129292971D01*
X50209565Y-129276134D01*
X50111535Y-129083739D01*
X50103975Y-129065487D01*
X50037255Y-128860142D01*
X50032639Y-128840917D01*
X50001551Y-128644634D01*
X50000000Y-128624923D01*
X50000000Y-126875919D01*
X62282562Y-126875919D01*
X62282562Y-127124081D01*
X62308113Y-127277203D01*
X62323407Y-127368856D01*
X62323409Y-127368863D01*
X62403984Y-127603573D01*
X62403985Y-127603575D01*
X62403986Y-127603576D01*
X62522098Y-127821828D01*
X62661934Y-128001489D01*
X62674528Y-128017669D01*
X62857101Y-128185739D01*
X63064855Y-128321471D01*
X63064854Y-128321471D01*
X63209506Y-128384921D01*
X63292116Y-128421157D01*
X63292117Y-128421157D01*
X63292119Y-128421158D01*
X63532677Y-128482075D01*
X63532685Y-128482077D01*
X63780000Y-128502571D01*
X64027315Y-128482077D01*
X64267884Y-128421157D01*
X64495145Y-128321471D01*
X64702898Y-128185739D01*
X64718236Y-128171619D01*
X64885471Y-128017669D01*
X64885472Y-128017667D01*
X64885477Y-128017663D01*
X65037902Y-127821828D01*
X65156014Y-127603576D01*
X65236592Y-127368859D01*
X65277438Y-127124081D01*
X65280000Y-127000000D01*
X65277438Y-126875919D01*
X93102562Y-126875919D01*
X93102562Y-127124081D01*
X93128113Y-127277203D01*
X93143407Y-127368856D01*
X93143409Y-127368863D01*
X93223984Y-127603573D01*
X93223985Y-127603575D01*
X93223986Y-127603576D01*
X93342098Y-127821828D01*
X93481934Y-128001489D01*
X93494528Y-128017669D01*
X93677101Y-128185739D01*
X93884855Y-128321471D01*
X93884854Y-128321471D01*
X94029506Y-128384921D01*
X94112116Y-128421157D01*
X94112117Y-128421157D01*
X94112119Y-128421158D01*
X94352677Y-128482075D01*
X94352685Y-128482077D01*
X94600000Y-128502571D01*
X94847315Y-128482077D01*
X95087884Y-128421157D01*
X95315145Y-128321471D01*
X95522898Y-128185739D01*
X95538236Y-128171619D01*
X95705471Y-128017669D01*
X95705472Y-128017667D01*
X95705477Y-128017663D01*
X95857902Y-127821828D01*
X95976014Y-127603576D01*
X96056592Y-127368859D01*
X96097438Y-127124081D01*
X96100000Y-127000000D01*
X96097438Y-126875919D01*
X96056592Y-126631141D01*
X95976014Y-126396424D01*
X95857902Y-126178172D01*
X95705477Y-125982337D01*
X95705475Y-125982335D01*
X95705471Y-125982330D01*
X95522898Y-125814260D01*
X95315144Y-125678528D01*
X95315145Y-125678528D01*
X95087887Y-125578844D01*
X95087880Y-125578841D01*
X94847322Y-125517924D01*
X94847317Y-125517923D01*
X94847315Y-125517923D01*
X94600000Y-125497430D01*
X94352685Y-125517923D01*
X94352683Y-125517923D01*
X94352677Y-125517924D01*
X94112119Y-125578841D01*
X94112112Y-125578844D01*
X93884855Y-125678528D01*
X93677101Y-125814260D01*
X93494528Y-125982330D01*
X93342098Y-126178171D01*
X93342097Y-126178172D01*
X93223985Y-126396424D01*
X93223984Y-126396426D01*
X93143409Y-126631136D01*
X93143407Y-126631143D01*
X93126725Y-126731118D01*
X93102562Y-126875919D01*
X65277438Y-126875919D01*
X65236592Y-126631141D01*
X65156014Y-126396424D01*
X65037902Y-126178172D01*
X64885477Y-125982337D01*
X64885475Y-125982335D01*
X64885471Y-125982330D01*
X64702898Y-125814260D01*
X64495144Y-125678528D01*
X64495145Y-125678528D01*
X64267887Y-125578844D01*
X64267880Y-125578841D01*
X64027322Y-125517924D01*
X64027317Y-125517923D01*
X64027315Y-125517923D01*
X63780000Y-125497430D01*
X63532685Y-125517923D01*
X63532683Y-125517923D01*
X63532677Y-125517924D01*
X63292119Y-125578841D01*
X63292112Y-125578844D01*
X63064855Y-125678528D01*
X62857101Y-125814260D01*
X62674528Y-125982330D01*
X62522098Y-126178171D01*
X62522097Y-126178172D01*
X62403985Y-126396424D01*
X62403984Y-126396426D01*
X62323409Y-126631136D01*
X62323407Y-126631143D01*
X62306725Y-126731118D01*
X62282562Y-126875919D01*
X50000000Y-126875919D01*
X50000000Y-124475093D01*
X51034500Y-124475093D01*
X51034500Y-124624906D01*
X51058403Y-124745073D01*
X51063725Y-124771830D01*
X51121053Y-124910232D01*
X51170164Y-124983732D01*
X51204280Y-125034790D01*
X51204285Y-125034796D01*
X51310203Y-125140714D01*
X51310209Y-125140719D01*
X51434768Y-125223947D01*
X51573170Y-125281275D01*
X51720097Y-125310500D01*
X51720098Y-125310500D01*
X51869902Y-125310500D01*
X51869903Y-125310500D01*
X52016830Y-125281275D01*
X52155232Y-125223947D01*
X52279791Y-125140719D01*
X52385719Y-125034791D01*
X52468947Y-124910232D01*
X52526275Y-124771830D01*
X52555500Y-124624903D01*
X52555500Y-124475097D01*
X52555499Y-124475093D01*
X57384500Y-124475093D01*
X57384500Y-124624906D01*
X57408403Y-124745073D01*
X57413725Y-124771830D01*
X57471053Y-124910232D01*
X57520164Y-124983732D01*
X57554280Y-125034790D01*
X57554285Y-125034796D01*
X57660203Y-125140714D01*
X57660209Y-125140719D01*
X57784768Y-125223947D01*
X57923170Y-125281275D01*
X58070097Y-125310500D01*
X58070098Y-125310500D01*
X58219902Y-125310500D01*
X58219903Y-125310500D01*
X58366830Y-125281275D01*
X58505232Y-125223947D01*
X58629791Y-125140719D01*
X58735719Y-125034791D01*
X58818947Y-124910232D01*
X58876275Y-124771830D01*
X58905500Y-124624903D01*
X58905500Y-124475097D01*
X58876275Y-124328170D01*
X58818947Y-124189768D01*
X58735719Y-124065209D01*
X58735714Y-124065203D01*
X58629796Y-123959285D01*
X58629790Y-123959280D01*
X58573332Y-123921556D01*
X58505232Y-123876053D01*
X58366830Y-123818725D01*
X58219906Y-123789500D01*
X58219903Y-123789500D01*
X58070097Y-123789500D01*
X58070093Y-123789500D01*
X57923169Y-123818725D01*
X57923164Y-123818727D01*
X57784768Y-123876053D01*
X57660209Y-123959280D01*
X57660203Y-123959285D01*
X57554285Y-124065203D01*
X57554280Y-124065209D01*
X57471053Y-124189768D01*
X57413727Y-124328164D01*
X57413725Y-124328169D01*
X57384500Y-124475093D01*
X52555499Y-124475093D01*
X52526275Y-124328170D01*
X52468947Y-124189768D01*
X52385719Y-124065209D01*
X52385714Y-124065203D01*
X52279796Y-123959285D01*
X52279790Y-123959280D01*
X52223332Y-123921556D01*
X52155232Y-123876053D01*
X52016830Y-123818725D01*
X51869906Y-123789500D01*
X51869903Y-123789500D01*
X51720097Y-123789500D01*
X51720093Y-123789500D01*
X51573169Y-123818725D01*
X51573164Y-123818727D01*
X51434768Y-123876053D01*
X51310209Y-123959280D01*
X51310203Y-123959285D01*
X51204285Y-124065203D01*
X51204280Y-124065209D01*
X51121053Y-124189768D01*
X51063727Y-124328164D01*
X51063725Y-124328169D01*
X51034500Y-124475093D01*
X50000000Y-124475093D01*
X50000000Y-122515012D01*
X56596496Y-122515012D01*
X56616457Y-122704939D01*
X56641673Y-122782543D01*
X56675473Y-122886568D01*
X56675476Y-122886573D01*
X56770958Y-123051953D01*
X56770965Y-123051963D01*
X56898744Y-123193876D01*
X56898747Y-123193878D01*
X57053248Y-123306130D01*
X57227712Y-123383806D01*
X57414513Y-123423512D01*
X57605487Y-123423512D01*
X57792288Y-123383806D01*
X57966752Y-123306130D01*
X58121253Y-123193878D01*
X58121255Y-123193876D01*
X58169584Y-123140202D01*
X58230030Y-123102962D01*
X58263220Y-123098512D01*
X62070500Y-123098512D01*
X62138621Y-123118514D01*
X62185114Y-123172170D01*
X62196500Y-123224512D01*
X62196500Y-123872122D01*
X62196499Y-123872122D01*
X62219855Y-123959285D01*
X62236265Y-124020528D01*
X62271596Y-124081723D01*
X62313084Y-124153583D01*
X62313086Y-124153585D01*
X62313089Y-124153589D01*
X63066412Y-124906912D01*
X63066420Y-124906918D01*
X63132942Y-124945323D01*
X63132944Y-124945325D01*
X63199466Y-124983732D01*
X63199469Y-124983733D01*
X63199472Y-124983735D01*
X63347876Y-125023500D01*
X69206116Y-125023500D01*
X69274237Y-125043502D01*
X69295211Y-125060405D01*
X70419959Y-126185153D01*
X70450696Y-126235310D01*
X70475471Y-126311557D01*
X70475472Y-126311559D01*
X70570957Y-126476942D01*
X70570964Y-126476952D01*
X70698743Y-126618865D01*
X70715642Y-126631143D01*
X70853247Y-126731119D01*
X71027711Y-126808795D01*
X71214512Y-126848501D01*
X71405486Y-126848501D01*
X71592287Y-126808795D01*
X71766751Y-126731119D01*
X71921252Y-126618867D01*
X72049039Y-126476945D01*
X72144526Y-126311557D01*
X72203541Y-126129929D01*
X72223503Y-125940001D01*
X72203541Y-125750073D01*
X72144526Y-125568445D01*
X72049039Y-125403057D01*
X71992794Y-125340591D01*
X71962078Y-125276584D01*
X71970842Y-125206130D01*
X72014161Y-125153068D01*
X72081771Y-125105727D01*
X72124618Y-125075725D01*
X72280824Y-124919519D01*
X72407532Y-124738561D01*
X72500892Y-124538350D01*
X72558068Y-124324968D01*
X72577321Y-124104900D01*
X72558068Y-123884832D01*
X72500892Y-123671450D01*
X72407532Y-123471239D01*
X72407531Y-123471238D01*
X72405207Y-123466253D01*
X72406586Y-123465609D01*
X72391523Y-123403492D01*
X72414751Y-123336403D01*
X72470562Y-123292521D01*
X72517380Y-123283500D01*
X74226817Y-123283500D01*
X74226819Y-123283500D01*
X74375223Y-123243735D01*
X74447503Y-123202003D01*
X74516495Y-123185267D01*
X74583587Y-123208487D01*
X74627474Y-123264294D01*
X74636500Y-123311124D01*
X74636500Y-124051943D01*
X74616498Y-124120064D01*
X74604137Y-124136253D01*
X74480961Y-124273054D01*
X74480958Y-124273058D01*
X74385476Y-124438438D01*
X74385473Y-124438445D01*
X74326457Y-124620072D01*
X74306496Y-124810000D01*
X74326457Y-124999927D01*
X74337787Y-125034796D01*
X74385473Y-125181556D01*
X74385476Y-125181561D01*
X74480958Y-125346941D01*
X74480965Y-125346951D01*
X74608744Y-125488864D01*
X74608747Y-125488866D01*
X74763248Y-125601118D01*
X74937712Y-125678794D01*
X75124513Y-125718500D01*
X75315487Y-125718500D01*
X75502288Y-125678794D01*
X75676752Y-125601118D01*
X75831253Y-125488866D01*
X75908516Y-125403057D01*
X75959034Y-125346951D01*
X75959035Y-125346949D01*
X75959040Y-125346944D01*
X76054527Y-125181556D01*
X76113542Y-124999928D01*
X76133504Y-124810000D01*
X76113542Y-124620072D01*
X76054527Y-124438444D01*
X75959040Y-124273056D01*
X75895436Y-124202416D01*
X75835863Y-124136253D01*
X75820817Y-124104900D01*
X76542679Y-124104900D01*
X76561932Y-124324968D01*
X76601566Y-124472882D01*
X76619107Y-124538347D01*
X76619109Y-124538352D01*
X76712468Y-124738561D01*
X76839169Y-124919510D01*
X76839176Y-124919519D01*
X76995382Y-125075725D01*
X77176340Y-125202433D01*
X77376551Y-125295793D01*
X77589933Y-125352969D01*
X77810001Y-125372222D01*
X78030069Y-125352969D01*
X78243451Y-125295793D01*
X78443662Y-125202433D01*
X78624620Y-125075725D01*
X78780826Y-124919519D01*
X78902974Y-124745072D01*
X78958430Y-124700744D01*
X79029050Y-124693435D01*
X79092410Y-124725465D01*
X79120379Y-124764088D01*
X79122463Y-124768556D01*
X79122463Y-124768558D01*
X79228169Y-124919521D01*
X79249174Y-124949519D01*
X79405380Y-125105725D01*
X79586338Y-125232433D01*
X79786549Y-125325793D01*
X79999931Y-125382969D01*
X80219999Y-125402222D01*
X80440067Y-125382969D01*
X80653449Y-125325793D01*
X80853660Y-125232433D01*
X81034618Y-125105725D01*
X81190824Y-124949519D01*
X81317532Y-124768561D01*
X81410892Y-124568350D01*
X81468068Y-124354968D01*
X81487321Y-124134900D01*
X85452679Y-124134900D01*
X85471932Y-124354968D01*
X85529108Y-124568350D01*
X85622468Y-124768561D01*
X85749176Y-124949519D01*
X85905382Y-125105725D01*
X86086340Y-125232433D01*
X86286551Y-125325793D01*
X86499933Y-125382969D01*
X86720001Y-125402222D01*
X86940069Y-125382969D01*
X87153451Y-125325793D01*
X87353662Y-125232433D01*
X87534620Y-125105725D01*
X87690826Y-124949519D01*
X87817534Y-124768561D01*
X87910894Y-124568350D01*
X87968070Y-124354968D01*
X87987323Y-124134900D01*
X87968070Y-123914832D01*
X87910894Y-123701450D01*
X87817534Y-123501239D01*
X87690826Y-123320281D01*
X87534620Y-123164075D01*
X87534347Y-123163884D01*
X87353662Y-123037367D01*
X87153453Y-122944008D01*
X87153448Y-122944006D01*
X87111594Y-122932791D01*
X86940069Y-122886831D01*
X86720001Y-122867578D01*
X86499933Y-122886831D01*
X86398512Y-122914007D01*
X86286553Y-122944006D01*
X86286548Y-122944008D01*
X86086339Y-123037367D01*
X85905385Y-123164072D01*
X85905379Y-123164077D01*
X85749178Y-123320278D01*
X85749173Y-123320284D01*
X85622468Y-123501238D01*
X85529109Y-123701447D01*
X85529107Y-123701452D01*
X85505515Y-123789500D01*
X85471932Y-123914832D01*
X85452679Y-124134900D01*
X81487321Y-124134900D01*
X81468068Y-123914832D01*
X81410892Y-123701450D01*
X81317532Y-123501239D01*
X81190824Y-123320281D01*
X81034618Y-123164075D01*
X81034345Y-123163884D01*
X80853660Y-123037367D01*
X80653451Y-122944008D01*
X80653446Y-122944006D01*
X80611592Y-122932791D01*
X80440067Y-122886831D01*
X80219999Y-122867578D01*
X79999931Y-122886831D01*
X79898510Y-122914007D01*
X79786551Y-122944006D01*
X79786546Y-122944008D01*
X79586337Y-123037367D01*
X79405383Y-123164072D01*
X79405377Y-123164077D01*
X79249176Y-123320278D01*
X79249171Y-123320284D01*
X79127025Y-123494727D01*
X79071568Y-123539055D01*
X79000948Y-123546364D01*
X78937588Y-123514333D01*
X78909617Y-123475706D01*
X78909609Y-123475689D01*
X78907534Y-123471239D01*
X78780826Y-123290281D01*
X78624620Y-123134075D01*
X78507337Y-123051953D01*
X78443662Y-123007367D01*
X78243453Y-122914008D01*
X78243448Y-122914006D01*
X78201594Y-122902791D01*
X78030069Y-122856831D01*
X77810001Y-122837578D01*
X77589933Y-122856831D01*
X77478961Y-122886566D01*
X77376553Y-122914006D01*
X77376548Y-122914008D01*
X77176339Y-123007367D01*
X76995385Y-123134072D01*
X76995379Y-123134077D01*
X76839178Y-123290278D01*
X76839173Y-123290284D01*
X76712468Y-123471238D01*
X76619109Y-123671447D01*
X76619107Y-123671452D01*
X76611070Y-123701447D01*
X76561932Y-123884832D01*
X76542679Y-124104900D01*
X75820817Y-124104900D01*
X75805146Y-124072245D01*
X75803500Y-124051943D01*
X75803500Y-123163884D01*
X75823502Y-123095763D01*
X75840400Y-123074793D01*
X76466054Y-122449138D01*
X76528365Y-122415115D01*
X76581345Y-122414989D01*
X76630550Y-122425448D01*
X76821524Y-122425448D01*
X77008325Y-122385742D01*
X77182789Y-122308066D01*
X77337290Y-122195814D01*
X77337292Y-122195812D01*
X77465071Y-122053899D01*
X77465072Y-122053897D01*
X77465077Y-122053892D01*
X77560564Y-121888504D01*
X77619579Y-121706876D01*
X77639541Y-121516948D01*
X77619579Y-121327020D01*
X77560564Y-121145392D01*
X77465077Y-120980004D01*
X77465075Y-120980002D01*
X77465071Y-120979996D01*
X77337292Y-120838083D01*
X77230241Y-120760306D01*
X77186887Y-120704084D01*
X77185248Y-120685000D01*
X94631844Y-120685000D01*
X94647996Y-120879928D01*
X94650437Y-120909375D01*
X94705702Y-121127612D01*
X94705703Y-121127613D01*
X94705704Y-121127616D01*
X94796140Y-121333791D01*
X94796141Y-121333793D01*
X94919275Y-121522265D01*
X94919280Y-121522270D01*
X95062475Y-121677820D01*
X95093896Y-121741485D01*
X95085909Y-121812031D01*
X95041051Y-121867060D01*
X95013807Y-121881213D01*
X94898797Y-121924110D01*
X94898792Y-121924112D01*
X94781738Y-122011738D01*
X94694112Y-122128792D01*
X94694110Y-122128797D01*
X94643011Y-122265795D01*
X94643009Y-122265803D01*
X94636500Y-122326350D01*
X94636500Y-124123649D01*
X94643009Y-124184196D01*
X94643011Y-124184204D01*
X94694110Y-124321202D01*
X94694112Y-124321207D01*
X94781738Y-124438261D01*
X94898792Y-124525887D01*
X94898794Y-124525888D01*
X94898796Y-124525889D01*
X94952600Y-124545957D01*
X95035795Y-124576988D01*
X95035803Y-124576990D01*
X95096350Y-124583499D01*
X95096355Y-124583499D01*
X95096362Y-124583500D01*
X95096368Y-124583500D01*
X96893632Y-124583500D01*
X96893638Y-124583500D01*
X96893645Y-124583499D01*
X96893649Y-124583499D01*
X96954196Y-124576990D01*
X96954199Y-124576989D01*
X96954201Y-124576989D01*
X97091204Y-124525889D01*
X97124845Y-124500706D01*
X97208261Y-124438261D01*
X97295886Y-124321208D01*
X97295885Y-124321208D01*
X97295889Y-124321204D01*
X97340196Y-124202413D01*
X97382741Y-124145581D01*
X97449262Y-124120770D01*
X97518636Y-124135862D01*
X97550952Y-124161112D01*
X97612097Y-124227534D01*
X97789698Y-124365767D01*
X97789699Y-124365768D01*
X97987628Y-124472882D01*
X97987630Y-124472883D01*
X98200483Y-124545955D01*
X98200492Y-124545957D01*
X98281000Y-124559391D01*
X98281000Y-123655702D01*
X98342007Y-123690925D01*
X98469174Y-123725000D01*
X98600826Y-123725000D01*
X98727993Y-123690925D01*
X98789000Y-123655702D01*
X98789000Y-124559390D01*
X98869507Y-124545957D01*
X98869516Y-124545955D01*
X99082369Y-124472883D01*
X99082371Y-124472882D01*
X99280300Y-124365768D01*
X99280301Y-124365767D01*
X99457902Y-124227534D01*
X99610325Y-124061958D01*
X99733419Y-123873548D01*
X99823820Y-123667456D01*
X99823823Y-123667449D01*
X99871544Y-123479000D01*
X98965703Y-123479000D01*
X99000925Y-123417993D01*
X99035000Y-123290826D01*
X99035000Y-123159174D01*
X99000925Y-123032007D01*
X98965703Y-122971000D01*
X99871544Y-122971000D01*
X99871544Y-122970999D01*
X99823823Y-122782550D01*
X99823820Y-122782543D01*
X99733419Y-122576451D01*
X99610325Y-122388041D01*
X99457902Y-122222465D01*
X99280301Y-122084232D01*
X99280300Y-122084231D01*
X99246267Y-122065814D01*
X99195876Y-122015801D01*
X99180524Y-121946484D01*
X99205085Y-121879871D01*
X99246267Y-121844186D01*
X99280300Y-121825768D01*
X99280301Y-121825767D01*
X99457902Y-121687534D01*
X99610325Y-121521958D01*
X99733419Y-121333548D01*
X99823820Y-121127456D01*
X99823823Y-121127449D01*
X99871544Y-120939000D01*
X98965703Y-120939000D01*
X99000925Y-120877993D01*
X99035000Y-120750826D01*
X99035000Y-120619174D01*
X99000925Y-120492007D01*
X98965703Y-120431000D01*
X99871544Y-120431000D01*
X99871544Y-120430999D01*
X99823823Y-120242550D01*
X99823820Y-120242543D01*
X99733419Y-120036451D01*
X99610325Y-119848041D01*
X99457902Y-119682465D01*
X99280301Y-119544232D01*
X99280300Y-119544231D01*
X99082371Y-119437117D01*
X99082369Y-119437116D01*
X98869512Y-119364043D01*
X98869501Y-119364040D01*
X98789000Y-119350606D01*
X98789000Y-120254297D01*
X98727993Y-120219075D01*
X98600826Y-120185000D01*
X98469174Y-120185000D01*
X98342007Y-120219075D01*
X98281000Y-120254297D01*
X98281000Y-119350607D01*
X98280999Y-119350606D01*
X98200498Y-119364040D01*
X98200487Y-119364043D01*
X97987630Y-119437116D01*
X97987628Y-119437117D01*
X97789699Y-119544231D01*
X97789698Y-119544232D01*
X97612097Y-119682465D01*
X97459670Y-119848045D01*
X97370780Y-119984101D01*
X97316776Y-120030189D01*
X97246428Y-120039764D01*
X97182071Y-120009786D01*
X97159816Y-119984101D01*
X97097607Y-119888882D01*
X97070724Y-119847734D01*
X97070720Y-119847729D01*
X96954570Y-119721559D01*
X96918240Y-119682094D01*
X96918239Y-119682093D01*
X96918237Y-119682091D01*
X96821530Y-119606821D01*
X96740576Y-119543811D01*
X96542574Y-119436658D01*
X96542572Y-119436657D01*
X96542571Y-119436656D01*
X96329639Y-119363557D01*
X96329630Y-119363555D01*
X96252029Y-119350606D01*
X96107569Y-119326500D01*
X95882431Y-119326500D01*
X95737971Y-119350606D01*
X95660369Y-119363555D01*
X95660360Y-119363557D01*
X95447428Y-119436656D01*
X95447426Y-119436658D01*
X95249424Y-119543811D01*
X95210779Y-119573890D01*
X95071762Y-119682091D01*
X94919279Y-119847729D01*
X94919275Y-119847734D01*
X94796141Y-120036206D01*
X94705703Y-120242386D01*
X94705702Y-120242387D01*
X94650437Y-120460624D01*
X94650436Y-120460630D01*
X94650436Y-120460632D01*
X94631844Y-120685000D01*
X77185248Y-120685000D01*
X77180812Y-120633347D01*
X77213943Y-120570556D01*
X77215063Y-120569419D01*
X78844484Y-118939999D01*
X80876497Y-118939999D01*
X80896458Y-119129926D01*
X80919227Y-119200000D01*
X80955474Y-119311555D01*
X80955475Y-119311556D01*
X80955477Y-119311560D01*
X81050959Y-119476940D01*
X81050966Y-119476950D01*
X81178745Y-119618863D01*
X81178748Y-119618865D01*
X81333249Y-119731117D01*
X81507713Y-119808793D01*
X81694514Y-119848499D01*
X81885488Y-119848499D01*
X82072289Y-119808793D01*
X82246753Y-119731117D01*
X82401254Y-119618865D01*
X82468834Y-119543810D01*
X82529035Y-119476950D01*
X82529036Y-119476948D01*
X82529041Y-119476943D01*
X82624528Y-119311555D01*
X82645354Y-119247457D01*
X82676089Y-119197301D01*
X86273003Y-115600389D01*
X86361484Y-115467968D01*
X86395756Y-115385226D01*
X86422430Y-115320831D01*
X86453500Y-115164630D01*
X86453500Y-114927123D01*
X86470381Y-114864123D01*
X86470564Y-114863804D01*
X86479527Y-114848282D01*
X86538542Y-114666654D01*
X86558504Y-114476726D01*
X86538542Y-114286798D01*
X86479527Y-114105170D01*
X86384040Y-113939782D01*
X86384038Y-113939780D01*
X86384034Y-113939774D01*
X86256255Y-113797861D01*
X86101752Y-113685608D01*
X85927288Y-113607932D01*
X85740487Y-113568226D01*
X85549513Y-113568226D01*
X85362711Y-113607932D01*
X85188247Y-113685608D01*
X85033744Y-113797861D01*
X84905965Y-113939774D01*
X84905958Y-113939784D01*
X84810476Y-114105164D01*
X84810473Y-114105170D01*
X84795999Y-114149712D01*
X84751457Y-114286798D01*
X84731496Y-114476726D01*
X84751457Y-114666653D01*
X84768919Y-114720393D01*
X84770947Y-114791361D01*
X84738181Y-114848425D01*
X81538086Y-118048520D01*
X81500240Y-118074532D01*
X81333248Y-118148881D01*
X81178745Y-118261134D01*
X81050966Y-118403047D01*
X81050959Y-118403057D01*
X80955477Y-118568437D01*
X80955474Y-118568444D01*
X80896458Y-118750071D01*
X80876497Y-118939999D01*
X78844484Y-118939999D01*
X79572071Y-118212413D01*
X79641400Y-118108655D01*
X79689155Y-117993365D01*
X79713500Y-117870974D01*
X79713500Y-117746186D01*
X79713500Y-111754594D01*
X79733502Y-111686473D01*
X79750405Y-111665499D01*
X79750499Y-111665405D01*
X79812811Y-111631379D01*
X79839594Y-111628500D01*
X79895487Y-111628500D01*
X80082288Y-111588794D01*
X80256752Y-111511118D01*
X80411253Y-111398866D01*
X80439979Y-111366963D01*
X80539034Y-111256951D01*
X80539035Y-111256949D01*
X80539040Y-111256944D01*
X80634527Y-111091556D01*
X80693542Y-110909928D01*
X80713504Y-110720000D01*
X80693542Y-110530072D01*
X80634527Y-110348444D01*
X80539040Y-110183056D01*
X80539038Y-110183054D01*
X80539034Y-110183048D01*
X80473261Y-110110000D01*
X89626496Y-110110000D01*
X89646457Y-110299927D01*
X89656553Y-110330998D01*
X89705473Y-110481556D01*
X89800960Y-110646944D01*
X89899136Y-110755980D01*
X89929853Y-110819987D01*
X89931500Y-110840290D01*
X89931500Y-111750786D01*
X89931500Y-111911006D01*
X89972968Y-112065769D01*
X89972969Y-112065771D01*
X89972970Y-112065773D01*
X90053075Y-112204519D01*
X90053083Y-112204529D01*
X92712515Y-114863960D01*
X92746541Y-114926272D01*
X92749420Y-114953055D01*
X92749420Y-114953819D01*
X92769381Y-115143747D01*
X92785884Y-115194535D01*
X92828397Y-115325376D01*
X92828400Y-115325381D01*
X92923882Y-115490761D01*
X92923889Y-115490771D01*
X93051668Y-115632684D01*
X93051671Y-115632686D01*
X93206172Y-115744938D01*
X93380636Y-115822614D01*
X93567437Y-115862320D01*
X93758415Y-115862320D01*
X93839302Y-115845126D01*
X93910093Y-115850527D01*
X93966726Y-115893343D01*
X93991220Y-115959980D01*
X93991500Y-115968372D01*
X93991500Y-116757497D01*
X93971498Y-116825618D01*
X93959136Y-116841807D01*
X93840965Y-116973048D01*
X93840958Y-116973058D01*
X93745476Y-117138438D01*
X93745473Y-117138445D01*
X93686457Y-117320072D01*
X93666496Y-117510000D01*
X93686457Y-117699927D01*
X93692611Y-117718866D01*
X93745473Y-117881556D01*
X93745476Y-117881561D01*
X93840958Y-118046941D01*
X93840965Y-118046951D01*
X93968744Y-118188864D01*
X94028889Y-118232562D01*
X94123248Y-118301118D01*
X94297712Y-118378794D01*
X94484513Y-118418500D01*
X94675487Y-118418500D01*
X94862288Y-118378794D01*
X95036752Y-118301118D01*
X95191253Y-118188866D01*
X95191255Y-118188864D01*
X95319034Y-118046951D01*
X95319035Y-118046949D01*
X95319040Y-118046944D01*
X95414527Y-117881556D01*
X95473542Y-117699928D01*
X95493504Y-117510000D01*
X95473542Y-117320072D01*
X95414527Y-117138444D01*
X95319040Y-116973056D01*
X95240863Y-116886231D01*
X95210146Y-116822223D01*
X95208500Y-116801921D01*
X95208500Y-116670000D01*
X97831496Y-116670000D01*
X97851457Y-116859927D01*
X97857611Y-116878866D01*
X97910473Y-117041556D01*
X97910476Y-117041561D01*
X98005958Y-117206941D01*
X98005965Y-117206951D01*
X98133744Y-117348864D01*
X98133747Y-117348866D01*
X98288248Y-117461118D01*
X98462712Y-117538794D01*
X98649513Y-117578500D01*
X98840487Y-117578500D01*
X99027288Y-117538794D01*
X99138245Y-117489393D01*
X99189494Y-117478500D01*
X100041377Y-117478500D01*
X100109498Y-117498502D01*
X100150496Y-117541499D01*
X100170960Y-117576944D01*
X100170965Y-117576951D01*
X100298744Y-117718864D01*
X100298747Y-117718866D01*
X100453248Y-117831118D01*
X100627712Y-117908794D01*
X100814513Y-117948500D01*
X101005487Y-117948500D01*
X101192288Y-117908794D01*
X101366752Y-117831118D01*
X101521253Y-117718866D01*
X101521255Y-117718864D01*
X101649034Y-117576951D01*
X101649035Y-117576949D01*
X101649040Y-117576944D01*
X101744527Y-117411556D01*
X101803542Y-117229928D01*
X101823504Y-117040000D01*
X101803542Y-116850072D01*
X101744527Y-116668444D01*
X101649040Y-116503056D01*
X101649038Y-116503054D01*
X101649034Y-116503048D01*
X101521255Y-116361135D01*
X101366752Y-116248882D01*
X101199758Y-116174532D01*
X101161912Y-116148520D01*
X101055391Y-116041999D01*
X101055389Y-116041997D01*
X100922968Y-115953516D01*
X100842576Y-115920217D01*
X100775834Y-115892571D01*
X100775832Y-115892570D01*
X100775831Y-115892570D01*
X100697201Y-115876929D01*
X100619632Y-115861500D01*
X100619630Y-115861500D01*
X99189494Y-115861500D01*
X99138245Y-115850607D01*
X99027288Y-115801206D01*
X98840487Y-115761500D01*
X98649513Y-115761500D01*
X98462711Y-115801206D01*
X98288247Y-115878882D01*
X98133744Y-115991135D01*
X98005965Y-116133048D01*
X98005958Y-116133058D01*
X97910476Y-116298438D01*
X97910473Y-116298444D01*
X97910420Y-116298607D01*
X97851457Y-116480072D01*
X97831496Y-116670000D01*
X95208500Y-116670000D01*
X95208500Y-115840290D01*
X95228502Y-115772169D01*
X95240860Y-115755983D01*
X95339040Y-115646944D01*
X95434527Y-115481556D01*
X95493542Y-115299928D01*
X95513504Y-115110000D01*
X95493542Y-114920072D01*
X95434527Y-114738444D01*
X95339040Y-114573056D01*
X95339038Y-114573054D01*
X95339034Y-114573048D01*
X95211255Y-114431135D01*
X95056752Y-114318882D01*
X94882288Y-114241206D01*
X94695482Y-114201498D01*
X94688925Y-114200810D01*
X94689183Y-114198349D01*
X94631793Y-114181498D01*
X94585300Y-114127842D01*
X94574604Y-114062330D01*
X94582186Y-113990179D01*
X94593504Y-113882500D01*
X94573542Y-113692572D01*
X94514527Y-113510944D01*
X94419040Y-113345556D01*
X94419038Y-113345554D01*
X94419034Y-113345548D01*
X94291255Y-113203635D01*
X94136752Y-113091382D01*
X93962288Y-113013706D01*
X93775487Y-112974000D01*
X93684239Y-112974000D01*
X93616118Y-112953998D01*
X93595144Y-112937095D01*
X91935405Y-111277356D01*
X91901379Y-111215044D01*
X91898500Y-111188261D01*
X91898500Y-110680000D01*
X105806835Y-110680000D01*
X105817852Y-110819987D01*
X105825465Y-110916710D01*
X105880894Y-111147592D01*
X105908834Y-111215044D01*
X105971760Y-111366963D01*
X106069853Y-111527036D01*
X106095825Y-111569417D01*
X106095826Y-111569419D01*
X106250030Y-111749969D01*
X106372746Y-111854778D01*
X106430584Y-111904176D01*
X106633037Y-112028240D01*
X106742525Y-112073591D01*
X106797806Y-112118139D01*
X106820227Y-112185503D01*
X106802669Y-112254294D01*
X106750707Y-112302672D01*
X106742525Y-112306409D01*
X106633038Y-112351759D01*
X106430582Y-112475825D01*
X106430580Y-112475826D01*
X106250030Y-112630030D01*
X106095826Y-112810580D01*
X106095825Y-112810582D01*
X105971759Y-113013038D01*
X105880894Y-113232407D01*
X105825465Y-113463289D01*
X105806835Y-113700000D01*
X105825465Y-113936711D01*
X105826203Y-113939784D01*
X105880894Y-114167592D01*
X105968974Y-114380236D01*
X105971760Y-114386963D01*
X105984246Y-114407339D01*
X106095825Y-114589417D01*
X106095826Y-114589419D01*
X106250030Y-114769969D01*
X106430580Y-114924173D01*
X106430584Y-114924176D01*
X106633037Y-115048240D01*
X106852406Y-115139105D01*
X107083289Y-115194535D01*
X107320000Y-115213165D01*
X107556711Y-115194535D01*
X107787594Y-115139105D01*
X108006963Y-115048240D01*
X108209416Y-114924176D01*
X108389969Y-114769969D01*
X108544176Y-114589416D01*
X108668240Y-114386963D01*
X108759105Y-114167594D01*
X108814535Y-113936711D01*
X108833165Y-113700000D01*
X108814535Y-113463289D01*
X108759105Y-113232406D01*
X108668240Y-113013037D01*
X108544176Y-112810584D01*
X108544173Y-112810580D01*
X108389969Y-112630030D01*
X108209419Y-112475826D01*
X108209417Y-112475825D01*
X108209416Y-112475824D01*
X108006963Y-112351760D01*
X107897472Y-112306407D01*
X107842193Y-112261861D01*
X107819772Y-112194498D01*
X107837330Y-112125706D01*
X107889292Y-112077328D01*
X107897461Y-112073596D01*
X108006963Y-112028240D01*
X108209416Y-111904176D01*
X108389969Y-111749969D01*
X108544176Y-111569416D01*
X108668240Y-111366963D01*
X108759105Y-111147594D01*
X108814535Y-110916711D01*
X108833165Y-110680000D01*
X108814535Y-110443289D01*
X108759105Y-110212406D01*
X108668240Y-109993037D01*
X108544176Y-109790584D01*
X108544173Y-109790580D01*
X108389969Y-109610030D01*
X108209419Y-109455826D01*
X108209417Y-109455825D01*
X108209416Y-109455824D01*
X108006963Y-109331760D01*
X107982341Y-109321561D01*
X107787592Y-109240894D01*
X107623502Y-109201500D01*
X107556711Y-109185465D01*
X107320000Y-109166835D01*
X107083289Y-109185465D01*
X106852407Y-109240894D01*
X106633038Y-109331759D01*
X106430582Y-109455825D01*
X106430580Y-109455826D01*
X106250030Y-109610030D01*
X106095826Y-109790580D01*
X106095825Y-109790582D01*
X105971759Y-109993038D01*
X105880894Y-110212407D01*
X105833830Y-110408445D01*
X105825465Y-110443289D01*
X105806835Y-110680000D01*
X91898500Y-110680000D01*
X91898500Y-108764239D01*
X91918502Y-108696118D01*
X91935405Y-108675144D01*
X92785144Y-107825405D01*
X92847456Y-107791379D01*
X92874239Y-107788500D01*
X92965487Y-107788500D01*
X93152288Y-107748794D01*
X93326752Y-107671118D01*
X93481253Y-107558866D01*
X93504626Y-107532908D01*
X93534256Y-107500000D01*
X95586496Y-107500000D01*
X95606457Y-107689927D01*
X95625585Y-107748794D01*
X95665473Y-107871556D01*
X95665476Y-107871561D01*
X95760958Y-108036941D01*
X95760965Y-108036951D01*
X95888744Y-108178864D01*
X95888747Y-108178866D01*
X96043248Y-108291118D01*
X96217712Y-108368794D01*
X96404513Y-108408500D01*
X96595487Y-108408500D01*
X96782288Y-108368794D01*
X96893245Y-108319393D01*
X96944494Y-108308500D01*
X98242918Y-108308500D01*
X98311039Y-108328502D01*
X98332013Y-108345405D01*
X99193908Y-109207300D01*
X99224646Y-109257458D01*
X99232157Y-109280576D01*
X99245473Y-109321556D01*
X99268714Y-109361811D01*
X99340958Y-109486941D01*
X99340965Y-109486951D01*
X99468744Y-109628864D01*
X99468747Y-109628866D01*
X99623248Y-109741118D01*
X99797712Y-109818794D01*
X99984513Y-109858500D01*
X100175487Y-109858500D01*
X100362288Y-109818794D01*
X100536752Y-109741118D01*
X100691253Y-109628866D01*
X100741503Y-109573058D01*
X100819034Y-109486951D01*
X100819035Y-109486949D01*
X100819040Y-109486944D01*
X100914527Y-109321556D01*
X100973542Y-109139928D01*
X100993504Y-108950000D01*
X100973542Y-108760072D01*
X100914527Y-108578444D01*
X100819040Y-108413056D01*
X100819038Y-108413054D01*
X100819034Y-108413048D01*
X100691255Y-108271135D01*
X100536752Y-108158882D01*
X100373893Y-108086373D01*
X100369757Y-108084531D01*
X100331912Y-108058520D01*
X100322459Y-108049067D01*
X100288433Y-107986755D01*
X100293498Y-107915940D01*
X100336045Y-107859104D01*
X100370640Y-107840799D01*
X100552574Y-107778342D01*
X100750576Y-107671189D01*
X100928240Y-107532906D01*
X100989626Y-107466222D01*
X101050476Y-107429654D01*
X101121441Y-107431787D01*
X101179986Y-107471949D01*
X101200380Y-107507529D01*
X101244553Y-107625961D01*
X101244555Y-107625965D01*
X101332095Y-107742904D01*
X101449034Y-107830444D01*
X101585906Y-107881494D01*
X101646402Y-107887999D01*
X101646415Y-107888000D01*
X102291000Y-107888000D01*
X102291000Y-106960702D01*
X102352007Y-106995925D01*
X102479174Y-107030000D01*
X102610826Y-107030000D01*
X102737993Y-106995925D01*
X102799000Y-106960702D01*
X102799000Y-107888000D01*
X103443585Y-107888000D01*
X103443597Y-107887999D01*
X103504093Y-107881494D01*
X103640964Y-107830444D01*
X103640965Y-107830444D01*
X103757904Y-107742904D01*
X103845444Y-107625965D01*
X103845444Y-107625964D01*
X103896494Y-107489093D01*
X103902999Y-107428597D01*
X103903000Y-107428585D01*
X103903000Y-106784000D01*
X102975703Y-106784000D01*
X103010925Y-106722993D01*
X103045000Y-106595826D01*
X103045000Y-106464174D01*
X103010925Y-106337007D01*
X102975703Y-106276000D01*
X103903000Y-106276000D01*
X103903000Y-105680000D01*
X105806835Y-105680000D01*
X105822890Y-105883999D01*
X105825465Y-105916710D01*
X105880894Y-106147592D01*
X105931567Y-106269927D01*
X105971760Y-106366963D01*
X106087047Y-106555094D01*
X106095825Y-106569417D01*
X106095826Y-106569419D01*
X106250030Y-106749969D01*
X106409965Y-106886566D01*
X106430584Y-106904176D01*
X106633037Y-107028240D01*
X106852406Y-107119105D01*
X107083289Y-107174535D01*
X107320000Y-107193165D01*
X107556711Y-107174535D01*
X107787594Y-107119105D01*
X108006963Y-107028240D01*
X108209416Y-106904176D01*
X108389969Y-106749969D01*
X108544176Y-106569416D01*
X108668240Y-106366963D01*
X108759105Y-106147594D01*
X108814535Y-105916711D01*
X108833165Y-105680000D01*
X108814535Y-105443289D01*
X108759105Y-105212406D01*
X108668240Y-104993037D01*
X108544176Y-104790584D01*
X108544173Y-104790580D01*
X108389969Y-104610030D01*
X108209419Y-104455826D01*
X108209417Y-104455825D01*
X108209416Y-104455824D01*
X108006963Y-104331760D01*
X107787594Y-104240895D01*
X107787592Y-104240894D01*
X107629651Y-104202976D01*
X107556711Y-104185465D01*
X107320000Y-104166835D01*
X107083289Y-104185465D01*
X106852407Y-104240894D01*
X106633038Y-104331759D01*
X106430582Y-104455825D01*
X106430580Y-104455826D01*
X106250030Y-104610030D01*
X106095826Y-104790580D01*
X106095825Y-104790582D01*
X105971759Y-104993038D01*
X105880894Y-105212407D01*
X105835585Y-105401135D01*
X105825465Y-105443289D01*
X105806835Y-105680000D01*
X103903000Y-105680000D01*
X103903000Y-105631414D01*
X103902999Y-105631402D01*
X103896494Y-105570906D01*
X103845444Y-105434035D01*
X103845444Y-105434034D01*
X103757904Y-105317095D01*
X103640965Y-105229555D01*
X103504093Y-105178505D01*
X103443597Y-105172000D01*
X102799000Y-105172000D01*
X102799000Y-106099297D01*
X102737993Y-106064075D01*
X102610826Y-106030000D01*
X102479174Y-106030000D01*
X102352007Y-106064075D01*
X102291000Y-106099297D01*
X102291000Y-105172000D01*
X101646402Y-105172000D01*
X101585906Y-105178505D01*
X101449035Y-105229555D01*
X101449034Y-105229555D01*
X101332095Y-105317095D01*
X101244555Y-105434034D01*
X101244553Y-105434039D01*
X101200380Y-105552470D01*
X101157833Y-105609306D01*
X101091313Y-105634116D01*
X101021939Y-105619024D01*
X100989626Y-105593777D01*
X100928240Y-105527094D01*
X100928239Y-105527093D01*
X100928237Y-105527091D01*
X100846382Y-105463381D01*
X100750576Y-105388811D01*
X100552574Y-105281658D01*
X100552572Y-105281657D01*
X100552571Y-105281656D01*
X100339639Y-105208557D01*
X100339630Y-105208555D01*
X100295476Y-105201187D01*
X100117569Y-105171500D01*
X99892431Y-105171500D01*
X99744211Y-105196233D01*
X99670369Y-105208555D01*
X99670360Y-105208557D01*
X99457428Y-105281656D01*
X99457426Y-105281658D01*
X99259426Y-105388810D01*
X99259424Y-105388811D01*
X99081762Y-105527091D01*
X98929279Y-105692729D01*
X98929275Y-105692734D01*
X98806141Y-105881206D01*
X98715703Y-106087386D01*
X98715702Y-106087387D01*
X98660437Y-106305624D01*
X98660436Y-106305630D01*
X98660436Y-106305632D01*
X98641844Y-106530000D01*
X98643923Y-106555095D01*
X98629616Y-106624634D01*
X98579983Y-106675399D01*
X98518354Y-106691500D01*
X96944494Y-106691500D01*
X96893245Y-106680607D01*
X96782288Y-106631206D01*
X96595487Y-106591500D01*
X96404513Y-106591500D01*
X96217711Y-106631206D01*
X96043247Y-106708882D01*
X95888744Y-106821135D01*
X95760965Y-106963048D01*
X95760958Y-106963058D01*
X95665476Y-107128438D01*
X95665473Y-107128445D01*
X95606457Y-107310072D01*
X95586496Y-107500000D01*
X93534256Y-107500000D01*
X93609034Y-107416951D01*
X93609035Y-107416949D01*
X93609040Y-107416944D01*
X93704527Y-107251556D01*
X93763542Y-107069928D01*
X93783504Y-106880000D01*
X93763542Y-106690072D01*
X93754931Y-106663570D01*
X93752903Y-106592602D01*
X93789566Y-106531804D01*
X93853278Y-106500479D01*
X93923812Y-106508571D01*
X93925371Y-106509243D01*
X94112116Y-106591157D01*
X94112117Y-106591157D01*
X94112119Y-106591158D01*
X94352677Y-106652075D01*
X94352685Y-106652077D01*
X94600000Y-106672571D01*
X94847315Y-106652077D01*
X95087884Y-106591157D01*
X95315145Y-106491471D01*
X95522898Y-106355739D01*
X95616115Y-106269927D01*
X95705471Y-106187669D01*
X95705472Y-106187667D01*
X95705477Y-106187663D01*
X95857902Y-105991828D01*
X95976014Y-105773576D01*
X96056592Y-105538859D01*
X96097438Y-105294081D01*
X96100000Y-105170000D01*
X96097438Y-105045919D01*
X96056592Y-104801141D01*
X95979243Y-104575830D01*
X95976015Y-104566426D01*
X95976014Y-104566424D01*
X95857902Y-104348172D01*
X95857901Y-104348171D01*
X95767966Y-104232623D01*
X95705477Y-104152337D01*
X95705475Y-104152335D01*
X95705471Y-104152330D01*
X95522898Y-103984260D01*
X95315144Y-103848528D01*
X95315145Y-103848528D01*
X95087887Y-103748844D01*
X95087880Y-103748841D01*
X94847322Y-103687924D01*
X94847317Y-103687923D01*
X94847315Y-103687923D01*
X94600000Y-103667430D01*
X94352685Y-103687923D01*
X94352683Y-103687923D01*
X94352677Y-103687924D01*
X94112119Y-103748841D01*
X94112112Y-103748844D01*
X93884855Y-103848528D01*
X93677101Y-103984260D01*
X93494528Y-104152330D01*
X93342098Y-104348171D01*
X93342097Y-104348172D01*
X93223985Y-104566424D01*
X93223984Y-104566426D01*
X93143409Y-104801136D01*
X93143407Y-104801143D01*
X93123003Y-104923421D01*
X93102562Y-105045919D01*
X93102562Y-105294081D01*
X93118370Y-105388811D01*
X93143407Y-105538856D01*
X93143409Y-105538863D01*
X93223984Y-105773573D01*
X93223985Y-105773574D01*
X93223986Y-105773576D01*
X93243022Y-105808752D01*
X93248771Y-105819375D01*
X93263601Y-105888806D01*
X93238540Y-105955232D01*
X93181545Y-105997565D01*
X93111760Y-106002591D01*
X92965487Y-105971500D01*
X92774513Y-105971500D01*
X92587711Y-106011206D01*
X92413247Y-106088882D01*
X92258744Y-106201135D01*
X92130965Y-106343048D01*
X92130958Y-106343058D01*
X92035476Y-106508438D01*
X92035473Y-106508444D01*
X92020999Y-106552986D01*
X91976457Y-106690072D01*
X91956496Y-106880000D01*
X91956496Y-106880764D01*
X91956371Y-106881189D01*
X91955806Y-106886566D01*
X91954822Y-106886462D01*
X91936494Y-106948885D01*
X91919591Y-106969859D01*
X90803083Y-108086366D01*
X90803075Y-108086376D01*
X90722967Y-108225127D01*
X90722968Y-108225128D01*
X90682099Y-108377656D01*
X90681500Y-108379890D01*
X90681500Y-109075500D01*
X90661498Y-109143621D01*
X90607842Y-109190114D01*
X90555500Y-109201500D01*
X90444513Y-109201500D01*
X90257711Y-109241206D01*
X90083247Y-109318882D01*
X89928744Y-109431135D01*
X89800965Y-109573048D01*
X89800958Y-109573058D01*
X89705476Y-109738438D01*
X89705473Y-109738444D01*
X89704604Y-109741118D01*
X89646457Y-109920072D01*
X89626496Y-110110000D01*
X80473261Y-110110000D01*
X80411255Y-110041135D01*
X80256752Y-109928882D01*
X80082288Y-109851206D01*
X79895487Y-109811500D01*
X79839594Y-109811500D01*
X79771473Y-109791498D01*
X79750499Y-109774595D01*
X79443277Y-109467373D01*
X79443275Y-109467371D01*
X79339517Y-109398042D01*
X79224227Y-109350287D01*
X79150528Y-109335627D01*
X79101838Y-109325942D01*
X79101836Y-109325942D01*
X78602642Y-109325942D01*
X78534521Y-109305940D01*
X78509005Y-109284252D01*
X78505694Y-109280575D01*
X78451078Y-109240894D01*
X78351194Y-109168324D01*
X78351191Y-109168322D01*
X78351189Y-109168321D01*
X78340296Y-109163471D01*
X78286201Y-109117490D01*
X78265554Y-109049562D01*
X78271713Y-109009438D01*
X78323542Y-108849928D01*
X78336754Y-108724215D01*
X78363767Y-108658559D01*
X78369818Y-108651806D01*
X78371484Y-108649775D01*
X78371491Y-108649769D01*
X78443555Y-108541917D01*
X78493194Y-108422077D01*
X78505018Y-108362633D01*
X78518500Y-108294857D01*
X78518500Y-107604950D01*
X78538502Y-107536829D01*
X78555405Y-107515855D01*
X79005855Y-107065405D01*
X79068167Y-107031379D01*
X79094950Y-107028500D01*
X79115487Y-107028500D01*
X79302288Y-106988794D01*
X79476752Y-106911118D01*
X79631253Y-106798866D01*
X79631255Y-106798864D01*
X79759034Y-106656951D01*
X79759035Y-106656949D01*
X79759040Y-106656944D01*
X79854527Y-106491556D01*
X79913542Y-106309928D01*
X79933504Y-106120000D01*
X79913542Y-105930072D01*
X79854527Y-105748444D01*
X79841839Y-105726468D01*
X79825100Y-105657473D01*
X79848319Y-105590381D01*
X79861854Y-105574378D01*
X79923353Y-105512881D01*
X80033721Y-105347704D01*
X80109744Y-105164169D01*
X80148500Y-104969329D01*
X80148500Y-104770671D01*
X80109744Y-104575831D01*
X80033721Y-104392296D01*
X79923353Y-104227119D01*
X79782881Y-104086647D01*
X79617704Y-103976279D01*
X79434169Y-103900256D01*
X79239331Y-103861500D01*
X79239329Y-103861500D01*
X74499329Y-103861500D01*
X74300671Y-103861500D01*
X74300668Y-103861500D01*
X74105830Y-103900256D01*
X74105825Y-103900258D01*
X73922296Y-103976279D01*
X73757123Y-104086644D01*
X73757116Y-104086649D01*
X73611149Y-104232616D01*
X73611144Y-104232623D01*
X73500779Y-104397796D01*
X73424758Y-104581326D01*
X73424756Y-104581331D01*
X73386000Y-104776168D01*
X73386000Y-104974831D01*
X73424756Y-105169668D01*
X73424758Y-105169673D01*
X73425515Y-105171500D01*
X73500779Y-105353204D01*
X73611147Y-105518381D01*
X73751619Y-105658853D01*
X73916796Y-105769221D01*
X74100332Y-105845244D01*
X74295171Y-105884000D01*
X74295172Y-105884000D01*
X74493829Y-105884000D01*
X74509308Y-105880921D01*
X74533891Y-105878500D01*
X76643502Y-105878500D01*
X76711623Y-105898502D01*
X76758116Y-105952158D01*
X76768220Y-106022432D01*
X76752621Y-106067500D01*
X76665476Y-106218438D01*
X76665473Y-106218445D01*
X76606457Y-106400072D01*
X76586496Y-106590000D01*
X76606457Y-106779927D01*
X76619847Y-106821135D01*
X76665473Y-106961556D01*
X76666339Y-106963056D01*
X76737639Y-107086552D01*
X76760960Y-107126944D01*
X76869136Y-107247086D01*
X76899853Y-107311093D01*
X76901500Y-107331396D01*
X76901500Y-107427231D01*
X76881498Y-107495352D01*
X76864595Y-107516326D01*
X75458087Y-108922833D01*
X75458081Y-108922841D01*
X75429750Y-108971915D01*
X75429749Y-108971917D01*
X75381265Y-109055892D01*
X75381265Y-109055893D01*
X75342250Y-109201500D01*
X75341500Y-109204298D01*
X75341500Y-114312115D01*
X75321498Y-114380236D01*
X75267842Y-114426729D01*
X75197568Y-114436833D01*
X75132988Y-114407339D01*
X75126405Y-114401210D01*
X74858284Y-114133089D01*
X74858280Y-114133086D01*
X74858278Y-114133084D01*
X74754354Y-114073084D01*
X74754353Y-114073083D01*
X74742041Y-114065974D01*
X74725223Y-114056265D01*
X74576819Y-114016500D01*
X74576817Y-114016500D01*
X72899500Y-114016500D01*
X72831379Y-113996498D01*
X72784886Y-113942842D01*
X72773500Y-113890500D01*
X72773500Y-107234957D01*
X72758451Y-107178791D01*
X72733735Y-107086552D01*
X72707879Y-107041770D01*
X72691142Y-106972776D01*
X72691686Y-106965633D01*
X72697933Y-106906204D01*
X72677971Y-106716276D01*
X72618956Y-106534648D01*
X72523469Y-106369260D01*
X72523467Y-106369258D01*
X72523463Y-106369252D01*
X72395684Y-106227339D01*
X72241181Y-106115086D01*
X72066717Y-106037410D01*
X71879916Y-105997704D01*
X71878306Y-105997704D01*
X71877405Y-105997439D01*
X71873354Y-105997014D01*
X71873431Y-105996272D01*
X71810185Y-105977702D01*
X71763692Y-105924046D01*
X71756108Y-105896278D01*
X71754915Y-105896532D01*
X71753541Y-105890069D01*
X71738975Y-105845241D01*
X71694527Y-105708444D01*
X71599040Y-105543056D01*
X71599038Y-105543054D01*
X71599034Y-105543048D01*
X71471255Y-105401135D01*
X71316752Y-105288882D01*
X71142288Y-105211206D01*
X70955487Y-105171500D01*
X70764513Y-105171500D01*
X70577711Y-105211206D01*
X70403247Y-105288882D01*
X70248744Y-105401135D01*
X70120965Y-105543048D01*
X70120958Y-105543058D01*
X70025476Y-105708438D01*
X70025473Y-105708445D01*
X69966457Y-105890072D01*
X69946496Y-106080000D01*
X69966457Y-106269927D01*
X69994340Y-106355739D01*
X70025473Y-106451556D01*
X70025476Y-106451561D01*
X70093519Y-106569416D01*
X70120960Y-106616944D01*
X70244136Y-106753746D01*
X70274853Y-106817752D01*
X70276500Y-106838055D01*
X70276500Y-107366817D01*
X70276499Y-107366817D01*
X70316264Y-107515221D01*
X70316267Y-107515228D01*
X70348757Y-107571501D01*
X70393082Y-107648275D01*
X70393084Y-107648278D01*
X71124596Y-108379790D01*
X71158620Y-108442101D01*
X71161500Y-108468884D01*
X71161500Y-114670500D01*
X71141498Y-114738621D01*
X71087842Y-114785114D01*
X71035500Y-114796500D01*
X70923884Y-114796500D01*
X70855763Y-114776498D01*
X70834788Y-114759595D01*
X70400404Y-114325210D01*
X70366379Y-114262898D01*
X70363500Y-114236115D01*
X70363500Y-112003182D01*
X70363499Y-112003177D01*
X70363025Y-112001407D01*
X70363025Y-112001408D01*
X70363023Y-112001400D01*
X70323736Y-111854778D01*
X70263224Y-111749969D01*
X70246918Y-111721726D01*
X70246913Y-111721720D01*
X69427600Y-110902406D01*
X69393575Y-110840094D01*
X69391387Y-110800139D01*
X69393504Y-110780000D01*
X69373542Y-110590072D01*
X69314527Y-110408444D01*
X69219040Y-110243056D01*
X69219038Y-110243054D01*
X69219034Y-110243048D01*
X69091255Y-110101135D01*
X68936752Y-109988882D01*
X68762288Y-109911206D01*
X68575487Y-109871500D01*
X68384513Y-109871500D01*
X68384510Y-109871500D01*
X68353517Y-109878087D01*
X68282726Y-109872684D01*
X68226095Y-109829866D01*
X68201602Y-109763228D01*
X68201323Y-109754840D01*
X68201323Y-109608436D01*
X68221325Y-109540315D01*
X68233687Y-109524125D01*
X68234871Y-109522810D01*
X68299040Y-109451544D01*
X68394527Y-109286156D01*
X68453542Y-109104528D01*
X68473504Y-108914600D01*
X68453542Y-108724672D01*
X68394527Y-108543044D01*
X68299040Y-108377656D01*
X68299038Y-108377654D01*
X68299034Y-108377648D01*
X68171255Y-108235735D01*
X68016752Y-108123482D01*
X67842288Y-108045806D01*
X67655487Y-108006100D01*
X67464513Y-108006100D01*
X67277711Y-108045806D01*
X67103247Y-108123482D01*
X66948744Y-108235735D01*
X66820965Y-108377648D01*
X66820958Y-108377658D01*
X66725476Y-108543038D01*
X66725473Y-108543045D01*
X66666457Y-108724672D01*
X66646496Y-108914600D01*
X66666457Y-109104527D01*
X66677960Y-109139927D01*
X66725473Y-109286156D01*
X66725476Y-109286161D01*
X66790070Y-109398042D01*
X66820960Y-109451544D01*
X66886312Y-109524125D01*
X66901959Y-109541502D01*
X66932676Y-109605510D01*
X66934323Y-109625813D01*
X66934323Y-109812073D01*
X66914321Y-109880194D01*
X66901960Y-109896383D01*
X66828780Y-109977658D01*
X66752373Y-110110000D01*
X66733296Y-110143043D01*
X66720295Y-110183056D01*
X66674280Y-110324671D01*
X66654319Y-110514599D01*
X66674280Y-110704526D01*
X66690999Y-110755979D01*
X66733296Y-110886155D01*
X66733299Y-110886160D01*
X66828781Y-111051540D01*
X66828788Y-111051550D01*
X66956567Y-111193463D01*
X66956570Y-111193465D01*
X67111071Y-111305717D01*
X67285535Y-111383393D01*
X67472336Y-111423099D01*
X67663309Y-111423099D01*
X67663310Y-111423099D01*
X67737556Y-111407317D01*
X67808346Y-111412718D01*
X67857389Y-111446252D01*
X67868747Y-111458866D01*
X68023248Y-111571118D01*
X68197712Y-111648794D01*
X68384513Y-111688500D01*
X68511115Y-111688500D01*
X68579236Y-111708502D01*
X68600210Y-111725404D01*
X69159595Y-112284788D01*
X69193620Y-112347101D01*
X69196500Y-112373884D01*
X69196500Y-114606817D01*
X69196499Y-114606817D01*
X69236266Y-114755227D01*
X69274674Y-114821750D01*
X69313081Y-114888274D01*
X69313089Y-114888284D01*
X69391779Y-114966974D01*
X69425805Y-115029286D01*
X69420740Y-115100101D01*
X69396321Y-115140379D01*
X69320389Y-115224710D01*
X69320386Y-115224714D01*
X69224904Y-115390094D01*
X69224901Y-115390101D01*
X69165885Y-115571728D01*
X69145924Y-115761656D01*
X69165885Y-115951583D01*
X69178737Y-115991135D01*
X69224901Y-116133212D01*
X69224904Y-116133217D01*
X69320386Y-116298597D01*
X69320393Y-116298607D01*
X69448172Y-116440520D01*
X69448175Y-116440522D01*
X69602676Y-116552774D01*
X69777140Y-116630450D01*
X69963941Y-116670156D01*
X70154915Y-116670156D01*
X70341716Y-116630450D01*
X70516180Y-116552774D01*
X70626579Y-116472564D01*
X70693447Y-116448706D01*
X70700640Y-116448500D01*
X72853945Y-116448500D01*
X72922066Y-116468502D01*
X72968559Y-116522158D01*
X72973775Y-116535556D01*
X72979370Y-116552774D01*
X72985475Y-116571561D01*
X73080958Y-116736941D01*
X73080965Y-116736951D01*
X73208744Y-116878864D01*
X73208747Y-116878866D01*
X73363248Y-116991118D01*
X73537712Y-117068794D01*
X73724513Y-117108500D01*
X73750500Y-117108500D01*
X73818621Y-117128502D01*
X73865114Y-117182158D01*
X73876500Y-117234500D01*
X73876500Y-117615557D01*
X73856498Y-117683678D01*
X73839595Y-117704652D01*
X72094652Y-119449595D01*
X72032340Y-119483621D01*
X72005557Y-119486500D01*
X67118917Y-119486500D01*
X67056195Y-119503306D01*
X66970514Y-119526264D01*
X66970511Y-119526266D01*
X66940125Y-119543810D01*
X66940124Y-119543810D01*
X66837461Y-119603081D01*
X66837451Y-119603089D01*
X64545935Y-121894607D01*
X64483623Y-121928632D01*
X64456840Y-121931512D01*
X58263220Y-121931512D01*
X58195099Y-121911510D01*
X58169584Y-121889822D01*
X58121255Y-121836147D01*
X57966752Y-121723894D01*
X57792288Y-121646218D01*
X57605487Y-121606512D01*
X57414513Y-121606512D01*
X57227711Y-121646218D01*
X57053247Y-121723894D01*
X56898744Y-121836147D01*
X56770965Y-121978060D01*
X56770958Y-121978070D01*
X56675476Y-122143450D01*
X56675473Y-122143457D01*
X56616457Y-122325084D01*
X56596496Y-122515012D01*
X50000000Y-122515012D01*
X50000000Y-101375075D01*
X50001551Y-101355364D01*
X50007661Y-101316790D01*
X50032639Y-101159078D01*
X50037255Y-101139857D01*
X50103976Y-100934508D01*
X50111533Y-100916264D01*
X50209568Y-100723859D01*
X50219878Y-100707034D01*
X50346811Y-100532328D01*
X50359636Y-100517313D01*
X50512313Y-100364636D01*
X50527328Y-100351811D01*
X50702034Y-100224878D01*
X50718859Y-100214568D01*
X50911264Y-100116533D01*
X50929508Y-100108976D01*
X51134860Y-100042254D01*
X51154078Y-100037639D01*
X51368574Y-100003666D01*
X51385790Y-100002142D01*
X51492808Y-100000043D01*
X51493777Y-100000024D01*
X51496247Y-100000000D01*
X73043531Y-100000000D01*
X73111652Y-100020002D01*
G37*
%TD.AperFunction*%
%TA.AperFunction,Conductor*%
G36*
X78864069Y-129299760D02*
G01*
X78864071Y-129299760D01*
X78903060Y-129244077D01*
X78958516Y-129199747D01*
X79029136Y-129192437D01*
X79092497Y-129224467D01*
X79120466Y-129263090D01*
X79122900Y-129268310D01*
X79165928Y-129329760D01*
X79735841Y-128759847D01*
X79754075Y-128827893D01*
X79819901Y-128941907D01*
X79912993Y-129034999D01*
X80027007Y-129100825D01*
X80095051Y-129119058D01*
X79525138Y-129688970D01*
X79525138Y-129688972D01*
X79586585Y-129731997D01*
X79646219Y-129759805D01*
X79699504Y-129806722D01*
X79718965Y-129875000D01*
X79698423Y-129942960D01*
X79644400Y-129989025D01*
X79592969Y-130000000D01*
X78372696Y-130000000D01*
X78304575Y-129979998D01*
X78258082Y-129926342D01*
X78247978Y-129856068D01*
X78277472Y-129791488D01*
X78319446Y-129759805D01*
X78443406Y-129702001D01*
X78504860Y-129658970D01*
X78504860Y-129658969D01*
X77934948Y-129089057D01*
X78002993Y-129070825D01*
X78117007Y-129004999D01*
X78210099Y-128911907D01*
X78275925Y-128797893D01*
X78294157Y-128729848D01*
X78864069Y-129299760D01*
G37*
%TD.AperFunction*%
%TD*%
M02*
