%TF.GenerationSoftware,KiCad,Pcbnew,8.0.5*%
%TF.CreationDate,2025-04-29T16:12:59+02:00*%
%TF.ProjectId,ForestFireDetection,466f7265-7374-4466-9972-654465746563,rev?*%
%TF.SameCoordinates,Original*%
%TF.FileFunction,Legend,Bot*%
%TF.FilePolarity,Positive*%
%FSLAX46Y46*%
G04 Gerber Fmt 4.6, Leading zero omitted, Abs format (unit mm)*
G04 Created by KiCad (PCBNEW 8.0.5) date 2025-04-29 16:12:59*
%MOMM*%
%LPD*%
G01*
G04 APERTURE LIST*
%ADD10C,0.150000*%
%ADD11C,0.254000*%
G04 APERTURE END LIST*
D10*
X75327619Y-129104819D02*
X75660952Y-128628628D01*
X75899047Y-129104819D02*
X75899047Y-128104819D01*
X75899047Y-128104819D02*
X75518095Y-128104819D01*
X75518095Y-128104819D02*
X75422857Y-128152438D01*
X75422857Y-128152438D02*
X75375238Y-128200057D01*
X75375238Y-128200057D02*
X75327619Y-128295295D01*
X75327619Y-128295295D02*
X75327619Y-128438152D01*
X75327619Y-128438152D02*
X75375238Y-128533390D01*
X75375238Y-128533390D02*
X75422857Y-128581009D01*
X75422857Y-128581009D02*
X75518095Y-128628628D01*
X75518095Y-128628628D02*
X75899047Y-128628628D01*
X74946666Y-129057200D02*
X74803809Y-129104819D01*
X74803809Y-129104819D02*
X74565714Y-129104819D01*
X74565714Y-129104819D02*
X74470476Y-129057200D01*
X74470476Y-129057200D02*
X74422857Y-129009580D01*
X74422857Y-129009580D02*
X74375238Y-128914342D01*
X74375238Y-128914342D02*
X74375238Y-128819104D01*
X74375238Y-128819104D02*
X74422857Y-128723866D01*
X74422857Y-128723866D02*
X74470476Y-128676247D01*
X74470476Y-128676247D02*
X74565714Y-128628628D01*
X74565714Y-128628628D02*
X74756190Y-128581009D01*
X74756190Y-128581009D02*
X74851428Y-128533390D01*
X74851428Y-128533390D02*
X74899047Y-128485771D01*
X74899047Y-128485771D02*
X74946666Y-128390533D01*
X74946666Y-128390533D02*
X74946666Y-128295295D01*
X74946666Y-128295295D02*
X74899047Y-128200057D01*
X74899047Y-128200057D02*
X74851428Y-128152438D01*
X74851428Y-128152438D02*
X74756190Y-128104819D01*
X74756190Y-128104819D02*
X74518095Y-128104819D01*
X74518095Y-128104819D02*
X74375238Y-128152438D01*
X74089523Y-128104819D02*
X73518095Y-128104819D01*
X73803809Y-129104819D02*
X73803809Y-128104819D01*
X83744761Y-128461009D02*
X83601904Y-128508628D01*
X83601904Y-128508628D02*
X83554285Y-128556247D01*
X83554285Y-128556247D02*
X83506666Y-128651485D01*
X83506666Y-128651485D02*
X83506666Y-128794342D01*
X83506666Y-128794342D02*
X83554285Y-128889580D01*
X83554285Y-128889580D02*
X83601904Y-128937200D01*
X83601904Y-128937200D02*
X83697142Y-128984819D01*
X83697142Y-128984819D02*
X84078094Y-128984819D01*
X84078094Y-128984819D02*
X84078094Y-127984819D01*
X84078094Y-127984819D02*
X83744761Y-127984819D01*
X83744761Y-127984819D02*
X83649523Y-128032438D01*
X83649523Y-128032438D02*
X83601904Y-128080057D01*
X83601904Y-128080057D02*
X83554285Y-128175295D01*
X83554285Y-128175295D02*
X83554285Y-128270533D01*
X83554285Y-128270533D02*
X83601904Y-128365771D01*
X83601904Y-128365771D02*
X83649523Y-128413390D01*
X83649523Y-128413390D02*
X83744761Y-128461009D01*
X83744761Y-128461009D02*
X84078094Y-128461009D01*
X82554285Y-128984819D02*
X83125713Y-128984819D01*
X82839999Y-128984819D02*
X82839999Y-127984819D01*
X82839999Y-127984819D02*
X82935237Y-128127676D01*
X82935237Y-128127676D02*
X83030475Y-128222914D01*
X83030475Y-128222914D02*
X83125713Y-128270533D01*
X67573332Y-111985180D02*
X66954285Y-111985180D01*
X66954285Y-111985180D02*
X67287618Y-111604228D01*
X67287618Y-111604228D02*
X67144761Y-111604228D01*
X67144761Y-111604228D02*
X67049523Y-111556609D01*
X67049523Y-111556609D02*
X67001904Y-111508990D01*
X67001904Y-111508990D02*
X66954285Y-111413752D01*
X66954285Y-111413752D02*
X66954285Y-111175657D01*
X66954285Y-111175657D02*
X67001904Y-111080419D01*
X67001904Y-111080419D02*
X67049523Y-111032800D01*
X67049523Y-111032800D02*
X67144761Y-110985180D01*
X67144761Y-110985180D02*
X67430475Y-110985180D01*
X67430475Y-110985180D02*
X67525713Y-111032800D01*
X67525713Y-111032800D02*
X67573332Y-111080419D01*
X66174285Y-114975180D02*
X66745713Y-114975180D01*
X66459999Y-114975180D02*
X66459999Y-115975180D01*
X66459999Y-115975180D02*
X66555237Y-115832323D01*
X66555237Y-115832323D02*
X66650475Y-115737085D01*
X66650475Y-115737085D02*
X66745713Y-115689466D01*
D11*
%TO.C,SW2*%
X80346999Y-121594900D02*
G75*
G02*
X80092999Y-121594900I-127000J0D01*
G01*
X80092999Y-121594900D02*
G75*
G02*
X80346999Y-121594900I127000J0D01*
G01*
%TO.C,SW1*%
X71436999Y-121564900D02*
G75*
G02*
X71182999Y-121564900I-127000J0D01*
G01*
X71182999Y-121564900D02*
G75*
G02*
X71436999Y-121564900I127000J0D01*
G01*
%TD*%
M02*
